<svg width="151" height="151" viewBox="0 0 151 151" fill="none" xmlns="http://www.w3.org/2000/svg">
<g clip-path="url(#clip0_661_12325)">
<g filter="url(#filter0_b_661_12325)">
<circle cx="75.5" cy="75.5" r="75.5" fill="#787878" fill-opacity="0.35"/>
<path fill-rule="evenodd" clip-rule="evenodd" d="M93.4763 50.3336C93.4763 40.4061 85.4276 32.3574 75.5001 32.3574C65.5727 32.3574 57.5239 40.4061 57.5239 50.3336V53.9289C57.5239 63.8563 65.5727 71.905 75.5001 71.905L76.306 71.8864C85.9419 71.4138 93.4763 63.5227 93.4763 53.9289V50.3336ZM64.7144 50.3336C64.7144 44.3773 69.5438 39.5479 75.5001 39.5479C81.4564 39.5479 86.2858 44.3773 86.2858 50.3336V53.9289C86.2858 59.6842 81.7641 64.42 76.0413 64.7013L75.412 64.7156C69.5438 64.7146 64.7144 59.8851 64.7144 53.9289V50.3336ZM91.6783 75.4999C90.5467 75.4999 89.4811 76.0327 88.8021 76.938L75.4998 94.6745L62.1974 76.938C61.5184 76.0327 60.4528 75.4999 59.3212 75.4999H57.5236C45.6091 75.4999 35.9521 85.1582 35.9521 97.0714V113.61C35.9521 118.401 39.8351 122.238 44.6239 122.238H106.376C111.164 122.238 115.047 118.401 115.047 113.61V97.0714C115.047 85.1582 105.39 75.4999 93.476 75.4999H91.6783ZM43.1426 97.0714C43.1426 89.3698 49.1962 83.082 56.8058 82.708L57.5236 82.6904L72.6236 102.824C74.0617 104.741 76.9379 104.741 78.376 102.824L93.476 82.6904C101.419 82.6904 107.857 89.1291 107.857 97.0714V113.61C107.857 114.411 107.212 115.048 106.376 115.048H44.6239C43.7874 115.048 43.1426 114.411 43.1426 113.61V97.0714ZM100.667 104.294C100.667 106.279 99.0572 107.889 97.0716 107.889H89.8811C87.8955 107.889 86.2858 106.279 86.2858 104.294C86.2858 102.308 87.8955 100.699 89.8811 100.699H97.0716C99.0572 100.699 100.667 102.308 100.667 104.294Z" fill="url(#paint0_linear_661_12325)"/>
</g>
</g>
<defs>
<filter id="filter0_b_661_12325" x="-4" y="-4" width="159" height="159" filterUnits="userSpaceOnUse" color-interpolation-filters="sRGB">
<feFlood flood-opacity="0" result="BackgroundImageFix"/>
<feGaussianBlur in="BackgroundImageFix" stdDeviation="2"/>
<feComposite in2="SourceAlpha" operator="in" result="effect1_backgroundBlur_661_12325"/>
<feBlend mode="normal" in="SourceGraphic" in2="effect1_backgroundBlur_661_12325" result="shape"/>
</filter>
<linearGradient id="paint0_linear_661_12325" x1="35.9521" y1="122.238" x2="109.286" y2="126.716" gradientUnits="userSpaceOnUse">
<stop stop-color="#1DD13B"/>
<stop offset="1" stop-color="#27C6E5"/>
</linearGradient>
<clipPath id="clip0_661_12325">
<rect width="151" height="151" fill="white"/>
</clipPath>
</defs>
</svg>
