<svg width="18" height="23" viewBox="0 0 18 23" fill="none" xmlns="http://www.w3.org/2000/svg">
<path d="M9.00146 23C10.3066 23 11.3745 21.9385 11.3745 20.641H6.62843C6.62843 21.9385 7.68443 23 9.00146 23ZM16.1205 15.9231V10.0256C16.1205 6.40462 14.1747 3.37333 10.7812 2.57128V1.76923C10.7812 0.790256 9.98627 0 9.00146 0C8.01666 0 7.22169 0.790256 7.22169 1.76923V2.57128C3.8164 3.37333 1.88238 6.39282 1.88238 10.0256V15.9231L0.351774 17.4446C-0.395729 18.1877 0.126337 19.4615 1.18233 19.4615H16.8087C17.8647 19.4615 18.3987 18.1877 17.6512 17.4446L16.1205 15.9231Z" fill="url(#paint0_linear_701_147919)"/>
<defs>
<linearGradient id="paint0_linear_701_147919" x1="-1.3411e-07" y1="23" x2="16.7018" y2="23.9069" gradientUnits="userSpaceOnUse">
<stop stop-color="#1DD13B"/>
<stop offset="1" stop-color="#27C6E5"/>
</linearGradient>
</defs>
</svg>
