<svg width="20" height="19" viewBox="0 0 20 19" fill="none" xmlns="http://www.w3.org/2000/svg">
<path fill-rule="evenodd" clip-rule="evenodd" d="M15 0C15.4602 0 15.8333 0.386663 15.8333 0.863636V1.72727H18.3333C19.2536 1.72727 20 2.50084 20 3.45455V17.2727C20 18.2264 19.2536 19 18.3333 19H1.66667C0.746429 19 0 18.2264 0 17.2727V3.45455C0 2.50084 0.746429 1.72727 1.66667 1.72727H4.16667V0.863636C4.16667 0.420733 4.48837 0.0556983 4.90282 0.00581028L5 0C5.46024 0 5.83333 0.386663 5.83333 0.863636V1.72727H14.1667V0.863636C14.1667 0.420733 14.4884 0.0556983 14.9028 0.00581028L15 0ZM18.3333 8.63636H1.66667V17.2727H18.3333V8.63636ZM4.16667 3.45455H1.66667V6.90909H18.3333V3.45455H15.8333V4.31818C15.8333 4.76109 15.5116 5.12612 15.0972 5.17601L15 5.18182C14.5398 5.18182 14.1667 4.79516 14.1667 4.31818V3.45455H5.83333V4.31818C5.83333 4.76109 5.51163 5.12612 5.09718 5.17601L5 5.18182C4.53976 5.18182 4.16667 4.79516 4.16667 4.31818V3.45455Z" fill="url(#paint0_linear_949_60807)"/>
<defs>
<linearGradient id="paint0_linear_949_60807" x1="-1.49012e-07" y1="19" x2="18.5136" y2="20.3522" gradientUnits="userSpaceOnUse">
<stop stop-color="#1DD13B"/>
<stop offset="1" stop-color="#27C6E5"/>
</linearGradient>
</defs>
</svg>
