<svg width="29" height="29" viewBox="0 0 29 29" fill="none" xmlns="http://www.w3.org/2000/svg">
<path fill-rule="evenodd" clip-rule="evenodd" d="M18.5276 8.86111C18.5276 6.63674 16.7242 4.83333 14.4999 4.83333C12.2755 4.83333 10.4721 6.63674 10.4721 8.86111V9.66667C10.4721 11.891 12.2755 13.6944 14.4999 13.6944L14.6804 13.6903C16.8395 13.5844 18.5276 11.8163 18.5276 9.66667V8.86111ZM12.0832 8.86111C12.0832 7.52654 13.1653 6.44444 14.4999 6.44444C15.8344 6.44444 16.9165 7.52654 16.9165 8.86111V9.66667C16.9165 10.9562 15.9034 12.0173 14.6211 12.0804L14.4801 12.0836C13.1653 12.0833 12.0832 11.0012 12.0832 9.66667V8.86111ZM18.1248 14.4999C17.8712 14.4999 17.6325 14.6193 17.4803 14.8221L14.4998 18.7962L11.5192 14.8221C11.3671 14.6193 11.1283 14.4999 10.8748 14.4999H10.472C7.80242 14.4999 5.63867 16.664 5.63867 19.3333V23.0389C5.63867 24.1124 6.50869 24.9722 7.58167 24.9722H21.4179C22.4909 24.9722 23.3609 24.1124 23.3609 23.0389V19.3333C23.3609 16.664 21.1971 14.4999 18.5276 14.4999H18.1248ZM7.24978 19.3333C7.24978 17.6076 8.60616 16.1988 10.3112 16.115L10.472 16.111L13.8553 20.6221C14.1776 21.0518 14.822 21.0518 15.1442 20.6221L18.5276 16.111C20.3073 16.111 21.7498 17.5537 21.7498 19.3333V23.0389C21.7498 23.2183 21.6053 23.3611 21.4179 23.3611H7.58167C7.39425 23.3611 7.24978 23.2183 7.24978 23.0389V19.3333ZM19.3332 21.7571H17.7221C17.2772 21.7571 16.9165 21.3964 16.9165 20.9515C16.9165 20.5066 17.2772 20.146 17.7221 20.146H19.3332C19.7781 20.146 20.1388 20.5066 20.1388 20.9515C20.1388 21.3964 19.7781 21.7571 19.3332 21.7571Z" fill="url(#paint0_linear_642_136836)"/>
<defs>
<linearGradient id="paint0_linear_642_136836" x1="5.63867" y1="24.9722" x2="22.07" y2="25.9755" gradientUnits="userSpaceOnUse">
<stop stop-color="#1DD13B"/>
<stop offset="1" stop-color="#27C6E5"/>
</linearGradient>
</defs>
</svg>
