<svg width="84" height="28" viewBox="0 0 84 28" fill="none" xmlns="http://www.w3.org/2000/svg">
<g id="Group 335294442">
<g id="Group">
<path id="Vector" d="M40.8918 0.22556C42.217 0.22556 43.538 0.171893 44.859 0.22556C47.0267 0.29773 49.1749 0.661532 51.2454 1.30716C51.7997 1.49416 52.3416 1.71616 52.8678 1.97181C53.1637 2.12007 53.4408 2.303 53.6935 2.51674C54.2879 3.00387 54.709 3.57769 54.5769 4.4116C54.5542 4.59391 54.5542 4.77834 54.5769 4.96066C54.6099 5.34871 54.3003 5.82758 54.6347 6.10418C54.9691 6.38077 55.3159 5.98033 55.6792 5.98033C56.8274 5.93128 57.957 6.28299 58.8744 6.97524C59.3568 7.35198 59.7215 7.85872 59.9256 8.43578C60.1296 9.01284 60.1645 9.63618 60.0262 10.2324C59.8252 11.2124 59.2842 12.0898 58.4987 12.7094C57.6258 13.4426 56.6213 14.003 55.5388 14.3607C54.6347 14.6662 53.7224 14.9386 52.81 15.2111C52.6284 15.2648 52.4756 15.306 52.3972 15.5001C52.1206 16.1028 51.8275 16.6931 51.5716 17.2917C51.5537 17.3241 51.5449 17.3607 51.5461 17.3977C51.5473 17.4347 51.5583 17.4707 51.5782 17.5019C51.598 17.5331 51.6259 17.5584 51.6588 17.5752C51.6918 17.592 51.7287 17.5996 51.7656 17.5972C52.8267 17.6874 53.8813 17.8418 54.9237 18.0596C55.8977 18.2421 56.8469 18.5386 57.7515 18.943C58.2577 19.1618 58.7248 19.4615 59.1345 19.8306C59.3394 19.9891 59.5102 20.1873 59.6366 20.4133C59.763 20.6394 59.8425 20.8886 59.8702 21.1461C59.898 21.4037 59.8734 21.6641 59.7981 21.9119C59.7228 22.1597 59.5981 22.3898 59.4317 22.5883C59.0848 23.0653 58.654 23.4752 58.1602 23.7978C57.339 24.3522 56.46 24.8159 55.5388 25.1808C53.2045 26.1012 50.7764 26.7629 48.2979 27.1541C46.6672 27.4431 45.0242 27.6041 43.377 27.7444C41.5466 27.8952 39.7064 27.8827 37.8782 27.7073C35.3161 27.5021 32.7738 27.0991 30.2739 26.5018C28.5224 26.091 26.818 25.5002 25.1879 24.7391C24.4888 24.4133 23.8283 24.0104 23.2188 23.5378C22.7765 23.203 22.4071 22.7816 22.133 22.2993C21.9395 21.9631 21.8543 21.5754 21.889 21.1891C21.9237 20.8027 22.0767 20.4365 22.3271 20.1402C22.6874 19.7211 23.1282 19.3785 23.6233 19.1329C24.6069 18.6347 25.6564 18.2788 26.7402 18.0761C27.7878 17.8662 28.8484 17.7269 29.9148 17.6591C30.2038 17.6344 30.2739 17.5023 30.146 17.2174C30.018 16.9326 29.8859 16.689 29.7579 16.4248C28.652 14.265 27.9179 11.9343 27.5865 9.53062C27.3354 7.71212 27.1975 5.87978 27.1736 4.04419C27.166 3.64502 27.314 3.25856 27.5865 2.96671C28.0605 2.45362 28.6391 2.04818 29.2832 1.77778C30.4994 1.25946 31.7751 0.893398 33.0812 0.687922C35.6597 0.246201 38.2792 0.0911387 40.8918 0.22556ZM48.3763 20.2682C48.3182 20.2764 48.2656 20.3068 48.2294 20.353C48.1933 20.3991 48.1764 20.4575 48.1823 20.5159C48.1343 20.5123 48.0866 20.5257 48.0474 20.5535C48.0082 20.5814 47.98 20.6221 47.9676 20.6686C47.9676 20.6893 48.0213 20.7471 48.0295 20.7429C48.108 20.7017 48.1823 20.648 48.2607 20.5984L48.5579 20.4333L48.7602 20.2558C48.8676 20.1443 49.0616 20.0287 48.8676 19.8719C48.7437 19.7728 48.6488 19.9173 48.591 20.037C48.5359 20.0491 48.4858 20.0777 48.4474 20.119C48.4091 20.1603 48.3843 20.2124 48.3763 20.2682ZM32.7674 19.6696C32.6229 19.7852 32.6642 19.9132 32.7426 20.0453C32.937 20.3129 33.1843 20.5377 33.4692 20.7058C34.4808 21.4419 35.6309 21.9657 36.8502 22.2456C38.0557 22.5346 39.2694 22.8814 40.5368 22.6254C40.7148 22.5856 40.8995 22.5856 41.0776 22.6254C42.0023 22.8525 42.9022 22.6254 43.7981 22.4851C45.1793 22.2731 46.5059 21.7936 47.7034 21.0732C47.9841 20.8998 48.0873 20.7429 47.7034 20.5489C47.5961 20.4911 47.6084 20.3631 47.7034 20.2723C47.8726 20.0824 48.046 19.8884 48.2277 19.7109C48.4093 19.5334 48.5786 19.4838 48.7561 19.7522C48.9336 20.0205 49.0616 19.8099 49.2061 19.7026C49.3506 19.5953 49.4166 19.4508 49.301 19.3435C48.9955 19.0751 49.1359 18.8398 49.301 18.5715C49.6849 17.8614 50.1019 17.1679 50.4239 16.433C51.565 13.8102 52.2853 11.0238 52.5582 8.17656C52.5871 7.88758 52.5582 7.59034 52.5912 7.29724C52.5912 7.13211 52.5623 6.88442 52.81 6.88442C53.0577 6.88442 53.0123 7.15688 53.0123 7.33852C53.0123 7.66878 53.0123 7.99492 52.9876 8.32517C52.8719 9.60462 52.6566 10.8731 52.3435 12.119C52.0546 13.4855 51.5179 14.7776 51.134 16.1069L49.59 18.9967C49.5741 19.0177 49.5632 19.042 49.5581 19.0679C49.553 19.0938 49.5539 19.1204 49.5606 19.1459C49.5674 19.1714 49.5799 19.195 49.5971 19.2149C49.6144 19.2348 49.6359 19.2506 49.6602 19.2609C49.7015 19.2609 49.8088 19.2237 49.846 19.1742C50.5631 18.2532 51.1391 17.2306 51.5551 16.1399C52.3337 14.769 52.9172 13.2962 53.2889 11.764C53.8214 9.65034 53.9412 7.48301 54.1146 5.32394C54.12 5.2148 54.1131 5.10539 54.0939 4.99781C54.0917 4.96184 54.0802 4.92707 54.0604 4.89696C54.0406 4.86685 54.0133 4.84244 53.9812 4.82616C53.949 4.80988 53.9132 4.80229 53.8772 4.80416C53.8412 4.80603 53.8063 4.81729 53.776 4.83681C53.0233 5.29481 52.2267 5.6765 51.3982 5.9762C48.656 6.93758 45.782 7.47087 42.8775 7.55732C42.0518 7.58209 41.1849 7.53668 40.3427 7.55732C38.0257 7.61364 35.7108 7.37785 33.4527 6.85552C31.5165 6.41793 29.6093 5.86887 27.9167 4.7914C27.8713 4.75837 27.7805 4.7914 27.6732 4.7914C27.6891 6.84692 27.8964 8.89651 28.2924 10.9136C28.8332 13.6878 30.0469 16.1936 31.4959 18.5962C31.7051 18.9414 31.9515 19.2626 32.2307 19.554C32.3298 19.6655 32.528 19.8512 32.7674 19.6696ZM30.5547 18.2206C30.4898 18.1719 30.4158 18.137 30.337 18.1178C30.2582 18.0987 30.1764 18.0957 30.0964 18.1091C29.2887 18.1234 28.4842 18.2146 27.6938 18.3816C26.6037 18.5397 25.5365 18.828 24.515 19.2403C23.9984 19.4411 23.5153 19.7195 23.0825 20.0659C22.1826 20.8131 22.0918 21.6553 22.8266 22.5429C23.2106 22.989 23.6636 23.3709 24.1683 23.674C25.1669 24.2938 26.2335 24.7966 27.347 25.1725C31.1784 26.4645 35.1754 27.2 39.2157 27.3564C41.9331 27.4779 44.6558 27.3174 47.3401 26.8775C49.7396 26.5389 52.0999 25.965 54.387 25.1643C55.4284 24.8027 56.431 24.3381 57.38 23.7772C57.9541 23.4552 58.4681 23.0362 58.8992 22.5387C59.6134 21.6594 59.5473 20.8874 58.6969 20.132C58.2143 19.7343 57.665 19.4254 57.0745 19.2196C55.4538 18.6327 53.7581 18.2783 52.038 18.1669C51.7514 18.0858 51.445 18.1107 51.1752 18.2371C51.2832 18.2773 51.3954 18.305 51.5096 18.3197C52.6944 18.2866 53.8297 18.6004 54.9774 18.8357C55.1907 18.8859 55.4004 18.9508 55.6049 19.0297C55.6303 19.0389 55.6536 19.0531 55.6735 19.0714C55.6934 19.0898 55.7094 19.1119 55.7205 19.1365C55.7317 19.1612 55.7378 19.1878 55.7385 19.2148C55.7392 19.2418 55.7344 19.2687 55.7246 19.2939C55.7058 19.3448 55.6688 19.387 55.6208 19.4121C55.5727 19.4373 55.517 19.4437 55.4645 19.4301L54.2879 19.1536C53.3218 18.9289 52.3359 18.8003 51.3445 18.7696C51.1072 18.746 50.8686 18.8005 50.6652 18.925C50.4617 19.0495 50.3045 19.237 50.2175 19.4591C50.1473 19.6201 50.2175 19.7522 50.3744 19.7852C50.9853 19.9008 51.6128 19.9875 52.2156 20.1154C52.6502 20.1934 53.0611 20.3699 53.4169 20.6315C53.5095 20.6921 53.5877 20.7725 53.6456 20.8668C53.7036 20.9612 53.74 21.0672 53.7523 21.1772C53.7645 21.2873 53.7522 21.3987 53.7164 21.5034C53.6805 21.6082 53.6219 21.7038 53.5449 21.7833C53.2791 22.0913 52.9396 22.327 52.5582 22.4685C51.883 22.7481 51.1941 22.9934 50.4941 23.2034C48.3625 23.7588 46.1872 24.1304 43.9921 24.3139C43.3357 24.3799 42.6752 24.4088 42.0147 24.4749C40.6576 24.5513 39.2963 24.5016 37.9483 24.3262C35.7169 24.1671 33.5054 23.798 31.3432 23.224C30.6414 23.03 29.9478 22.7782 29.279 22.514C28.8961 22.377 28.549 22.1555 28.2635 21.8658C28.1586 21.7875 28.0761 21.6831 28.0243 21.5629C27.9725 21.4428 27.9531 21.3111 27.9682 21.1811C27.9832 21.0511 28.0321 20.9273 28.1101 20.8222C28.188 20.717 28.2921 20.6342 28.4121 20.5819C28.7212 20.3849 29.0599 20.2386 29.4153 20.1485C29.9478 20.0122 30.4969 19.9462 31.0377 19.8471C31.2441 19.81 31.4835 19.8471 31.5826 19.5746C31.5289 19.4797 31.467 19.3889 31.4216 19.2898C31.339 19.0791 31.182 18.9061 30.9804 18.8034C30.7788 18.7007 30.5466 18.6755 30.3276 18.7325C28.903 18.8767 27.4931 19.1405 26.1127 19.521C25.898 19.5788 25.6998 19.6448 25.4769 19.6985C25.3613 19.7233 25.2416 19.6655 25.2416 19.5623C25.2478 19.5098 25.266 19.4595 25.2946 19.4152C25.3232 19.3708 25.3616 19.3336 25.4067 19.3063C25.5381 19.2408 25.6766 19.191 25.8196 19.1577C26.6924 18.8779 27.5853 18.6654 28.4905 18.5219C29.1593 18.4063 29.8446 18.3238 30.5547 18.2206ZM37.6222 0.659027C35.7212 0.70596 33.8295 0.94104 31.9748 1.36083C31.0052 1.56383 30.0639 1.88406 29.1717 2.31445C28.8628 2.43312 28.5877 2.62593 28.3708 2.87589C28.3565 2.90623 28.349 2.93936 28.349 2.97291C28.349 3.00646 28.3565 3.03959 28.3708 3.06992C28.4038 3.15661 28.474 3.16487 28.5483 3.11533C29.2629 2.59599 30.0833 2.24077 30.951 2.07501C31.3927 2.00483 31.8303 1.60852 32.2968 1.94704C32.4495 2.05437 32.111 2.23188 31.0129 2.50435C30.3677 2.64912 29.751 2.90025 29.1882 3.24743C28.8497 3.47036 28.8497 3.63961 29.1882 3.90382C29.6365 4.22347 30.1199 4.49079 30.629 4.70058C30.8424 4.83714 31.0883 4.91446 31.3415 4.92462C31.5947 4.93478 31.846 4.8774 32.0697 4.75837C32.243 4.69729 32.4233 4.65845 32.6064 4.64278C34.0406 4.33772 35.4946 4.13493 36.9576 4.03593C38.3413 3.85573 39.7358 3.77022 41.1312 3.77998C42.2293 3.83365 43.3275 3.89144 44.4338 4.00703C46.3246 4.20931 48.2401 4.28362 50.0606 4.9235C50.1943 4.97006 50.3398 4.97006 50.4734 4.9235C51.2496 4.6924 51.977 4.32168 52.6201 3.82952C52.8554 3.63962 52.8554 3.47036 52.6201 3.30936C52.0088 2.8998 51.3206 2.61888 50.5973 2.48371C50.2003 2.42403 49.8147 2.30432 49.4538 2.12868C49.4166 2.12868 49.4166 2.00483 49.4166 1.93878C49.4166 1.87273 49.4579 1.88512 49.4868 1.86447C49.5505 1.83277 49.62 1.81456 49.6911 1.81101C49.7621 1.80746 49.8331 1.81863 49.8996 1.84383C51.0431 2.11217 52.1867 2.3805 53.1527 3.10707C53.1898 3.13597 53.2889 3.10707 53.355 3.06992C53.421 3.03277 53.4375 2.97084 53.355 2.90066C53.2834 2.81795 53.2031 2.74321 53.1155 2.67774C52.5375 2.28674 51.9025 1.98735 51.233 1.79016C48.7065 1.00497 46.072 0.62324 43.4265 0.659027C42.8816 0.659027 42.3367 0.74159 41.7752 0.708564C40.3138 0.621871 38.8112 0.795259 37.6222 0.659027ZM32.8046 20.8503C32.3298 20.9576 31.9046 21.0567 31.4794 21.1434C31.2288 21.1956 30.9751 21.2314 30.7198 21.2507C30.6826 21.2507 30.6001 21.1681 30.5959 21.1145C30.5943 21.081 30.6009 21.0476 30.6153 21.0174C30.6298 20.9871 30.6515 20.9609 30.6785 20.9411C30.808 20.8657 30.9468 20.8074 31.0913 20.7677C31.4464 20.6728 31.8014 20.5902 32.1606 20.5035C32.2555 20.4787 32.2968 20.4333 32.2555 20.3673C32.2142 20.3012 32.1771 20.2352 32.1193 20.2145C32.0184 20.1744 31.9091 20.1602 31.8014 20.1732C31.2152 20.2434 30.629 20.3012 30.0551 20.4209C29.6293 20.516 29.2143 20.6543 28.8167 20.8338C28.3543 21.0402 28.3378 21.3622 28.7547 21.6594C29.0245 21.8492 29.3137 22.0098 29.6176 22.1383C30.1578 22.3589 30.709 22.5518 31.2688 22.7162C33.2526 23.2571 35.2808 23.619 37.3291 23.7978C38.8597 24.0041 40.4056 24.0746 41.9486 24.0084C42.6793 23.9465 43.4141 23.8969 44.1448 23.8267C46.34 23.6361 48.5143 23.2535 50.6427 22.6832C51.3922 22.5027 52.1113 22.2134 52.777 21.8245C53.0164 21.6759 53.3467 21.5479 53.2848 21.1847C53.2352 20.8957 52.9463 20.8296 52.7151 20.7223C52.628 20.6562 52.5182 20.6273 52.4099 20.642C52.3015 20.6567 52.2034 20.7138 52.1371 20.8007C51.939 21.0237 51.6541 20.8957 51.4064 20.8668C50.5686 20.7448 49.7157 20.7741 48.8882 20.9535C48.6611 21.0071 48.4754 21.0856 48.4011 21.3333C48.2194 21.9484 47.7199 22.2621 47.2039 22.5717C46.6932 22.8666 46.134 23.0679 45.5526 23.1662C43.5316 23.5705 41.4675 23.7161 39.4097 23.5997C37.9037 23.5324 36.4162 23.2402 34.9967 22.7327C34.043 22.3653 33.1472 21.9443 32.8046 20.8503ZM49.2019 5.19596C45.404 3.99877 35.8884 4.01941 32.5486 5.22899C37.0897 6.85552 45.1563 6.75231 49.1854 5.19596H49.2019ZM54.4035 8.16417C54.9443 8.16417 55.4191 8.13528 55.8897 8.16417C56.2598 8.17158 56.6216 8.27473 56.9399 8.46356C57.2582 8.65238 57.5222 8.92045 57.7061 9.24165C57.8705 9.53193 57.9431 9.86518 57.9143 10.1975C57.8856 10.5299 57.7569 10.8457 57.5451 11.1035C57.4337 11.2686 57.3717 11.409 57.574 11.5535C57.5993 11.5771 57.6191 11.6059 57.6319 11.6381C57.6447 11.6702 57.6504 11.7047 57.6483 11.7392C57.5534 12.0943 57.0663 12.4864 56.7525 12.3461C56.2117 12.1066 55.9723 12.6062 55.576 12.7011C55.5498 12.7646 55.5498 12.8358 55.576 12.8993C55.7659 13.1717 55.609 13.3121 55.3778 13.3781L53.6109 13.9891C53.3985 14.0466 53.1924 14.1254 52.9958 14.2244C52.9356 14.2656 52.8924 14.3272 52.8742 14.3978C52.856 14.4684 52.864 14.5432 52.8967 14.6084C52.9545 14.7363 53.0742 14.7116 53.1733 14.6785C54.1476 14.3483 55.126 14.0428 56.0837 13.6754C56.8716 13.3644 57.5994 12.9188 58.2345 12.3585C58.8912 11.816 59.3582 11.0786 59.568 10.2531C59.7079 9.64185 59.6478 9.00187 59.3966 8.42737C59.1454 7.85287 58.7163 7.37423 58.1726 7.06193C57.5516 6.74145 56.8773 6.53719 56.1828 6.45921C55.6669 6.40506 55.1468 6.51023 54.6925 6.76057C54.5931 6.80857 54.5133 6.88943 54.4667 6.98949C54.42 7.08954 54.4094 7.20263 54.4366 7.30962C54.5604 7.53668 54.7503 7.40871 54.9196 7.39219C55.1755 7.3633 55.4273 7.33852 55.6874 7.31788C55.7955 7.30133 55.9055 7.30133 56.0135 7.31788C56.047 7.32789 56.0778 7.34535 56.1035 7.36894C56.1292 7.39254 56.1493 7.42166 56.1622 7.45411C56.1724 7.47919 56.1771 7.50621 56.1758 7.53327C56.1745 7.56033 56.1673 7.5868 56.1548 7.61079C56.1422 7.63478 56.1245 7.65573 56.1029 7.67217C56.0814 7.68861 56.0565 7.70013 56.0301 7.70594C55.7411 7.75135 55.448 7.75961 55.159 7.79676C55.0128 7.79264 54.8678 7.8239 54.7362 7.88787C54.6047 7.95184 54.4906 8.04663 54.4035 8.16417ZM53.4458 12.858C54.4399 12.7227 55.3886 12.3565 56.2158 11.7888C56.6467 11.5032 57.0056 11.1217 57.2644 10.6741C57.4239 10.4239 57.4852 10.1235 57.4364 9.83084C57.3876 9.53814 57.2322 9.27385 57.0002 9.0889C56.787 8.88564 56.5233 8.7431 56.2365 8.67608C55.6898 8.56236 55.124 8.57933 54.5852 8.72562C54.4782 8.7438 54.38 8.79634 54.3055 8.8753C54.231 8.95425 54.1843 9.05532 54.1724 9.16321C54.0116 10.4094 53.7689 11.6437 53.4458 12.858ZM53.8256 3.53228C53.7888 3.52535 53.7509 3.52535 53.7141 3.53228C53.6161 3.57794 53.5245 3.63623 53.4417 3.70567C52.427 4.61748 51.1965 5.25545 49.8666 5.55925C47.8889 6.12063 45.867 6.51285 43.8228 6.73167C41.9564 6.88644 40.0809 6.89885 38.2126 6.76882C36.2737 6.60533 34.3541 6.2626 32.4784 5.74502C30.8973 5.3322 29.3781 4.82855 28.185 3.63961C28.0695 3.52815 27.9415 3.46623 27.8218 3.63961C27.7839 3.70365 27.7672 3.77795 27.7738 3.85202C27.7805 3.92609 27.8103 3.99619 27.8589 4.05244C28.0285 4.29366 28.2574 4.48704 28.5236 4.61388C29.1514 4.99325 29.8186 5.30332 30.5134 5.53861C33.6371 6.64215 36.9358 7.16677 40.2478 7.0867C40.5409 7.0867 40.834 7.0578 41.1271 7.0867C43.5888 7.18637 46.0524 6.94182 48.4465 6.36013C49.8484 6.06646 51.2105 5.60778 52.5045 4.99368C52.9413 4.79903 53.3474 4.54175 53.71 4.22996C53.8166 4.15209 53.8891 4.03602 53.9121 3.90601C53.9352 3.776 53.9072 3.6421 53.8338 3.53228H53.8256Z" fill="url(#paint0_linear_1465_64644)"/>
<path id="Vector_2" d="M32.7674 19.67C33.0068 19.4759 32.7674 19.3521 32.6848 19.2365C31.6825 17.9208 30.8503 16.4838 30.2079 14.9596C29.4802 13.1601 28.9097 11.301 28.5029 9.40303C28.4699 9.25854 28.4121 9.11818 28.5029 8.9902C28.5029 8.9613 28.5442 8.92003 28.5731 8.9159C28.602 8.91177 28.7465 8.9159 28.7589 8.9159C28.8616 9.14688 28.9498 9.38402 29.0231 9.62595C29.3327 10.7199 29.6093 11.8263 29.9437 12.9285C30.5268 14.7874 31.3734 16.553 32.4578 18.1714C33.2521 19.3748 34.3939 20.3079 35.7315 20.8465C35.8966 20.9167 36.07 20.9704 36.2351 21.0405C36.3218 21.0777 36.3301 21.152 36.2723 21.2304C36.2145 21.3089 36.1897 21.3584 36.1278 21.3791C36.0391 21.4007 35.9469 21.4042 35.8568 21.3893C35.7667 21.3744 35.6805 21.3414 35.6035 21.2924C34.6832 20.9175 33.8353 20.3853 33.0977 19.7195C32.9986 19.6287 32.8871 19.5048 32.755 19.6824L32.7674 19.67Z" fill="url(#paint1_linear_1465_64644)"/>
<path id="Vector_3" d="M36.6604 25.065C34.299 24.71 31.9665 24.4334 29.7373 23.6366C29.2593 23.4542 28.7945 23.239 28.3461 22.9926C28.158 22.88 27.987 22.741 27.8383 22.5798C27.7722 22.5138 27.7021 22.394 27.8383 22.3073C27.9019 22.2779 27.9706 22.2611 28.0406 22.2578C28.0695 22.2578 28.1066 22.2867 28.1355 22.3073C29.3203 23.1743 30.7033 23.5211 32.1069 23.8348C33.4321 24.1279 34.7737 24.3343 36.1154 24.5283C36.4017 24.5805 36.6844 24.6508 36.9617 24.7389C37.0525 24.7637 37.0608 24.8297 36.9989 24.9081C36.9369 24.9866 36.9576 24.9783 36.9328 24.9866C36.8337 25.0237 36.7264 25.0444 36.6604 25.065Z" fill="url(#paint2_linear_1465_64644)"/>
<path id="Vector_4" d="M46.0356 24.7928C45.9737 24.7928 45.8333 24.7639 45.693 24.735C45.66 24.735 45.6022 24.6978 45.6022 24.6813C45.6022 24.6648 45.6022 24.4997 45.6558 24.4873C45.8546 24.3993 46.0643 24.3382 46.2792 24.3056C47.4411 24.1827 48.5958 23.9995 49.7387 23.7566C50.3901 23.6658 51.0279 23.4953 51.6377 23.2488C51.7697 23.198 51.9091 23.1687 52.0505 23.1621C52.0844 23.1644 52.1172 23.175 52.146 23.193C52.1748 23.211 52.1987 23.2359 52.2156 23.2653C52.224 23.2995 52.2234 23.3354 52.214 23.3693C52.2046 23.4033 52.1867 23.4343 52.162 23.4593C51.7998 23.7056 51.3885 23.8704 50.9565 23.9423C49.3357 24.3289 47.6922 24.613 46.0356 24.7928Z" fill="url(#paint3_linear_1465_64644)"/>
<path id="Vector_5" d="M42.6092 0.841041C43.3272 0.835865 44.043 0.921874 44.7394 1.097C44.7653 1.10378 44.7892 1.11662 44.8092 1.13446C44.8292 1.15231 44.8447 1.17465 44.8543 1.19964C44.864 1.22462 44.8676 1.25155 44.8648 1.27821C44.8621 1.30486 44.853 1.33047 44.8384 1.35295C44.8054 1.40661 44.7228 1.47679 44.6733 1.46854C43.5834 1.28276 42.4771 1.38184 41.3707 1.28689C41.3436 1.28256 41.3177 1.27264 41.2946 1.25777C41.2716 1.2429 41.2518 1.22339 41.2367 1.20049C41.2215 1.17759 41.2113 1.1518 41.2067 1.12474C41.202 1.09769 41.2031 1.06996 41.2097 1.04333C41.2195 1.01231 41.2366 0.984106 41.2596 0.96111C41.2826 0.938113 41.3108 0.920998 41.3418 0.91122C41.7918 0.878194 42.2294 0.861682 42.6092 0.841041Z" fill="url(#paint4_linear_1465_64644)"/>
<path id="Vector_6" d="M39.2116 0.832031L40.3758 0.926979C40.4749 0.926979 40.4831 0.997159 40.4707 1.08798C40.4583 1.1788 40.4501 1.23247 40.3593 1.25724C40.2576 1.29146 40.1523 1.31362 40.0455 1.32329C39.0578 1.29568 38.0694 1.34676 37.0897 1.47604C37.055 1.48866 37.017 1.48866 36.9824 1.47604C36.9304 1.43015 36.8833 1.37895 36.842 1.32329C36.7842 1.24072 36.8172 1.19119 36.9081 1.15403C37.6388 0.836159 38.4149 0.910468 39.2116 0.832031Z" fill="url(#paint5_linear_1465_64644)"/>
</g>
<g id="Group 335294440">
<g id="Group_2">
<path id="Vector_7" d="M12.9905 23.2982C12.0996 24.2442 10.9044 24.8468 9.61408 25.0006C7.57636 25.2262 5.515 24.9172 3.63301 24.104C2.58916 23.7135 1.6698 23.049 0.97161 22.1803C0.644811 21.7544 0.356185 21.3006 0.109073 20.824C-0.157635 20.319 0.15447 19.7799 0.109073 19.2522C0.109073 18.9287 0.358749 18.6847 0.580059 18.4918C0.945053 18.1457 1.3955 17.9028 1.88523 17.7881C2.73803 17.5398 3.62488 17.4287 4.51257 17.459C6.62785 17.5145 8.7266 17.8484 10.7547 18.452C11.6361 18.8216 12.571 19.0477 13.5239 19.1216C13.598 19.1189 13.6706 19.1431 13.7282 19.1897C14.1896 19.6011 14.5259 20.134 14.6985 20.7276C14.7345 20.9973 14.6632 21.2703 14.4999 21.488C14.0469 22.1315 13.5421 22.7369 12.9905 23.2982ZM5.13679 22.5548C5.13679 22.6683 5.17651 22.8158 5.03465 22.8215C4.46719 22.8499 4.29127 23.2528 4.10968 23.667C4.20086 23.7717 4.31468 23.8542 4.44251 23.9082C4.57033 23.9623 4.7088 23.9866 4.84739 23.9791C5.07438 23.9791 5.06301 23.6897 5.20488 23.5706C5.22989 23.5425 5.26275 23.5227 5.29917 23.5136C5.3356 23.5045 5.37393 23.5065 5.40918 23.5195C5.55672 23.5762 5.53969 23.7011 5.52834 23.7975C5.51395 23.8531 5.51079 23.9109 5.51904 23.9677C5.52729 24.0245 5.54678 24.079 5.57638 24.1282C5.60597 24.1773 5.64506 24.2201 5.69138 24.2539C5.7377 24.2878 5.7903 24.312 5.84612 24.3253C6.1185 24.4104 6.27171 24.2856 6.41358 24.0756C6.62922 23.7692 6.85054 23.4627 7.13427 23.0712C6.56681 23.0201 6.10715 22.7648 5.78937 23.3946C5.7156 23.5365 5.59644 23.44 5.49429 23.3946C5.61346 23.0031 5.0006 22.9293 5.11976 22.5378C6.15241 22.4584 7.19041 22.4831 8.21811 22.6115C8.21811 22.6115 8.21811 22.7421 8.21811 22.8102C7.68874 23.1664 7.23863 23.6281 6.89593 24.1664C6.87594 24.1977 6.86356 24.2333 6.85978 24.2703C6.85601 24.3073 6.86092 24.3446 6.87416 24.3794C6.88739 24.4141 6.90857 24.4453 6.936 24.4704C6.96343 24.4955 6.99634 24.5138 7.03211 24.5239C7.29315 24.5239 7.55987 24.5636 7.82657 24.575C7.92872 24.575 8.07625 24.575 8.0876 24.4388C8.0876 23.9394 8.50185 23.6443 8.72884 23.2584C8.8707 23.0088 8.5586 22.9804 8.53022 22.8158C8.53022 22.7477 8.53022 22.6229 8.53022 22.6172C9.05904 22.4013 9.64589 22.3733 10.1929 22.5378C10.1929 22.6342 10.2837 22.7477 10.1248 22.8215C9.9659 22.8953 9.55734 22.8555 9.42114 23.1336C9.16011 23.5933 8.70614 23.9224 8.54725 24.4558C9.26079 24.5386 9.98376 24.4709 10.6696 24.2572C10.766 24.2175 10.8682 24.1664 10.8682 24.0132C10.8694 23.8217 10.8942 23.6311 10.9419 23.4457C10.9873 23.2414 11.2654 23.1166 11.1576 22.8782C10.8625 22.8782 10.5901 22.8385 10.2837 22.8045C10.1191 22.8045 10.1759 22.6513 10.1759 22.5491C10.4369 22.2427 10.8114 22.3675 11.1349 22.2994C11.7503 22.2496 12.3558 22.114 12.9337 21.8965C12.8585 21.7031 12.7733 21.5137 12.6784 21.3291C12.4571 20.9432 12.196 20.6311 11.6683 20.807C11.5762 20.8362 11.4766 20.8303 11.3886 20.7905C11.3007 20.7507 11.2305 20.6798 11.1916 20.5914C11.1225 20.4752 11.0218 20.381 10.9012 20.3197C10.7807 20.2585 10.6453 20.2326 10.5107 20.2452C10.0283 20.2452 9.51193 20.058 9.11471 20.5119C9.02392 20.6084 8.90474 20.563 8.80259 20.5119C8.70045 20.4609 8.4905 20.3871 8.36565 20.5119C8.16314 20.6564 7.91529 20.7229 7.66767 20.6992C7.00941 20.7332 6.26604 20.6992 5.88016 21.4653C5.86101 21.5104 5.829 21.5489 5.78814 21.5759C5.74727 21.6029 5.69935 21.6174 5.65034 21.6174C5.60133 21.6174 5.55341 21.6029 5.51254 21.5759C5.47168 21.5489 5.43967 21.5104 5.42052 21.4653C5.40285 21.4097 5.37226 21.3591 5.33125 21.3176C5.29024 21.2762 5.23998 21.245 5.1846 21.2268C5.12922 21.2085 5.0703 21.2036 5.01267 21.2125C4.95504 21.2214 4.90033 21.2439 4.85306 21.278C4.27935 21.4729 3.66345 21.5082 3.07123 21.3801C2.72508 21.3801 2.37892 21.2667 1.76605 21.1645C2.49844 21.745 3.358 22.1437 4.27425 22.3278C4.57501 22.3732 4.91548 22.2711 5.13679 22.5548ZM4.10968 18.1116C4.10968 18.0718 4.10969 18.0094 4.06429 18.0094C3.26767 17.9227 2.46216 18.0439 1.72635 18.3612C1.55995 18.4472 1.41741 18.5731 1.31147 18.7275C1.20552 18.882 1.13946 19.0603 1.11916 19.2465C1.09978 19.3804 1.11882 19.5171 1.17407 19.6407C1.22932 19.7643 1.3185 19.8696 1.43125 19.9445C1.85375 20.3488 2.41275 20.5797 2.99746 20.5914C4.10993 20.6128 5.21934 20.4674 6.28874 20.1601C7.12253 19.8651 7.98089 19.6449 8.85368 19.5018C10.8285 19.2408 12.6046 19.5813 14.0006 21.1248C14.0711 21.0899 14.1278 21.0323 14.1618 20.9613C14.1957 20.8904 14.2049 20.81 14.1878 20.7332C14.1542 20.5254 14.0654 20.3305 13.9306 20.1687C13.7959 20.007 13.6201 19.8845 13.4218 19.814C12.1987 19.3544 10.9501 18.966 9.68217 18.6507C7.96863 18.197 6.20559 17.9568 4.43314 17.9357C4.29127 17.9357 4.12103 17.9073 4.07563 18.1116H4.10968ZM11.22 23.9508C12.4344 23.3038 12.44 23.3039 12.8316 22.5718C11.9123 22.464 11.7307 23.2074 11.22 23.9508ZM1.00566 21.522C1.26102 21.7887 1.50503 22.0895 1.77174 22.3278C1.79167 22.3464 1.81578 22.36 1.84204 22.3673C1.8683 22.3747 1.89595 22.3756 1.92264 22.37C1.94934 22.3645 1.9743 22.3526 1.99544 22.3354C2.01658 22.3181 2.03328 22.2961 2.04412 22.2711C2.08385 22.1746 2.13492 22.0781 2.04412 21.976C1.90864 21.8352 1.74662 21.7226 1.56742 21.6447C1.38822 21.5667 1.19536 21.5251 0.999976 21.522H1.00566ZM3.0315 22.4413C2.95212 22.3916 2.85807 22.3707 2.76509 22.382C2.67211 22.3934 2.58587 22.4364 2.52079 22.5037C2.47083 22.5623 2.44338 22.6367 2.44338 22.7137C2.44338 22.7907 2.47083 22.8651 2.52079 22.9236C2.54473 22.9533 2.57499 22.9772 2.60935 22.9936C2.64372 23.01 2.68132 23.0185 2.71941 23.0185C2.75749 23.0185 2.79508 23.01 2.82944 22.9936C2.86381 22.9772 2.89407 22.9533 2.918 22.9236C3.06554 22.7931 3.15634 22.6456 3.02582 22.464L3.0315 22.4413ZM3.6784 23.3209L3.92809 22.9804C3.99051 22.9066 3.98485 22.8442 3.88838 22.8102C3.79191 22.7761 3.72381 22.7648 3.68408 22.8102C3.57614 22.9076 3.48082 23.0182 3.40035 23.1393C3.38499 23.1613 3.37438 23.1862 3.3692 23.2125C3.36401 23.2388 3.36436 23.2659 3.37024 23.2921C3.37611 23.3182 3.38738 23.3429 3.40331 23.3645C3.41925 23.386 3.4395 23.404 3.46278 23.4173C3.49683 23.4287 3.58195 23.3606 3.67274 23.3209H3.6784ZM13.5182 21.5163C13.5182 21.3404 13.382 21.2553 13.2685 21.1645C13.1551 21.0737 13.1153 21.1134 13.1777 21.2213C13.2608 21.3387 13.3539 21.4488 13.4558 21.5504C13.4558 21.5504 13.4899 21.5277 13.5125 21.5163H13.5182Z" fill="url(#paint6_linear_1465_64644)"/>
<path id="Vector_8" d="M9.45996 19.2175C9.31056 19.436 9.10557 19.6105 8.86615 19.7233C8.62674 19.836 8.36158 19.8828 8.09805 19.8588C7.9931 19.8502 7.89551 19.8014 7.82566 19.7226C7.80333 19.6746 7.79177 19.6223 7.79177 19.5694C7.79177 19.5164 7.80333 19.4642 7.82566 19.4162C8.05574 19.0687 8.35759 18.7746 8.7109 18.5536C8.84709 18.4685 8.95492 18.5082 9.04004 18.6898C9.16186 18.8794 9.30255 19.0562 9.45996 19.2175Z" fill="url(#paint7_linear_1465_64644)"/>
<path id="Vector_9" d="M7.5306 18.1111C7.93918 18.4857 7.93917 18.4857 7.66679 18.7921C7.39441 19.0985 7.01421 19.5355 6.67373 19.8986C6.65562 19.9192 6.63335 19.9356 6.60841 19.9469C6.58346 19.9581 6.55641 19.964 6.52904 19.964C6.50167 19.964 6.4746 19.9581 6.44966 19.9469C6.42471 19.9356 6.40244 19.9192 6.38433 19.8986C6.34047 19.8621 6.31159 19.8106 6.30322 19.7541C6.29485 19.6976 6.30755 19.64 6.33893 19.5922C6.47722 19.4106 6.62496 19.2363 6.78155 19.0702C7.08831 18.7886 7.35215 18.4636 7.56465 18.1055L7.5306 18.1111Z" fill="url(#paint8_linear_1465_64644)"/>
<path id="Vector_10" d="M12.0135 22.8386C11.8944 23.0145 11.7809 23.0599 11.6731 22.8386C11.7298 22.7705 11.6731 22.64 11.849 22.6457C12.0249 22.6514 11.9625 22.7649 12.0135 22.8386Z" fill="url(#paint9_linear_1465_64644)"/>
</g>
<g id="Group_3">
<path id="Vector_11" d="M18.7353 17.6358C18.9765 16.6334 18.8575 15.5781 18.3992 14.6546C17.6641 13.2037 16.5636 11.9692 15.2063 11.0729C14.4937 10.5494 13.6532 10.2276 12.7732 10.1413C12.3485 10.1093 11.9218 10.1147 11.4981 10.1576C11.0469 10.1999 10.8245 10.6413 10.4544 10.8403C10.2397 10.9808 10.1861 11.2526 10.1541 11.4833C10.0828 11.8759 10.1172 12.2805 10.2538 12.6555C10.4593 13.3295 10.7707 13.9666 11.1763 14.5429C12.1319 15.9232 13.2651 17.1717 14.5467 18.256C15.1749 18.6807 15.731 19.2033 16.194 19.8038C16.2243 19.8542 16.2719 19.8919 16.3279 19.9099C16.8014 20.0376 17.3013 20.0295 17.7704 19.8863C17.9651 19.793 18.1154 19.6271 18.189 19.4242C18.4196 18.8439 18.6023 18.2458 18.7353 17.6358ZM14.8308 12.7441C14.9062 12.6948 15.0214 12.6571 14.9636 12.5605C14.7359 12.1714 14.927 11.8796 15.1232 11.5791C15.2323 11.5942 15.3365 11.634 15.4279 11.6953C15.5193 11.7567 15.5956 11.8381 15.6508 11.9334C15.7494 12.0841 15.5523 12.2022 15.5348 12.3482C15.5271 12.377 15.5282 12.4074 15.5379 12.4355C15.5477 12.4637 15.5657 12.4882 15.5896 12.506C15.6914 12.5793 15.7669 12.5138 15.826 12.4644C15.8566 12.4307 15.8937 12.4035 15.9349 12.3843C15.9762 12.3651 16.0209 12.3544 16.0664 12.3527C16.1119 12.351 16.1572 12.3584 16.1998 12.3744C16.2424 12.3905 16.2814 12.4148 16.3144 12.4461C16.4892 12.59 16.4729 12.746 16.3951 12.9314C16.2853 13.2076 16.178 13.4876 16.0412 13.8461C15.7609 13.4915 15.3917 13.2972 15.6719 12.8127C15.734 12.7021 15.6182 12.6648 15.5437 12.6167C15.3355 12.8659 15.0203 12.491 14.8121 12.7402C15.2079 13.4603 15.6752 14.1388 16.2068 14.7653C16.2068 14.7653 16.2934 14.7086 16.3386 14.6791C16.3453 14.1729 16.4563 13.6735 16.6649 13.2122C16.677 13.1853 16.6953 13.1616 16.7182 13.1431C16.7411 13.1245 16.768 13.1115 16.7968 13.1052C16.8256 13.0989 16.8555 13.0995 16.8841 13.1068C16.9127 13.1141 16.9391 13.128 16.9614 13.1473C17.0747 13.3206 17.217 13.4805 17.3403 13.6526C17.3847 13.7205 17.4488 13.8184 17.3633 13.8851C17.0317 14.102 17.0157 14.5052 16.8581 14.8235C16.7539 15.0261 16.5995 14.8312 16.4779 14.8838C16.4327 14.9134 16.3499 14.9676 16.3461 14.9701C16.4324 15.415 16.6687 15.8168 17.0154 16.1085C17.0795 16.0666 17.1943 16.0776 17.1743 15.9401C17.1542 15.8026 16.9504 15.5485 17.0759 15.3374C17.2677 14.9644 17.289 14.5201 17.5742 14.1829C17.9391 14.6207 18.2081 15.1301 18.3641 15.6783C18.3796 15.7596 18.3901 15.8496 18.2883 15.9161C18.1618 16.0001 18.046 16.0993 17.9436 16.2115C17.8277 16.3304 17.8656 16.5692 17.6605 16.6012C17.5323 16.4053 17.3877 16.2417 17.232 16.053C17.1605 15.9437 17.0834 16.0479 17.0156 16.0923C16.9255 16.3987 17.1711 16.5931 17.2663 16.8375C17.5005 17.2678 17.6735 17.7287 17.7801 18.2068C17.619 18.2409 17.4562 18.2666 17.2924 18.2837C16.9401 18.3044 16.6195 18.2666 16.5071 17.8398C16.4865 17.766 16.4393 17.7025 16.3747 17.6613C16.31 17.6202 16.2325 17.6044 16.1569 17.617C16.0497 17.6215 15.9434 17.5956 15.8504 17.5422C15.7574 17.4888 15.6814 17.4101 15.6313 17.3152C15.4218 16.995 15.0732 16.7334 15.2021 16.2725C15.2267 16.1703 15.1448 16.1109 15.0666 16.0653C14.9883 16.0197 14.8481 15.9123 14.8768 15.7752C14.8847 15.578 14.8212 15.3846 14.698 15.2304C14.4347 14.7786 14.0892 14.2998 14.4303 13.7109C14.4519 13.6786 14.4636 13.6406 14.4638 13.6017C14.464 13.5629 14.4527 13.5248 14.4315 13.4922C14.4102 13.4597 14.3798 13.4341 14.3441 13.4188C14.3084 13.4034 14.2689 13.3988 14.2307 13.4057C14.1861 13.4181 14.1392 13.4198 14.0939 13.4105C14.0485 13.4013 14.006 13.3815 13.9698 13.3527C13.9336 13.3238 13.9048 13.2868 13.8857 13.2447C13.8666 13.2026 13.8577 13.1565 13.8599 13.1103C13.7401 12.6447 13.4961 12.2204 13.1538 11.8829C13.0035 11.653 12.7778 11.4725 12.4438 11.1099C13.1473 11.3441 13.7853 11.7416 14.3055 12.27C14.4663 12.45 14.5463 12.7204 14.8308 12.7441ZM11.4346 13.9919C11.4083 14.0092 11.3668 14.0363 11.3471 14.0062C10.9435 13.5149 10.6742 12.9274 10.5653 12.3011C10.5501 12.1532 10.5718 12.0039 10.6283 11.8665C10.6849 11.7291 10.7745 11.6078 10.8894 11.5134C10.9699 11.4424 11.0689 11.3957 11.1749 11.3787C11.281 11.3617 11.3896 11.3752 11.4883 11.4175C11.9403 11.5224 12.3364 11.7933 12.5981 12.1764C13.0955 12.9058 13.4808 13.7055 13.7412 14.549C13.9075 15.2307 14.134 15.8963 14.4181 16.5379C15.1025 17.9624 16.0999 18.9938 17.731 19.2503C17.7384 19.3123 17.7249 19.375 17.6925 19.4284C17.6601 19.4817 17.6108 19.5227 17.5524 19.5447C17.3998 19.6127 17.2318 19.6384 17.0659 19.6191C16.8999 19.5999 16.7423 19.5364 16.6093 19.4353C15.773 18.8229 14.9728 18.1625 14.2128 17.4577C13.1673 16.517 12.2422 15.4507 11.4583 14.2831C11.3967 14.1889 11.3039 14.0882 11.4199 13.9693L11.4346 13.9919ZM18.3997 16.1768C18.4976 17.2641 18.5001 17.2678 18.1841 17.8457C17.7132 17.2822 18.1279 16.8388 18.3997 16.1768ZM12.3509 10.4498C12.6389 10.5035 12.9446 10.5349 13.2186 10.6085C13.2396 10.6136 13.2591 10.6237 13.2754 10.638C13.2917 10.6522 13.3043 10.6702 13.3122 10.6903C13.3201 10.7105 13.3231 10.7322 13.3208 10.7537C13.3186 10.7752 13.3112 10.7959 13.2993 10.814C13.2525 10.8822 13.2106 10.958 13.1033 10.9421C12.951 10.9133 12.8059 10.8547 12.6763 10.7695C12.5468 10.6844 12.4353 10.5744 12.3484 10.446L12.3509 10.4498ZM13.8411 11.3956C13.7736 11.3645 13.7189 11.3111 13.6861 11.2445C13.6532 11.1778 13.6443 11.1019 13.6608 11.0294C13.6779 10.9708 13.7154 10.9202 13.7665 10.8868C13.8176 10.8534 13.879 10.8393 13.9396 10.847C13.9696 10.8501 13.9986 10.8598 14.0245 10.8755C14.0503 10.8911 14.0723 10.9124 14.0888 10.9377C14.1054 10.963 14.116 10.9916 14.12 11.0216C14.1241 11.0515 14.1214 11.082 14.1121 11.1108C14.0895 11.2654 14.031 11.3898 13.8537 11.382L13.8411 11.3956ZM14.7061 11.4431L14.5885 11.7568C14.5666 11.8302 14.5227 11.8536 14.4582 11.8043C14.3937 11.7551 14.3566 11.7148 14.3694 11.6687C14.3873 11.5547 14.4193 11.4434 14.4647 11.3374C14.4727 11.3176 14.4846 11.2997 14.4998 11.2849C14.515 11.27 14.5332 11.2585 14.5531 11.251C14.573 11.2435 14.5943 11.2403 14.6155 11.2415C14.6368 11.2427 14.6575 11.2484 14.6765 11.2581C14.6988 11.2757 14.6906 11.3618 14.7036 11.4394L14.7061 11.4431ZM17.7815 18.76C17.6647 18.8364 17.549 18.783 17.4395 18.7471C17.3299 18.7111 17.339 18.6675 17.4377 18.6621C17.5518 18.6663 17.6653 18.6802 17.777 18.7038C17.777 18.7038 17.7767 18.7363 17.779 18.7563L17.7815 18.76Z" fill="url(#paint10_linear_1465_64644)"/>
<path id="Vector_12" d="M12.9926 14.7694C13.0727 14.5753 13.0996 14.3634 13.0705 14.1555C13.0413 13.9476 12.9572 13.7512 12.8268 13.5866C12.7756 13.5207 12.7008 13.4771 12.6181 13.4649C12.5766 13.4709 12.5368 13.486 12.5017 13.509C12.4665 13.532 12.4368 13.5623 12.4147 13.598C12.2839 13.9017 12.2197 14.2298 12.2264 14.5604C12.2291 14.6878 12.3023 14.7421 12.4598 14.7198C12.6386 14.7183 12.8171 14.7349 12.9926 14.7694Z" fill="url(#paint11_linear_1465_64644)"/>
<path id="Vector_13" d="M11.4195 13.9704C11.8456 14.079 11.8456 14.079 11.9307 13.7651C12.0159 13.4511 12.1409 13.0089 12.2341 12.6251C12.2399 12.6042 12.2412 12.5823 12.2378 12.5608C12.2344 12.5393 12.2266 12.5189 12.2147 12.5007C12.2028 12.4825 12.1872 12.4671 12.1689 12.4554C12.1505 12.4437 12.13 12.4361 12.1085 12.433C12.0651 12.4197 12.0184 12.4229 11.9773 12.4419C11.9361 12.4609 11.9034 12.4943 11.8853 12.5359C11.8247 12.7066 11.7732 12.8804 11.7309 13.0565C11.6772 13.3825 11.576 13.6988 11.4305 13.9955L11.4195 13.9704Z" fill="url(#paint12_linear_1465_64644)"/>
<path id="Vector_14" d="M16.5054 14.8932C16.5704 14.7376 16.5513 14.6426 16.3575 14.6671C16.337 14.7344 16.2257 14.7534 16.3058 14.8677C16.386 14.982 16.4342 14.8913 16.5054 14.8932Z" fill="url(#paint13_linear_1465_64644)"/>
</g>
</g>
<g id="Group 335294441">
<g id="Group_4">
<path id="Vector_15" d="M71.0095 23.2982C71.9004 24.2442 73.0956 24.8468 74.3859 25.0006C76.4236 25.2262 78.485 24.9172 80.367 24.104C81.4108 23.7135 82.3302 23.049 83.0284 22.1803C83.3552 21.7544 83.6438 21.3006 83.8909 20.824C84.1576 20.319 83.8455 19.7799 83.8909 19.2522C83.8909 18.9287 83.6413 18.6847 83.4199 18.4918C83.0549 18.1457 82.6045 17.9028 82.1148 17.7881C81.262 17.5398 80.3751 17.4287 79.4874 17.459C77.3721 17.5145 75.2734 17.8484 73.2453 18.452C72.3639 18.8216 71.429 19.0477 70.4761 19.1216C70.402 19.1189 70.3294 19.1431 70.2718 19.1897C69.8104 19.6011 69.4741 20.134 69.3015 20.7276C69.2655 20.9973 69.3368 21.2703 69.5001 21.488C69.9531 22.1315 70.4579 22.7369 71.0095 23.2982ZM78.8632 22.5548C78.8632 22.6683 78.8235 22.8158 78.9654 22.8215C79.5328 22.8499 79.7087 23.2528 79.8903 23.667C79.7991 23.7717 79.6853 23.8542 79.5575 23.9082C79.4297 23.9623 79.2912 23.9866 79.1526 23.9791C78.9256 23.9791 78.937 23.6897 78.7951 23.5706C78.7701 23.5425 78.7373 23.5227 78.7008 23.5136C78.6644 23.5045 78.6261 23.5065 78.5908 23.5195C78.4433 23.5762 78.4603 23.7011 78.4717 23.7975C78.486 23.8531 78.4892 23.9109 78.481 23.9677C78.4727 24.0245 78.4532 24.079 78.4236 24.1282C78.394 24.1773 78.3549 24.2201 78.3086 24.2539C78.2623 24.2878 78.2097 24.312 78.1539 24.3253C77.8815 24.4104 77.7283 24.2856 77.5864 24.0756C77.3708 23.7692 77.1495 23.4627 76.8657 23.0712C77.4332 23.0201 77.8929 22.7648 78.2106 23.3946C78.2844 23.5365 78.4036 23.44 78.5057 23.3946C78.3865 23.0031 78.9994 22.9293 78.8802 22.5378C77.8476 22.4584 76.8096 22.4831 75.7819 22.6115C75.7819 22.6115 75.7819 22.7421 75.7819 22.8102C76.3113 23.1664 76.7614 23.6281 77.1041 24.1664C77.1241 24.1977 77.1364 24.2333 77.1402 24.2703C77.144 24.3073 77.1391 24.3446 77.1258 24.3794C77.1126 24.4141 77.0914 24.4453 77.064 24.4704C77.0366 24.4955 77.0037 24.5138 76.9679 24.5239C76.7069 24.5239 76.4401 24.5636 76.1734 24.575C76.0713 24.575 75.9237 24.575 75.9124 24.4388C75.9124 23.9394 75.4981 23.6443 75.2712 23.2584C75.1293 23.0088 75.4414 22.9804 75.4698 22.8158C75.4698 22.7477 75.4698 22.6229 75.4698 22.6172C74.941 22.4013 74.3541 22.3733 73.8071 22.5378C73.8071 22.6342 73.7163 22.7477 73.8752 22.8215C74.0341 22.8953 74.4427 22.8555 74.5789 23.1336C74.8399 23.5933 75.2939 23.9224 75.4528 24.4558C74.7392 24.5386 74.0162 24.4709 73.3304 24.2572C73.234 24.2175 73.1318 24.1664 73.1318 24.0132C73.1306 23.8217 73.1058 23.6311 73.0581 23.4457C73.0127 23.2414 72.7346 23.1166 72.8424 22.8782C73.1375 22.8782 73.4099 22.8385 73.7163 22.8045C73.8809 22.8045 73.8241 22.6513 73.8241 22.5491C73.5631 22.2427 73.1886 22.3675 72.8651 22.2994C72.2497 22.2496 71.6442 22.114 71.0663 21.8965C71.1415 21.7031 71.2267 21.5137 71.3216 21.3291C71.5429 20.9432 71.804 20.6311 72.3317 20.807C72.4238 20.8362 72.5234 20.8303 72.6114 20.7905C72.6993 20.7507 72.7695 20.6798 72.8084 20.5914C72.8775 20.4752 72.9782 20.381 73.0988 20.3197C73.2193 20.2585 73.3547 20.2326 73.4893 20.2452C73.9717 20.2452 74.4881 20.058 74.8853 20.5119C74.9761 20.6084 75.0953 20.563 75.1974 20.5119C75.2995 20.4609 75.5095 20.3871 75.6343 20.5119C75.8369 20.6564 76.0847 20.7229 76.3323 20.6992C76.9906 20.7332 77.734 20.6992 78.1198 21.4653C78.139 21.5104 78.171 21.5489 78.2119 21.5759C78.2527 21.6029 78.3007 21.6174 78.3497 21.6174C78.3987 21.6174 78.4466 21.6029 78.4875 21.5759C78.5283 21.5489 78.5603 21.5104 78.5795 21.4653C78.5972 21.4097 78.6277 21.3591 78.6688 21.3176C78.7098 21.2762 78.76 21.245 78.8154 21.2268C78.8708 21.2085 78.9297 21.2036 78.9873 21.2125C79.045 21.2214 79.0997 21.2439 79.1469 21.278C79.7207 21.4729 80.3365 21.5082 80.9288 21.3801C81.2749 21.3801 81.6211 21.2667 82.2339 21.1645C81.5016 21.745 80.642 22.1437 79.7258 22.3278C79.425 22.3732 79.0845 22.2711 78.8632 22.5548ZM79.8903 18.1116C79.8903 18.0718 79.8903 18.0094 79.9357 18.0094C80.7323 17.9227 81.5378 18.0439 82.2737 18.3612C82.4401 18.4472 82.5826 18.5731 82.6885 18.7275C82.7945 18.882 82.8605 19.0603 82.8808 19.2465C82.9002 19.3804 82.8812 19.5171 82.8259 19.6407C82.7707 19.7643 82.6815 19.8696 82.5687 19.9445C82.1463 20.3488 81.5873 20.5797 81.0025 20.5914C79.8901 20.6128 78.7807 20.4674 77.7113 20.1601C76.8775 19.8651 76.0191 19.6449 75.1463 19.5018C73.1715 19.2408 71.3954 19.5813 69.9994 21.1248C69.9289 21.0899 69.8722 21.0323 69.8382 20.9613C69.8043 20.8904 69.7951 20.81 69.8122 20.7332C69.8458 20.5254 69.9346 20.3305 70.0694 20.1687C70.2041 20.007 70.3799 19.8845 70.5782 19.814C71.8013 19.3544 73.0499 18.966 74.3178 18.6507C76.0314 18.197 77.7944 17.9568 79.5669 17.9357C79.7087 17.9357 79.879 17.9073 79.9244 18.1116H79.8903ZM72.78 23.9508C71.5656 23.3038 71.56 23.3039 71.1684 22.5718C72.0877 22.464 72.2693 23.2074 72.78 23.9508ZM82.9943 21.522C82.739 21.7887 82.495 22.0895 82.2283 22.3278C82.2083 22.3464 82.1842 22.36 82.158 22.3673C82.1317 22.3747 82.1041 22.3756 82.0774 22.37C82.0507 22.3645 82.0257 22.3526 82.0046 22.3354C81.9834 22.3181 81.9667 22.2961 81.9559 22.2711C81.9162 22.1746 81.8651 22.0781 81.9559 21.976C82.0914 21.8352 82.2534 21.7226 82.4326 21.6447C82.6118 21.5667 82.8046 21.5251 83 21.522H82.9943ZM80.9685 22.4413C81.0479 22.3916 81.1419 22.3707 81.2349 22.382C81.3279 22.3934 81.4141 22.4364 81.4792 22.5037C81.5292 22.5623 81.5566 22.6367 81.5566 22.7137C81.5566 22.7907 81.5292 22.8651 81.4792 22.9236C81.4553 22.9533 81.425 22.9772 81.3906 22.9936C81.3563 23.01 81.3187 23.0185 81.2806 23.0185C81.2425 23.0185 81.2049 23.01 81.1706 22.9936C81.1362 22.9772 81.1059 22.9533 81.082 22.9236C80.9345 22.7931 80.8437 22.6456 80.9742 22.464L80.9685 22.4413ZM80.3216 23.3209L80.0719 22.9804C80.0095 22.9066 80.0152 22.8442 80.1116 22.8102C80.2081 22.7761 80.2762 22.7648 80.3159 22.8102C80.4239 22.9076 80.5192 23.0182 80.5996 23.1393C80.615 23.1613 80.6256 23.1862 80.6308 23.2125C80.636 23.2388 80.6356 23.2659 80.6298 23.2921C80.6239 23.3182 80.6126 23.3429 80.5967 23.3645C80.5808 23.386 80.5605 23.404 80.5372 23.4173C80.5032 23.4287 80.4181 23.3606 80.3273 23.3209H80.3216ZM70.4818 21.5163C70.4818 21.3404 70.618 21.2553 70.7315 21.1645C70.8449 21.0737 70.8847 21.1134 70.8223 21.2213C70.7392 21.3387 70.6461 21.4488 70.5442 21.5504C70.5442 21.5504 70.5101 21.5277 70.4875 21.5163H70.4818Z" fill="url(#paint14_linear_1465_64644)"/>
<path id="Vector_16" d="M74.54 19.2175C74.6894 19.436 74.8944 19.6105 75.1338 19.7233C75.3733 19.836 75.6384 19.8828 75.902 19.8588C76.0069 19.8502 76.1045 19.8014 76.1743 19.7226C76.1967 19.6746 76.2082 19.6223 76.2082 19.5694C76.2082 19.5164 76.1967 19.4642 76.1743 19.4162C75.9443 19.0687 75.6424 18.7746 75.2891 18.5536C75.1529 18.4685 75.0451 18.5082 74.96 18.6898C74.8381 18.8794 74.6975 19.0562 74.54 19.2175Z" fill="url(#paint15_linear_1465_64644)"/>
<path id="Vector_17" d="M76.4694 18.1111C76.0608 18.4857 76.0608 18.4857 76.3332 18.7921C76.6056 19.0985 76.9858 19.5355 77.3263 19.8986C77.3444 19.9192 77.3666 19.9356 77.3916 19.9469C77.4165 19.9581 77.4436 19.964 77.471 19.964C77.4983 19.964 77.5254 19.9581 77.5503 19.9469C77.5753 19.9356 77.5976 19.9192 77.6157 19.8986C77.6595 19.8621 77.6884 19.8106 77.6968 19.7541C77.7052 19.6976 77.6924 19.64 77.6611 19.5922C77.5228 19.4106 77.375 19.2363 77.2185 19.0702C76.9117 18.7886 76.6479 18.4636 76.4354 18.1055L76.4694 18.1111Z" fill="url(#paint16_linear_1465_64644)"/>
<path id="Vector_18" d="M71.9865 22.8386C72.1056 23.0145 72.2191 23.0599 72.3269 22.8386C72.2702 22.7705 72.3269 22.64 72.151 22.6457C71.9751 22.6514 72.0375 22.7649 71.9865 22.8386Z" fill="url(#paint17_linear_1465_64644)"/>
</g>
<g id="Group_5">
<path id="Vector_19" d="M65.2647 17.6358C65.0235 16.6334 65.1425 15.5781 65.6008 14.6546C66.3359 13.2037 67.4364 11.9692 68.7937 11.0729C69.5063 10.5494 70.3468 10.2276 71.2268 10.1413C71.6515 10.1093 72.0782 10.1147 72.5019 10.1576C72.9531 10.1999 73.1755 10.6413 73.5456 10.8403C73.7603 10.9808 73.8139 11.2526 73.8459 11.4833C73.9172 11.8759 73.8828 12.2805 73.7462 12.6555C73.5407 13.3295 73.2293 13.9666 72.8237 14.5429C71.8681 15.9232 70.7349 17.1717 69.4533 18.256C68.8251 18.6807 68.269 19.2033 67.806 19.8038C67.7757 19.8542 67.7281 19.8919 67.6721 19.9099C67.1986 20.0376 66.6987 20.0295 66.2296 19.8863C66.0349 19.793 65.8846 19.6271 65.811 19.4242C65.5805 18.8439 65.3977 18.2458 65.2647 17.6358ZM69.1692 12.7441C69.0938 12.6948 68.9786 12.6571 69.0365 12.5605C69.2641 12.1714 69.073 11.8796 68.8768 11.5791C68.7677 11.5942 68.6635 11.634 68.5721 11.6953C68.4807 11.7567 68.4044 11.8381 68.3492 11.9334C68.2506 12.0841 68.4477 12.2022 68.4652 12.3482C68.4729 12.377 68.4718 12.4074 68.4621 12.4355C68.4523 12.4637 68.4343 12.4882 68.4104 12.506C68.3086 12.5793 68.2331 12.5138 68.174 12.4644C68.1434 12.4307 68.1063 12.4035 68.0651 12.3843C68.0238 12.3651 67.9791 12.3544 67.9336 12.3527C67.8881 12.351 67.8428 12.3584 67.8002 12.3744C67.7576 12.3905 67.7186 12.4148 67.6856 12.4461C67.5108 12.59 67.5271 12.746 67.6049 12.9314C67.7147 13.2076 67.822 13.4876 67.9588 13.8461C68.2392 13.4915 68.6083 13.2972 68.3281 12.8127C68.266 12.7021 68.3818 12.6648 68.4563 12.6167C68.6645 12.8659 68.9797 12.491 69.1879 12.7402C68.7921 13.4603 68.3248 14.1388 67.7933 14.7653C67.7933 14.7653 67.7066 14.7086 67.6614 14.6791C67.6547 14.1729 67.5437 13.6735 67.3351 13.2122C67.323 13.1853 67.3048 13.1616 67.2818 13.1431C67.2589 13.1245 67.232 13.1115 67.2032 13.1052C67.1744 13.0989 67.1445 13.0995 67.1159 13.1068C67.0873 13.1141 67.0609 13.128 67.0386 13.1473C66.9253 13.3206 66.783 13.4805 66.6597 13.6526C66.6153 13.7205 66.5512 13.8184 66.6367 13.8851C66.9683 14.102 66.9843 14.5052 67.1419 14.8235C67.2461 15.0261 67.4005 14.8312 67.5221 14.8838C67.5673 14.9134 67.6502 14.9676 67.6539 14.9701C67.5676 15.415 67.3313 15.8168 66.9846 16.1085C66.9205 16.0666 66.8057 16.0776 66.8257 15.9401C66.8458 15.8026 67.0496 15.5485 66.9241 15.3374C66.7323 14.9644 66.711 14.5201 66.4258 14.1829C66.0609 14.6207 65.7919 15.1301 65.6359 15.6783C65.6204 15.7596 65.61 15.8496 65.7117 15.9161C65.8383 16.0001 65.954 16.0993 66.0564 16.2115C66.1723 16.3304 66.1345 16.5692 66.3395 16.6012C66.4677 16.4053 66.6124 16.2417 66.768 16.053C66.8395 15.9437 66.9166 16.0479 66.9844 16.0923C67.0745 16.3987 66.829 16.5931 66.7337 16.8375C66.4995 17.2678 66.3266 17.7287 66.2199 18.2068C66.381 18.2409 66.5438 18.2666 66.7076 18.2837C67.0599 18.3044 67.3805 18.2666 67.4929 17.8398C67.5135 17.766 67.5607 17.7025 67.6253 17.6613C67.69 17.6202 67.7675 17.6044 67.8431 17.617C67.9503 17.6215 68.0566 17.5956 68.1496 17.5422C68.2426 17.4888 68.3186 17.4101 68.3687 17.3152C68.5782 16.995 68.9268 16.7334 68.7979 16.2725C68.7733 16.1703 68.8552 16.1109 68.9334 16.0653C69.0117 16.0197 69.1519 15.9123 69.1232 15.7752C69.1153 15.578 69.1788 15.3846 69.302 15.2304C69.5653 14.7786 69.9108 14.2998 69.5697 13.7109C69.5481 13.6786 69.5364 13.6406 69.5362 13.6017C69.536 13.5629 69.5473 13.5248 69.5686 13.4922C69.5898 13.4597 69.6202 13.4341 69.6559 13.4188C69.6916 13.4034 69.7311 13.3988 69.7693 13.4057C69.8139 13.4181 69.8608 13.4198 69.9061 13.4105C69.9515 13.4013 69.994 13.3815 70.0302 13.3527C70.0664 13.3238 70.0952 13.2868 70.1143 13.2447C70.1334 13.2026 70.1423 13.1565 70.1401 13.1103C70.2599 12.6447 70.5039 12.2204 70.8462 11.8829C70.9965 11.653 71.2222 11.4725 71.5562 11.1099C70.8527 11.3441 70.2147 11.7416 69.6945 12.27C69.5337 12.45 69.4537 12.7204 69.1692 12.7441ZM72.5654 13.9919C72.5917 14.0092 72.6332 14.0363 72.6529 14.0062C73.0565 13.5149 73.3258 12.9274 73.4347 12.3011C73.4499 12.1532 73.4282 12.0039 73.3717 11.8665C73.3151 11.7291 73.2255 11.6078 73.1106 11.5134C73.0301 11.4424 72.9311 11.3957 72.8251 11.3787C72.719 11.3617 72.6104 11.3752 72.5117 11.4175C72.0597 11.5224 71.6636 11.7933 71.4019 12.1764C70.9045 12.9058 70.5192 13.7055 70.2588 14.549C70.0926 15.2307 69.866 15.8963 69.5819 16.5379C68.8976 17.9624 67.9001 18.9938 66.269 19.2503C66.2616 19.3123 66.2751 19.375 66.3075 19.4284C66.3399 19.4817 66.3892 19.5227 66.4476 19.5447C66.6002 19.6127 66.7682 19.6384 66.9342 19.6191C67.1001 19.5999 67.2577 19.5364 67.3907 19.4353C68.227 18.8229 69.0272 18.1625 69.7872 17.4577C70.8327 16.517 71.7578 15.4507 72.5417 14.2831C72.6033 14.1889 72.6961 14.0882 72.5802 13.9693L72.5654 13.9919ZM65.6003 16.1768C65.5024 17.2641 65.5 17.2678 65.8159 17.8457C66.2868 17.2822 65.8721 16.8388 65.6003 16.1768ZM71.6491 10.4498C71.3611 10.5035 71.0554 10.5349 70.7814 10.6085C70.7604 10.6136 70.7409 10.6237 70.7246 10.638C70.7083 10.6522 70.6957 10.6702 70.6878 10.6903C70.6799 10.7105 70.6769 10.7322 70.6792 10.7537C70.6815 10.7752 70.6888 10.7959 70.7007 10.814C70.7475 10.8822 70.7894 10.958 70.8967 10.9421C71.049 10.9133 71.1941 10.8547 71.3237 10.7695C71.4532 10.6844 71.5647 10.5744 71.6516 10.446L71.6491 10.4498ZM70.1589 11.3956C70.2264 11.3645 70.2811 11.3111 70.3139 11.2445C70.3468 11.1778 70.3557 11.1019 70.3392 11.0294C70.3221 10.9708 70.2846 10.9202 70.2335 10.8868C70.1824 10.8534 70.121 10.8393 70.0604 10.847C70.0304 10.8501 70.0014 10.8598 69.9755 10.8755C69.9497 10.8911 69.9277 10.9124 69.9112 10.9377C69.8947 10.963 69.884 10.9916 69.88 11.0216C69.8759 11.0515 69.8787 11.082 69.8879 11.1108C69.9105 11.2654 69.969 11.3898 70.1463 11.382L70.1589 11.3956ZM69.2939 11.4431L69.4116 11.7568C69.4334 11.8302 69.4773 11.8536 69.5418 11.8043C69.6063 11.7551 69.6434 11.7148 69.6306 11.6687C69.6127 11.5547 69.5807 11.4434 69.5353 11.3374C69.5273 11.3176 69.5154 11.2997 69.5002 11.2849C69.485 11.27 69.4668 11.2585 69.4469 11.251C69.427 11.2435 69.4057 11.2403 69.3845 11.2415C69.3632 11.2427 69.3425 11.2484 69.3235 11.2581C69.3012 11.2757 69.3095 11.3618 69.2964 11.4394L69.2939 11.4431ZM66.2185 18.76C66.3353 18.8364 66.451 18.783 66.5605 18.7471C66.6701 18.7111 66.661 18.6675 66.5623 18.6621C66.4482 18.6663 66.3347 18.6802 66.223 18.7038C66.223 18.7038 66.2233 18.7363 66.221 18.7563L66.2185 18.76Z" fill="url(#paint18_linear_1465_64644)"/>
<path id="Vector_20" d="M71.0074 14.7694C70.9273 14.5753 70.9004 14.3634 70.9295 14.1555C70.9587 13.9476 71.0428 13.7512 71.1732 13.5866C71.2245 13.5207 71.2992 13.4771 71.3819 13.4649C71.4235 13.4709 71.4632 13.486 71.4983 13.509C71.5335 13.532 71.5632 13.5623 71.5853 13.598C71.7161 13.9017 71.7803 14.2298 71.7736 14.5604C71.7709 14.6878 71.6977 14.7421 71.5402 14.7198C71.3614 14.7183 71.1829 14.7349 71.0074 14.7694Z" fill="url(#paint19_linear_1465_64644)"/>
<path id="Vector_21" d="M72.5805 13.9704C72.1544 14.079 72.1544 14.079 72.0693 13.7651C71.9841 13.4511 71.8591 13.0089 71.7659 12.6251C71.7601 12.6042 71.7588 12.5823 71.7622 12.5608C71.7656 12.5393 71.7734 12.5189 71.7853 12.5007C71.7972 12.4825 71.8128 12.4671 71.8311 12.4554C71.8495 12.4437 71.8701 12.4361 71.8915 12.433C71.9349 12.4197 71.9816 12.4229 72.0228 12.4419C72.0639 12.4609 72.0966 12.4943 72.1147 12.5359C72.1753 12.7066 72.2268 12.8804 72.2691 13.0565C72.3228 13.3825 72.424 13.6988 72.5695 13.9955L72.5805 13.9704Z" fill="url(#paint20_linear_1465_64644)"/>
<path id="Vector_22" d="M67.4946 14.8932C67.4296 14.7376 67.4487 14.6426 67.6425 14.6671C67.663 14.7344 67.7743 14.7534 67.6942 14.8677C67.614 14.982 67.5658 14.8913 67.4946 14.8932Z" fill="url(#paint21_linear_1465_64644)"/>
</g>
</g>
</g>
<defs>
<linearGradient id="paint0_linear_1465_64644" x1="21.8814" y1="27.8489" x2="60.2234" y2="27.6898" gradientUnits="userSpaceOnUse">
<stop stop-color="#5E94FF"/>
<stop offset="1" stop-color="#43DBFA"/>
</linearGradient>
<linearGradient id="paint1_linear_1465_64644" x1="28.4542" y1="21.3984" x2="36.3328" y2="21.3835" gradientUnits="userSpaceOnUse">
<stop stop-color="#5E94FF"/>
<stop offset="1" stop-color="#43DBFA"/>
</linearGradient>
<linearGradient id="paint2_linear_1465_64644" x1="27.7603" y1="25.065" x2="37.0658" y2="24.9727" gradientUnits="userSpaceOnUse">
<stop stop-color="#5E94FF"/>
<stop offset="1" stop-color="#43DBFA"/>
</linearGradient>
<linearGradient id="paint3_linear_1465_64644" x1="45.6022" y1="24.7928" x2="52.2404" y2="24.7119" gradientUnits="userSpaceOnUse">
<stop stop-color="#5E94FF"/>
<stop offset="1" stop-color="#43DBFA"/>
</linearGradient>
<linearGradient id="paint4_linear_1465_64644" x1="41.2038" y1="1.4692" x2="44.8756" y2="1.40496" gradientUnits="userSpaceOnUse">
<stop stop-color="#5E94FF"/>
<stop offset="1" stop-color="#43DBFA"/>
</linearGradient>
<linearGradient id="paint5_linear_1465_64644" x1="36.8132" y1="1.4855" x2="40.4851" y2="1.42372" gradientUnits="userSpaceOnUse">
<stop stop-color="#5E94FF"/>
<stop offset="1" stop-color="#43DBFA"/>
</linearGradient>
<linearGradient id="paint6_linear_1465_64644" x1="-1.06459e-07" y1="25.0723" x2="14.7513" y2="24.9868" gradientUnits="userSpaceOnUse">
<stop stop-color="#5E94FF"/>
<stop offset="1" stop-color="#43DBFA"/>
</linearGradient>
<linearGradient id="paint7_linear_1465_64644" x1="7.79177" y1="19.8649" x2="9.46494" y2="19.8587" gradientUnits="userSpaceOnUse">
<stop stop-color="#5E94FF"/>
<stop offset="1" stop-color="#43DBFA"/>
</linearGradient>
<linearGradient id="paint8_linear_1465_64644" x1="6.3007" y1="19.964" x2="7.86129" y2="19.96" gradientUnits="userSpaceOnUse">
<stop stop-color="#5E94FF"/>
<stop offset="1" stop-color="#43DBFA"/>
</linearGradient>
<linearGradient id="paint9_linear_1465_64644" x1="11.6731" y1="22.9881" x2="12.0146" y2="22.987" gradientUnits="userSpaceOnUse">
<stop stop-color="#5E94FF"/>
<stop offset="1" stop-color="#43DBFA"/>
</linearGradient>
<linearGradient id="paint10_linear_1465_64644" x1="14.2714" y1="8.24016" x2="20.6213" y2="18.0715" gradientUnits="userSpaceOnUse">
<stop stop-color="#5E94FF"/>
<stop offset="1" stop-color="#43DBFA"/>
</linearGradient>
<linearGradient id="paint11_linear_1465_64644" x1="12.6979" y1="13.3806" x2="13.4205" y2="14.4942" gradientUnits="userSpaceOnUse">
<stop stop-color="#5E94FF"/>
<stop offset="1" stop-color="#43DBFA"/>
</linearGradient>
<linearGradient id="paint12_linear_1465_64644" x1="12.1155" y1="12.3491" x2="12.7907" y2="13.3869" gradientUnits="userSpaceOnUse">
<stop stop-color="#5E94FF"/>
<stop offset="1" stop-color="#43DBFA"/>
</linearGradient>
<linearGradient id="paint13_linear_1465_64644" x1="16.4567" y1="14.6022" x2="16.6044" y2="14.8294" gradientUnits="userSpaceOnUse">
<stop stop-color="#5E94FF"/>
<stop offset="1" stop-color="#43DBFA"/>
</linearGradient>
<linearGradient id="paint14_linear_1465_64644" x1="84" y1="25.0723" x2="69.2487" y2="24.9868" gradientUnits="userSpaceOnUse">
<stop stop-color="#5E94FF"/>
<stop offset="1" stop-color="#43DBFA"/>
</linearGradient>
<linearGradient id="paint15_linear_1465_64644" x1="76.2082" y1="19.8649" x2="74.5351" y2="19.8587" gradientUnits="userSpaceOnUse">
<stop stop-color="#5E94FF"/>
<stop offset="1" stop-color="#43DBFA"/>
</linearGradient>
<linearGradient id="paint16_linear_1465_64644" x1="77.6993" y1="19.964" x2="76.1387" y2="19.96" gradientUnits="userSpaceOnUse">
<stop stop-color="#5E94FF"/>
<stop offset="1" stop-color="#43DBFA"/>
</linearGradient>
<linearGradient id="paint17_linear_1465_64644" x1="72.3269" y1="22.9881" x2="71.9854" y2="22.987" gradientUnits="userSpaceOnUse">
<stop stop-color="#5E94FF"/>
<stop offset="1" stop-color="#43DBFA"/>
</linearGradient>
<linearGradient id="paint18_linear_1465_64644" x1="69.7287" y1="8.24016" x2="63.3788" y2="18.0715" gradientUnits="userSpaceOnUse">
<stop stop-color="#5E94FF"/>
<stop offset="1" stop-color="#43DBFA"/>
</linearGradient>
<linearGradient id="paint19_linear_1465_64644" x1="71.3021" y1="13.3806" x2="70.5795" y2="14.4942" gradientUnits="userSpaceOnUse">
<stop stop-color="#5E94FF"/>
<stop offset="1" stop-color="#43DBFA"/>
</linearGradient>
<linearGradient id="paint20_linear_1465_64644" x1="71.8845" y1="12.3491" x2="71.2093" y2="13.3869" gradientUnits="userSpaceOnUse">
<stop stop-color="#5E94FF"/>
<stop offset="1" stop-color="#43DBFA"/>
</linearGradient>
<linearGradient id="paint21_linear_1465_64644" x1="67.5433" y1="14.6022" x2="67.3956" y2="14.8294" gradientUnits="userSpaceOnUse">
<stop stop-color="#5E94FF"/>
<stop offset="1" stop-color="#43DBFA"/>
</linearGradient>
</defs>
</svg>
