<svg width="36" height="36" viewBox="0 0 36 36" fill="none" xmlns="http://www.w3.org/2000/svg">
<path fill-rule="evenodd" clip-rule="evenodd" d="M26 31.0001H10C8.34372 31.0001 7 29.6564 7 28.0001V8.00012C7 6.34384 8.34372 5.00012 10 5.00012H26C27.6563 5.00012 29 6.34384 29 8.00012V28.0001C29 29.6564 27.6563 31.0001 26 31.0001ZM26 29.0001C26.5517 29.0001 27 28.5518 27 28.0001V8.00012C27 7.44841 26.5517 7.00012 26 7.00012H10C9.44828 7.00012 9 7.44841 9 8.00012V28.0001C9 28.5518 9.44828 29.0001 10 29.0001H26ZM13 13.0274H23C23.5523 13.0274 24 12.5797 24 12.0274C24 11.4751 23.5523 11.0274 23 11.0274H13C12.4477 11.0274 12 11.4751 12 12.0274C12 12.5797 12.4477 13.0274 13 13.0274ZM13 18.0274H23C23.5523 18.0274 24 17.5797 24 17.0274C24 16.4751 23.5523 16.0274 23 16.0274H13C12.4477 16.0274 12 16.4751 12 17.0274C12 17.5797 12.4477 18.0274 13 18.0274ZM13 23.0274H18C18.5523 23.0274 19 22.5797 19 22.0274C19 21.4751 18.5523 21.0274 18 21.0274H13C12.4477 21.0274 12 21.4751 12 22.0274C12 22.5797 12.4477 23.0274 13 23.0274Z" fill="url(#paint0_linear_642_136903)"/>
<defs>
<linearGradient id="paint0_linear_642_136903" x1="18" y1="5.00012" x2="18" y2="31.0001" gradientUnits="userSpaceOnUse">
<stop stop-color="#1FD054"/>
<stop offset="0.463542" stop-color="#23CC97"/>
<stop offset="0.921875" stop-color="#26C8D2"/>
</linearGradient>
</defs>
</svg>
