<svg width="88" height="88" viewBox="0 0 88 88" fill="none" xmlns="http://www.w3.org/2000/svg">
<path d="M44.7723 55.633L45.3625 56.2089L45.88 55.5669L73.7496 20.9891C75.5229 18.7889 78.7441 18.4429 80.9442 20.2162C83.1444 21.9896 83.4904 25.2107 81.7171 27.4109L49.7996 67.0109C48.8952 68.133 47.5596 68.8216 46.1209 68.9076C44.6823 68.9935 43.2741 68.4687 42.2426 67.4622L24.2934 49.9491C22.2708 47.9756 22.231 44.7362 24.2044 42.7136C26.1779 40.691 29.4173 40.6511 31.4399 42.6246L44.7723 55.633Z" stroke="#00BC78" stroke-width="1.5"/>
<path fill-rule="evenodd" clip-rule="evenodd" d="M75.5477 19.6323C78.0704 21.6656 78.4671 25.3589 76.4339 27.8816L44.5164 67.4816C43.4794 68.7681 41.948 69.5577 40.2984 69.6562C38.6489 69.7547 37.0344 69.153 35.8516 67.999L17.9024 50.4859C15.5834 48.2232 15.5377 44.5089 17.8004 42.1898C20.0632 39.8707 23.7775 39.8251 26.0965 42.0878L39.4289 55.0962L67.2984 20.5184C69.3317 17.9958 73.025 17.599 75.5477 19.6323Z" fill="url(#paint0_linear_2616_65423)"/>
<defs>
<linearGradient id="paint0_linear_2616_65423" x1="46.9326" y1="18.3403" x2="74.6987" y2="71.3679" gradientUnits="userSpaceOnUse">
<stop stop-color="#C1FF83"/>
<stop offset="1" stop-color="#1DBBFF"/>
</linearGradient>
</defs>
</svg>
