<svg width="20" height="21" viewBox="0 0 20 21" fill="none" xmlns="http://www.w3.org/2000/svg">
<path d="M0 6.49674C0 5.75583 0.409603 5.07562 1.06446 4.72904L9.06446 0.495124C9.6497 0.185393 10.3503 0.185393 10.9355 0.495124L18.9355 4.72904C19.5904 5.07562 20 5.75583 20 6.49674V19.1111C20 19.6634 19.5523 20.1111 19 20.1111H14.3333C13.781 20.1111 13.3333 19.6634 13.3333 19.1111V12.6433C13.3333 12.091 12.8856 11.6433 12.3333 11.6433H7.66667C7.11438 11.6433 6.66667 12.091 6.66667 12.6433V19.1111C6.66667 19.6634 6.21895 20.1111 5.66667 20.1111H0.999999C0.447714 20.1111 0 19.6634 0 19.1111V6.49674Z" fill="url(#paint0_linear_1072_55004)"/>
<defs>
<linearGradient id="paint0_linear_1072_55004" x1="-1.49012e-07" y1="20.1111" x2="18.5241" y2="21.3893" gradientUnits="userSpaceOnUse">
<stop stop-color="#1DD13B"/>
<stop offset="1" stop-color="#27C6E5"/>
</linearGradient>
</defs>
</svg>
