<svg width="218" height="222" viewBox="0 0 218 222" fill="none" xmlns="http://www.w3.org/2000/svg">
<g id="Illustration">
<g id="Group">
<g id="Group 335294284">
<g id="Vector" style="mix-blend-mode:color-dodge" opacity="0.3">
<path d="M208.475 180.493C187.363 209.447 131.128 225.668 82.3606 221.293C74.4252 220.581 52.6671 218.46 33.4064 208.455C-3.67037 189.195 -11.6026 151.053 18.3076 124.175C40.0802 104.61 79.1047 93.5226 116.186 94.0775C124.172 94.1972 154.787 94.9334 181.684 107.854C185.635 109.752 194.35 114.262 202.204 121.416C220.647 138.217 222.233 161.623 208.475 180.493Z" fill="url(#paint0_linear_132_4890)"/>
</g>
<g id="Group_2">
<path id="Vector_2" d="M155.325 151.504L55.2304 152.236C42.8005 125.607 29.9415 79.0052 30.8811 55.4463H175.063C174.261 81.9807 165.928 127.587 155.325 151.504Z" fill="url(#paint1_linear_132_4890)"/>
<path id="Vector_3" d="M102.971 62.6647C142.786 62.6647 175.063 59.4317 175.063 55.4437C175.063 51.4556 142.786 48.2227 102.971 48.2227C63.1563 48.2227 30.8799 51.4556 30.8799 55.4437C30.8799 59.4317 63.1563 62.6647 102.971 62.6647Z" fill="#4164A4"/>
<path id="Vector_4" d="M177.472 79.2999L177.045 79.0047C176.885 78.8887 176.697 78.7364 176.526 78.6006C176.198 78.3309 175.886 78.0437 175.591 77.7403C174.989 77.1194 174.469 76.4249 174.047 75.674C173.193 74.1523 172.782 72.4262 172.727 70.7932C172.672 69.1602 172.9 67.5848 173.262 66.1033C173.629 64.6545 174.107 63.2352 174.693 61.8578L174.757 61.7063L174.925 61.4545C176.166 59.5797 177.681 57.8942 179.421 56.4521C181.225 54.9638 183.288 53.8093 185.511 53.0449C187.762 52.2908 190.136 51.9499 192.513 52.0393C194.91 52.1206 197.272 52.6287 199.485 53.539C200.652 54.0214 201.755 54.6419 202.77 55.3866C203.814 56.1885 204.863 57.1664 205.682 58.6708C205.815 58.8768 206.15 59.4806 206.417 59.996C206.683 60.5114 206.921 61.022 207.152 61.5587C207.625 62.6621 207.991 63.8069 208.245 64.9778C208.778 67.445 208.698 70.0021 208.012 72.4325C207.341 74.8176 206.233 76.9045 205.004 78.7466C203.775 80.5888 202.417 82.251 201.036 83.8303C199.654 85.4096 198.226 86.8911 196.793 88.3441C193.915 91.2368 191.012 94.0142 188.088 96.7467C182.243 102.206 176.454 107.629 170.804 113.193L171.343 112.54C171.13 112.856 171.052 113.07 170.99 113.113C170.927 113.156 170.823 113.094 170.765 113.283C170.756 113.339 170.754 113.395 170.757 113.452C170.767 113.53 170.783 113.607 170.806 113.683C170.876 113.893 170.972 114.094 171.09 114.283C171.243 114.532 171.411 114.771 171.593 115C171.792 115.253 172.022 115.51 172.263 115.804L172.496 116.086C172.779 116.431 172.957 116.847 173.009 117.287C173.061 117.727 172.986 118.172 172.791 118.571C172.597 118.971 172.291 119.308 171.91 119.544C171.528 119.779 171.087 119.904 170.636 119.903C170.114 119.898 169.593 119.835 169.085 119.717C168.54 119.597 168.011 119.418 167.507 119.182C166.308 118.63 165.282 117.772 164.537 116.696C164.097 116.054 163.771 115.343 163.573 114.594C163.37 113.826 163.299 113.03 163.365 112.239C163.43 111.511 163.595 110.794 163.854 110.108C164.093 109.502 164.391 108.921 164.745 108.372L164.964 108.026L165.285 107.718C171.065 102.134 176.991 96.6962 182.873 91.3102C185.803 88.6101 188.755 85.9542 191.556 83.236C192.954 81.8784 194.318 80.5083 195.598 79.1152C196.879 77.7221 198.072 76.3046 199.075 74.8634C200.079 73.4222 200.881 71.9715 201.329 70.5477C201.779 69.1622 201.876 67.689 201.61 66.258C201.469 65.4877 201.254 64.7321 200.968 64.0015C200.817 63.6211 200.647 63.2328 200.474 62.8539C200.3 62.4751 200.16 62.2114 199.804 61.5524C199.688 61.2983 199.314 60.8121 198.785 60.3906C198.204 59.9263 197.568 59.5316 196.892 59.2146C195.41 58.5282 193.815 58.1093 192.182 57.9778C190.529 57.8374 188.864 57.998 187.27 58.4514C185.654 58.9096 184.135 59.6504 182.786 60.6384C181.379 61.6756 180.135 62.9103 179.093 64.303L179.324 63.9005C178.763 65.0131 178.287 66.1655 177.901 67.348C177.536 68.5003 177.298 69.6535 177.267 70.7474C177.235 71.8413 177.395 72.8634 177.814 73.779C178.027 74.2444 178.302 74.6805 178.63 75.0765C178.8 75.2808 178.981 75.4762 179.171 75.6622L179.446 75.9195L179.848 76.2462C180.239 76.5634 180.489 77.0173 180.547 77.5124C180.605 78.0075 180.465 78.5053 180.157 78.9011C179.849 79.297 179.397 79.5602 178.896 79.6353C178.395 79.7104 177.884 79.5916 177.47 79.3038L177.472 79.2999Z" fill="url(#paint2_linear_132_4890)"/>
<path id="Vector_5" d="M32.509 56.9752C45.8716 63.2968 135.416 66.3373 172.17 57.4754C156.803 52.0363 72.2558 48.2233 32.509 56.9752Z" fill="#200D07"/>
<path id="Vector_6" d="M30.881 55.4434C27.4386 67.2338 166.943 68.8535 174.893 55.9352C155.293 65.9875 35.9207 65.2645 30.881 55.4434Z" fill="#91B3FA"/>
<path id="Vector_7" opacity="0.3" d="M99.9245 43.4527C99.1106 42.3406 98.5629 41.117 98.0338 39.8977C97.5252 38.7277 97.0234 37.5238 97.0008 36.2805C96.9385 32.784 100.534 30.0406 103.889 27.8354C107.244 25.6302 110.94 23.0494 111.2 19.5584C111.385 17.0952 109.777 14.8168 108.68 12.5143C107.617 10.2923 107.009 7.91601 106.886 5.49971C106.865 5.07419 106.86 4.64129 106.998 4.23055C107.189 3.66278 107.637 3.17876 108.075 2.70952L110.603 0C108.58 1.70515 109.403 4.51566 110.662 6.65064C111.895 8.7339 113.416 10.702 114.533 12.8265C115.649 14.951 116.35 17.3034 115.819 19.572C114.548 25.0058 106.941 28.0589 104.661 33.2729C103.497 35.9338 103.915 39.0153 105.761 41.4095C107.426 43.5691 110.148 45.1591 111.43 47.4844C112.031 48.5737 112.3 50.1323 111.443 51.1896C110.033 52.9317 108.846 51.4821 107.724 50.4082C105.236 48.0207 101.912 46.1696 99.9245 43.4527Z" fill="#C1A096"/>
<path id="Vector_8" opacity="0.3" d="M81.0778 43.4527C80.221 42.3406 79.6445 41.117 79.0875 39.8977C78.5521 38.7277 78.0239 37.5238 78.0009 36.2805C77.9346 32.784 81.7198 30.0406 85.2514 27.8354C88.7831 25.6302 92.6735 23.0494 92.9474 19.5584C93.1419 17.0952 91.4492 14.8168 90.2941 12.5143C89.1759 10.2922 88.5361 7.91597 88.4055 5.49971C88.3839 5.07419 88.3788 4.64129 88.5237 4.23055C88.7247 3.66278 89.196 3.17876 89.6571 2.70952C90.5444 1.80635 91.4317 0.903174 92.319 0C90.1889 1.70515 91.0551 4.51566 92.381 6.65064C93.678 8.7339 95.2799 10.702 96.4552 12.8265C97.6305 14.951 98.3684 17.3034 97.8099 19.572C96.471 25.0058 88.4638 28.0589 86.0643 33.2729C84.8393 35.9338 85.2788 39.0153 87.2223 41.4095C88.9755 43.5691 91.8405 45.1591 93.1902 47.4844C93.8222 48.5737 94.1053 50.1323 93.2032 51.1896C91.7195 52.9317 90.4692 51.4821 89.2882 50.4082C86.6688 48.0207 83.1704 46.1696 81.0778 43.4527Z" fill="#C1A096"/>
<path id="Vector_9" opacity="0.3" d="M117.925 43.4527C117.111 42.3406 116.563 41.117 116.034 39.8977C115.525 38.7277 115.023 37.5238 115.001 36.2805C114.939 32.784 118.534 30.0406 121.889 27.8354C125.244 25.6302 128.94 23.0494 129.2 19.5584C129.385 17.0952 127.777 14.8168 126.68 12.5143C125.617 10.2923 125.009 7.91601 124.886 5.49971C124.864 5.07419 124.86 4.64129 124.998 4.23055C125.189 3.66278 125.637 3.17876 126.074 2.70952C126.917 1.80635 127.76 0.903174 128.603 0C126.58 1.70515 127.403 4.51566 128.662 6.65064C129.895 8.7339 131.416 10.702 132.533 12.8265C133.649 14.951 134.35 17.3034 133.819 19.572C132.547 25.0058 124.941 28.0589 122.661 33.2729C121.497 35.9338 121.915 39.0153 123.761 41.4095C125.426 43.5691 128.148 45.1591 129.43 47.4844C130.031 48.5737 130.299 50.1323 129.443 51.1896C128.033 52.9317 126.846 51.4821 125.724 50.4082C123.236 48.0207 119.912 46.1696 117.925 43.4527Z" fill="#C1A096"/>
<path id="Vector_10" d="M155 149.305C155 151.239 128.204 153 102.159 153C76.1141 153 54.9998 151.433 54.9998 149.5C54.9998 147.567 76.1141 146 102.159 146C128.204 146 155 147.372 155 149.305Z" fill="#53D8FF"/>
</g>
<g id="Group_3">
<g id="Group_4">
<path id="Vector_11" d="M193.202 152.469C193.123 152.761 192.931 153.011 192.668 153.162C192.405 153.314 192.093 153.354 191.8 153.276L191.602 153.222C191.309 153.143 191.06 152.951 190.908 152.688C190.757 152.425 190.716 152.113 190.795 151.82L194.495 138.112C194.575 137.82 194.767 137.57 195.03 137.419C195.292 137.267 195.605 137.226 195.898 137.304L196.097 137.359C196.389 137.438 196.639 137.63 196.79 137.893C196.942 138.156 196.982 138.468 196.904 138.761L193.202 152.469Z" fill="#4D2710"/>
<g id="Group_5">
<path id="Vector_12" d="M191.369 154.26C192.121 155.373 195.112 180.578 195.576 189.887C195.584 190.036 195.561 190.185 195.509 190.325C195.457 190.465 195.377 190.593 195.273 190.701C195.17 190.809 195.046 190.895 194.909 190.953C194.772 191.012 194.624 191.042 194.475 191.041C194.211 191.041 193.957 190.947 193.757 190.776C193.557 190.605 193.425 190.368 193.384 190.108L187.916 155.062L191.369 154.26Z" fill="#4D2710"/>
<path id="Vector_13" d="M167.329 154.26C166.577 155.373 163.587 180.578 163.122 189.887C163.114 190.036 163.138 190.185 163.19 190.325C163.242 190.465 163.322 190.593 163.425 190.701C163.528 190.808 163.652 190.894 163.789 190.953C163.926 191.012 164.074 191.042 164.223 191.041C164.487 191.041 164.741 190.947 164.941 190.776C165.141 190.605 165.273 190.368 165.314 190.108L170.782 155.062L167.329 154.26Z" fill="#4D2710"/>
<path id="Vector_14" d="M195.891 152.292V152.566C195.91 154.544 194.206 156.166 192.073 156.202L166.795 156.632C164.691 156.668 162.938 155.149 162.838 153.202L162.824 152.95C162.718 150.92 164.442 149.21 166.635 149.171L191.927 148.719C194.091 148.678 195.873 150.286 195.891 152.292Z" fill="#4D2710"/>
</g>
<path id="Vector_15" d="M200.913 112.843C200.826 110.519 196.299 111.221 194.953 111.266C190.115 111.441 191.216 117.569 191.161 120.819C191.085 125.384 191.457 130.012 191.796 134.564C191.903 136.01 192.059 137.448 192.113 138.898C192.18 140.8 194.735 141.037 196.48 140.975C196.923 140.959 197.345 140.785 197.67 140.484C197.995 140.183 198.202 139.776 198.252 139.336C198.882 133.884 200.999 115.257 200.913 112.843Z" fill="#4D2710"/>
<path id="Vector_16" d="M191.038 171.093H166.636C165.992 171.093 165.47 171.615 165.47 172.259V172.303C165.47 172.947 165.992 173.469 166.636 173.469H191.038C191.681 173.469 192.203 172.947 192.203 172.303V172.259C192.203 171.615 191.681 171.093 191.038 171.093Z" fill="#4D2710"/>
</g>
<g id="Group_6">
<path id="Vector_17" d="M138.927 131.254L137.138 130.777L131.708 129.52C131.384 129.445 131.049 129.435 130.722 129.49C130.394 129.545 130.081 129.665 129.8 129.841L125.131 132.779L138.024 132.757L138.927 131.254Z" fill="url(#paint3_linear_132_4890)"/>
<g id="Group_7">
<path id="Vector_18" d="M148.492 189.569C153.024 189.569 155.03 189.18 155.926 188.826C155.838 189.205 155.625 189.542 155.321 189.784C155.017 190.026 154.64 190.158 154.251 190.158H138.216C138.097 190.157 137.979 190.13 137.871 190.077C137.764 190.023 137.67 189.946 137.597 189.851C137.525 189.756 137.475 189.645 137.452 189.528C137.429 189.41 137.433 189.289 137.464 189.173C139.295 189.32 143.175 189.569 148.492 189.569Z" fill="#6A6A6A"/>
<path id="Vector_19" d="M137.516 188.993C137.541 188.894 137.586 188.801 137.647 188.719C138.869 187.16 141.323 184.711 144.659 184.758C149.549 184.827 151.254 185.357 155.054 184.788L155.95 187.759C156.037 188.047 156.046 188.353 155.977 188.646C155.08 188.996 153.075 189.389 148.542 189.389C143.226 189.389 139.346 189.139 137.516 188.993Z" fill="#200D07"/>
</g>
<path id="Vector_20" d="M153.953 181.589L155.054 185.331C155.054 185.331 152.617 186.44 150.473 185.55L150.051 182.307L153.953 181.589Z" fill="#939393"/>
<g id="Group_8">
<path id="Vector_21" d="M120.668 187.214C124.201 190.053 126.008 191.008 126.927 191.295C126.621 191.533 126.244 191.662 125.856 191.659C125.468 191.656 125.093 191.522 124.791 191.279L112.291 181.235C112.198 181.16 112.123 181.065 112.073 180.957C112.022 180.848 111.997 180.73 112 180.611C112.003 180.491 112.033 180.374 112.088 180.268C112.144 180.162 112.223 180.07 112.319 180C113.652 181.26 116.523 183.885 120.668 187.214Z" fill="#6A6A6A"/>
<path id="Vector_22" d="M112.371 179.819C112.452 179.758 112.545 179.715 112.643 179.691C114.572 179.245 118.007 178.882 120.579 181.005C124.348 184.122 125.346 185.601 128.663 187.539L127.513 190.409C127.401 190.686 127.217 190.928 126.981 191.111C126.062 190.824 124.255 189.869 120.722 187.03C116.574 183.704 113.704 181.079 112.371 179.819Z" fill="#200D07"/>
</g>
<path id="Vector_23" d="M177.491 138.949C177.491 138.949 150.354 141.165 144.788 143.786C139.221 146.406 149.331 183.135 149.331 183.135C149.331 183.135 150.846 183.866 154.218 182.817C154.218 182.817 150.76 155.712 153.334 149.834L182.716 145.029L177.491 138.949Z" fill="#200D07"/>
<path id="Vector_24" d="M131.36 182.382C131.107 182.611 128.663 187.541 128.663 187.541C128.663 187.541 125.946 186.953 125.387 185.23L127.835 180.781L131.36 182.382Z" fill="#939393"/>
<path id="Vector_25" d="M193.836 138.728C193.836 138.728 194.72 140.855 194.684 143.682C194.634 147.593 191.49 150.766 187.584 150.962L155.504 152.425C155.175 152.44 154.859 152.56 154.603 152.768C154.347 152.976 154.165 153.261 154.083 153.581C153.329 156.497 149.645 165.451 131.633 183.319C131.4 183.55 131.095 183.694 130.769 183.73C130.443 183.765 130.114 183.689 129.837 183.514L127.273 181.895C127.143 181.813 127.051 181.684 127.015 181.536C126.978 181.387 127.001 181.23 127.078 181.098L145.757 149.201C146.738 147.582 148.315 146.412 150.15 145.943L177.491 138.954L193.836 138.728Z" fill="#200D07"/>
<path id="Vector_26" d="M162.223 88.8975C162.223 88.8975 165.658 94.9734 169.163 97.9175L161.92 101.958C161.92 101.958 160.288 95.5256 156.56 93.642L162.223 88.8975Z" fill="url(#paint4_linear_132_4890)"/>
<path id="Vector_27" d="M194.418 138.95C194.418 138.95 185.758 141.061 177.491 138.95C177.491 138.95 165.921 123.401 161.451 119.168C161.451 119.168 154.313 130.432 138.425 132.029L137.537 130.05C137.537 130.05 150.185 124.219 154.08 115.26C157.974 106.301 159.538 102.48 163.08 100.142C165.287 98.6861 166.608 97.6921 167.287 97.1487C167.468 97.0033 167.69 96.9174 167.922 96.9027C168.155 96.8879 168.386 96.9451 168.584 97.0663C172.347 99.3566 190.037 111.473 194.418 138.95Z" fill="#94D0B3"/>
<path id="Vector_28" d="M163.316 116.738C163.413 116.738 163.51 116.716 163.597 116.673C163.685 116.629 163.761 116.567 163.821 116.489C165.851 113.841 166.983 110.922 167.03 110.799C167.091 110.641 167.086 110.466 167.017 110.312C166.949 110.158 166.821 110.037 166.664 109.977C166.506 109.916 166.331 109.921 166.177 109.99C166.023 110.058 165.902 110.186 165.842 110.343C165.831 110.372 164.726 113.218 162.811 115.715C162.739 115.809 162.694 115.922 162.683 116.04C162.671 116.158 162.693 116.277 162.746 116.383C162.798 116.49 162.879 116.579 162.98 116.642C163.081 116.705 163.197 116.738 163.316 116.738Z" fill="#75B696"/>
<g id="Group_9">
<path id="Vector_29" d="M156.764 79.7881C156.764 79.7881 153.425 85.3398 152.845 88.4085C152.266 91.4771 151.335 93.3949 154.827 94.4888C158.319 95.5827 161.566 94.1978 163.603 91.3334C163.603 91.3334 166.784 86.9254 166.466 84.9068C166.149 82.8883 156.764 79.7881 156.764 79.7881Z" fill="url(#paint5_linear_132_4890)"/>
<path id="Vector_30" d="M162.391 84.1005C162.391 84.1005 151.829 80.5709 152.765 75.6178C153.7 70.6646 158.385 70.3754 160.816 74.566C163.248 78.7565 170.154 79.392 168.845 83.3073C168.319 85.666 172.992 87.9405 162.856 92.4676C164.038 88.8372 163.14 88.8196 162.681 88.8196H162.097C162.097 88.8196 165.166 84.4608 162.391 84.1005Z" fill="#484848"/>
<path id="Vector_31" d="M162.485 89.509C162.485 89.509 163.959 85.8759 165.507 87.1529C167.055 88.43 164.076 91.2523 162.702 91.2146L162.485 89.509Z" fill="#FFA09D"/>
<path id="Vector_32" d="M155.622 79.0282C155.612 79.028 155.603 79.0262 155.594 79.023C155.54 79.0011 154.283 78.4594 154.283 76.2304C154.283 74.0015 156.83 72.8024 156.856 72.791C156.865 72.787 156.874 72.7846 156.884 72.7842C156.893 72.7838 156.903 72.7853 156.912 72.7887C156.921 72.792 156.93 72.7971 156.937 72.8037C156.944 72.8103 156.95 72.8182 156.954 72.827C156.958 72.8358 156.96 72.8453 156.961 72.855C156.961 72.8647 156.96 72.8744 156.956 72.8835C156.953 72.8926 156.948 72.901 156.941 72.9081C156.935 72.9153 156.927 72.9211 156.918 72.9252C156.893 72.9374 154.431 74.0997 154.431 76.2304C154.431 78.3612 155.638 78.8801 155.651 78.8854C155.666 78.8922 155.679 78.9041 155.687 78.9193C155.695 78.9344 155.697 78.9518 155.694 78.9685C155.691 78.9853 155.682 79.0003 155.668 79.0112C155.655 79.0221 155.639 79.0281 155.622 79.0282Z" fill="#91B3FA"/>
</g>
</g>
<g id="Group_10">
<path id="Vector_33" d="M21.4482 152.469C21.5274 152.762 21.7196 153.011 21.9825 153.163C22.2454 153.314 22.5576 153.355 22.8506 153.276L23.0487 153.223C23.3415 153.144 23.5909 152.951 23.7423 152.688C23.8936 152.426 23.9345 152.113 23.8559 151.82L20.1545 138.113C20.0754 137.82 19.8834 137.57 19.6204 137.419C19.3575 137.267 19.0452 137.226 18.7521 137.305L18.5531 137.359C18.2603 137.438 18.0109 137.63 17.8595 137.893C17.7082 138.156 17.6673 138.468 17.7458 138.761L21.4482 152.469Z" fill="#4D2710"/>
<g id="Group_11">
<path id="Vector_34" d="M23.2818 154.26C22.5298 155.373 19.5391 180.578 19.0746 189.887C19.0672 190.036 19.0903 190.185 19.1423 190.325C19.1944 190.465 19.2744 190.593 19.3775 190.701C19.4806 190.809 19.6046 190.895 19.7419 190.953C19.8792 191.012 20.0271 191.042 20.1763 191.041C20.4395 191.041 20.694 190.947 20.8939 190.776C21.0938 190.605 21.226 190.368 21.2667 190.108L26.7352 155.062L23.2818 154.26Z" fill="#4D2710"/>
<path id="Vector_35" d="M47.3221 154.26C48.0741 155.373 51.0639 180.578 51.5293 189.887C51.5365 190.036 51.5134 190.185 51.4613 190.325C51.4091 190.465 51.3291 190.593 51.2261 190.701C51.123 190.808 50.9991 190.894 50.8618 190.953C50.7245 191.012 50.5768 191.042 50.4275 191.041C50.1643 191.041 49.9098 190.947 49.7098 190.776C49.5099 190.605 49.3777 190.368 49.3372 190.108L43.8687 155.062L47.3221 154.26Z" fill="#4D2710"/>
<path id="Vector_36" d="M18.7592 152.292V152.566C18.7408 154.544 20.4447 156.166 22.5772 156.202L47.8555 156.632C49.9591 156.668 51.7122 155.149 51.813 153.202L51.8261 152.95C51.9322 150.92 50.2081 149.21 48.0159 149.171L22.7236 148.719C20.5595 148.678 18.7776 150.286 18.7592 152.292Z" fill="#492A0D"/>
</g>
<path id="Vector_37" d="M13.7379 112.843C13.8256 110.519 18.3518 111.221 19.6982 111.266C24.5364 111.441 23.4356 117.569 23.4899 120.819C23.5662 125.384 23.1945 130.012 22.8553 134.564C22.7484 136.01 22.5924 137.448 22.538 138.898C22.4714 140.8 19.9155 141.037 18.1713 140.975C17.7285 140.959 17.3062 140.785 16.981 140.484C16.6558 140.183 16.4493 139.776 16.399 139.336C15.7697 133.884 13.6555 115.257 13.7379 112.843Z" fill="#4D2710"/>
<path id="Vector_38" d="M47.5698 171.093H23.1679C22.5241 171.093 22.0022 171.615 22.0022 172.259V172.303C22.0022 172.947 22.5241 173.469 23.1679 173.469H47.5698C48.2136 173.469 48.7355 172.947 48.7355 172.303V172.259C48.7355 171.615 48.2136 171.093 47.5698 171.093Z" fill="#4D2710"/>
</g>
<g id="Group_12">
<path id="Vector_39" d="M55.3174 77.0326C55.3174 77.0326 44.0105 75.9291 38.5166 90.4185C36.1272 96.7179 32.0103 100.591 26.9923 104.777C16.7671 113.309 15.9458 134.345 32.8509 134.551C46.5112 134.717 58.1686 122.913 55.8345 114.83C53.5004 106.747 59.3405 81.7061 59.8296 80.3159C60.3187 78.9258 58.478 76.9098 55.8345 77.0168L55.3174 77.0326Z" fill="#856156"/>
<path id="Vector_40" d="M44.822 135.497C44.822 135.497 54.0787 123.951 57.2227 119.924C58.0589 118.85 58.6263 117.591 58.8779 116.254C59.1295 114.916 59.0578 113.538 58.669 112.233C57.2341 107.398 54.6835 102.39 54.4512 101.611C54.0945 100.416 46.9344 100.466 46.9344 100.466C46.9344 100.466 32.8446 109.611 27.3086 125.101L33.5256 127.036C33.5256 127.036 37.2069 120.864 40.8392 116.94C40.8392 116.94 30.0538 132.096 29.8329 135.497H44.822Z" fill="#E7E4D3"/>
<path id="Vector_41" d="M55.3174 94.935C55.2429 95.183 53.3733 101.379 53.2278 101.509C53.0823 101.638 49.1293 101.851 47.2676 100.579L51.8824 91.5508L55.3174 94.935Z" fill="url(#paint6_linear_132_4890)"/>
<path id="Vector_42" d="M57.9381 82.1568C57.9381 82.1568 60.7788 84.4681 61.6194 89.7902C62.4599 95.1124 60.1845 96.7944 58.0327 96.4894C55.8809 96.1843 52.8035 95.2395 50.4159 91.2637C48.0283 87.2878 54.1989 79.309 57.9381 82.1568Z" fill="url(#paint7_linear_132_4890)"/>
<path id="Vector_43" d="M53.339 89.4049C53.339 89.4049 52.8894 81.8451 58.9846 83.5324L60.124 84.947C60.124 84.947 63.4547 81.7995 60.3291 78.922C57.2035 76.0444 52.4853 76.2925 49.4947 80.7679C46.5041 85.2433 45.2778 88.4609 47.1798 91.5716C49.0818 94.6824 50.9278 92.3211 50.9278 92.3211C50.9278 92.3211 50.1599 89.7064 51.0768 88.6941C51.9936 87.6817 52.9034 89.4908 52.9034 89.4908L53.339 89.4049Z" fill="#856156"/>
<path id="Vector_44" d="M52.4364 89.969C52.4364 89.969 52.2278 86.0818 50.1707 87.0065C48.1135 87.9312 50.5607 90.6554 51.5556 91.5967L52.4364 89.969Z" fill="url(#paint8_linear_132_4890)"/>
<path id="Vector_45" d="M60.7021 130.483L56.0102 125.96L49.5241 128.702C49.5241 128.702 43.0634 129.703 39.3663 128.702L35.6683 127.701L27.3126 125.101L25.9979 128.809C25.8362 129.267 25.8284 129.765 25.9755 130.228C26.1226 130.691 26.4166 131.094 26.813 131.375C27.5361 131.888 28.3837 132.453 28.9236 132.689C30.0245 133.171 56.0496 132.356 56.0496 132.356L60.7021 130.483Z" fill="url(#paint9_linear_132_4890)"/>
<g id="Group_13">
<path id="Vector_46" d="M61.8765 140.394C61.8765 140.394 65.8041 141.003 70.2199 143.955C70.5613 144.181 70.833 144.497 71.0046 144.869C71.1761 145.24 71.2407 145.652 71.1911 146.058C70.6652 150.246 68.488 163.802 61.319 177.043C60.9435 177.743 60.8301 178.554 60.9991 179.33L62.2446 185.127L64.5551 187.292H58.6054L54.6445 176.572L56.3379 176.037C56.9784 175.834 57.5391 175.436 57.9408 174.897C58.3425 174.359 58.5649 173.708 58.5765 173.036L58.7746 161.537C58.6054 156.414 61.9168 152.879 61.9168 152.879L52.4155 152.417L61.8765 140.394Z" fill="url(#paint10_linear_132_4890)"/>
<path id="Vector_47" d="M66.8783 188.337C67.42 189.046 61.0469 189.982 57.8267 188.431C57.8267 188.431 53.3635 180.665 53.3635 176.667C53.3635 176.667 53.7141 175.851 56.3384 176.036C56.3384 176.036 57.8372 185.231 59.4202 186.261C61.0031 187.291 63.8474 186.366 63.8474 186.366C63.8474 186.366 66.0789 187.291 66.8783 188.337Z" fill="#200D07"/>
<path id="Vector_48" d="M53.6179 153.048C53.6688 152.96 63.8476 151.821 63.8476 151.821C63.8476 151.821 63.5145 154.916 64.5558 159.176C65.5971 163.436 80.5414 181.896 80.5414 181.896L78.9742 186.863C83.8195 188.551 88.586 188.821 93.2753 187.723L83.5636 181.896C83.5636 181.896 74.4752 150.923 68.9076 145.397L58.7078 141.87L53.6179 153.048Z" fill="url(#paint11_linear_132_4890)"/>
<path id="Vector_49" d="M79.5682 185.192C79.5682 185.192 77.8809 186.827 79.0204 188.645C79.0204 188.645 92.3853 191.011 96.014 189.939C96.014 189.939 95.2602 188.219 91.174 186.262L91.4755 186.493C91.5588 186.556 91.6196 186.644 91.649 186.745C91.6784 186.845 91.6748 186.952 91.6388 187.05C91.6028 187.148 91.5363 187.232 91.4489 187.29C91.3616 187.347 91.2582 187.375 91.1538 187.37C88.4594 187.215 82.8875 186.722 79.5682 185.192Z" fill="#200D07"/>
<path id="Vector_50" d="M30.79 133.55C30.79 133.55 24.9253 142.272 24.4441 146.251C23.9629 150.231 26.0507 151.847 32.2038 152.113C38.3568 152.38 55.8781 153.318 55.8781 153.318L67.7635 141.87C67.7635 141.87 48.7267 135.582 46.07 134.551C43.4134 133.52 30.79 133.55 30.79 133.55Z" fill="#8CB3A0"/>
</g>
<path id="Vector_51" d="M23.8998 125.174C23.8856 125.174 23.8717 125.17 23.8597 125.163C23.8477 125.155 23.8382 125.144 23.8323 125.131C21.8882 120.943 23.8402 115.655 25.1768 112.876C26.4039 110.334 28.256 108.17 29.7346 106.565C29.7487 106.552 29.7676 106.544 29.7872 106.544C29.8069 106.544 29.8258 106.552 29.8398 106.565C29.8535 106.579 29.8611 106.598 29.8611 106.617C29.8611 106.637 29.8535 106.656 29.8398 106.67C28.3656 108.265 26.5179 110.419 25.3039 112.942C23.9787 115.697 22.0416 120.936 23.9594 125.07C23.9636 125.079 23.9661 125.088 23.9666 125.098C23.967 125.108 23.9656 125.118 23.9622 125.127C23.9589 125.136 23.9537 125.144 23.947 125.151C23.9404 125.159 23.9324 125.164 23.9234 125.168C23.916 125.172 23.908 125.174 23.8998 125.174Z" fill="#91B3FA"/>
<path id="Vector_52" d="M60.4988 81.9996C60.489 81.9995 60.4794 81.9974 60.4704 81.9936C60.4615 81.9897 60.4534 81.9841 60.4466 81.9771C60.4399 81.9701 60.4346 81.9618 60.431 81.9527C60.4275 81.9436 60.4258 81.934 60.426 81.9242C60.4435 80.9548 60.1455 80.1563 59.5407 79.5506C58.226 78.2289 55.8594 78.2543 55.8402 78.2526C55.8305 78.2527 55.8209 78.2509 55.8119 78.2473C55.8029 78.2437 55.7948 78.2384 55.7878 78.2316C55.7809 78.2248 55.7754 78.2168 55.7716 78.2079C55.7678 78.199 55.7658 78.1895 55.7656 78.1798C55.7654 78.17 55.7671 78.1603 55.7706 78.1512C55.7742 78.142 55.7795 78.1337 55.7862 78.1266C55.793 78.1195 55.8011 78.1138 55.81 78.1099C55.819 78.1059 55.8286 78.1038 55.8384 78.1035C55.9322 78.1035 58.2838 78.0799 59.6468 79.4455C60.2814 80.0809 60.5934 80.9154 60.575 81.9268C60.5748 81.9366 60.5726 81.9463 60.5687 81.9552C60.5647 81.9642 60.559 81.9723 60.552 81.979C60.5449 81.9858 60.5365 81.9911 60.5274 81.9946C60.5183 81.9981 60.5085 81.9998 60.4988 81.9996Z" fill="#91B3FA"/>
</g>
<g id="Group_14">
<g id="Group_15">
<path id="Vector_53" d="M139.689 195.797C139.793 195.796 139.896 195.764 139.989 195.703C140.377 195.452 140.553 194.776 140.387 194.193L124.459 138.19C124.294 137.607 123.848 137.338 123.462 137.589C123.076 137.84 122.899 138.515 123.065 139.097L138.992 195.106C139.043 195.303 139.137 195.475 139.261 195.598C139.386 195.721 139.535 195.791 139.689 195.797Z" fill="#4D2710"/>
<path id="Vector_54" d="M121.747 195.797C121.901 195.791 122.051 195.721 122.176 195.597C122.301 195.473 122.395 195.3 122.445 195.102L138.369 139.094C138.535 138.512 138.357 137.836 137.972 137.585C137.586 137.334 137.14 137.603 136.973 138.186L121.051 194.194C120.886 194.777 121.064 195.453 121.449 195.703C121.542 195.764 121.644 195.796 121.747 195.797Z" fill="#4D2710"/>
<path id="Vector_55" d="M89.6762 195.797C89.78 195.796 89.8824 195.764 89.9759 195.703C90.3643 195.452 90.539 194.776 90.3733 194.193L74.4495 138.19C74.2838 137.607 73.8378 137.338 73.452 137.589C73.0662 137.84 72.8882 138.515 73.0545 139.097L88.9784 195.106C89.0293 195.303 89.1233 195.475 89.2479 195.598C89.3726 195.721 89.5219 195.791 89.6762 195.797Z" fill="#4D2710"/>
<path id="Vector_56" d="M71.7333 195.797C71.8881 195.791 72.0379 195.721 72.1627 195.597C72.2874 195.473 72.3813 195.3 72.4318 195.102L88.3556 139.094C88.5213 138.512 88.3433 137.836 87.9582 137.585C87.573 137.334 87.1264 137.603 86.9607 138.186L71.0329 194.19C70.8672 194.773 71.0452 195.448 71.4304 195.699C71.5246 195.762 71.6282 195.796 71.7333 195.797Z" fill="#4D2710"/>
</g>
<path id="Vector_57" d="M63.5739 134.82C63.55 134.64 63.5533 134.455 63.5837 134.277C63.614 134.099 63.6708 133.931 63.7506 133.784C63.8248 133.645 63.922 133.531 64.0344 133.452C64.1468 133.373 64.2712 133.331 64.3979 133.328H149.403C149.571 133.332 149.734 133.396 149.877 133.512C150.02 133.629 150.138 133.795 150.219 133.993C150.307 134.202 150.359 134.435 150.37 134.674C150.381 134.914 150.352 135.154 150.284 135.376L149.363 138.349C149.152 139.03 148.695 139.466 148.192 139.466H64.9824C64.5144 139.466 64.1124 138.971 64.0237 138.286L63.5739 134.82Z" fill="url(#paint12_linear_132_4890)"/>
<path id="Vector_58" d="M62.8405 157.565C61.1238 157.291 59.3288 156.838 59.5735 156.21C60.5801 153.626 62.2333 141.309 62.8936 138.212C63.2981 136.317 63.0192 133.11 64.8038 133.102L148.691 132.733C152.416 132.717 151.072 146.025 151.628 149.487C152.048 152.107 152.162 157.417 152.93 159.062C150.6 161.642 147.089 159.841 144.424 158.777C142.128 157.861 135.148 158.163 134.035 158.624C127.014 161.533 119.572 162.058 112.365 160.153C109.73 159.452 107.128 158.43 104.463 158.06C102.887 157.842 101.28 157.859 99.7223 158.309C98.2529 158.733 96.9855 159.84 95.5478 160.292C92.2511 161.33 88.6261 161.432 85.3074 160.614C80.6959 159.482 76.2612 156.279 71.5947 156.632C69.6178 156.782 65.2873 157.859 64.8329 157.818C64.2924 157.766 63.5733 157.682 62.8405 157.565Z" fill="#E7E4D3"/>
</g>
<g id="Group_16">
<path id="Vector_59" d="M62.1174 129.216C62.2489 129.216 62.3804 129.216 62.5153 129.203L62.4137 127.532C61.2015 127.605 60.197 127.239 59.5124 126.472C58.7464 125.614 58.4317 124.295 58.671 122.943C58.7446 122.523 58.9278 121.803 59.3231 121.675C59.9235 121.486 61.1901 122.323 61.8755 123.001L63.0535 121.811C62.6608 121.422 60.6081 119.508 58.8156 120.079C57.8734 120.378 57.2695 121.244 57.0214 122.652C56.6892 124.532 57.1415 126.333 58.2626 127.587C59.2065 128.647 60.5642 129.216 62.1174 129.216Z" fill="url(#paint13_linear_132_4890)"/>
<path id="Vector_60" d="M62.1788 119.409H72.8852C73.0737 119.409 72.7976 119.545 72.7976 119.733V127.859C72.7976 129.471 71.9211 130.401 70.3083 130.401H64.7557C63.1429 130.401 61.5056 129.474 61.5056 127.859V119.733C61.5126 119.545 61.9903 119.409 62.1788 119.409Z" fill="url(#paint14_linear_132_4890)"/>
</g>
<g id="Group_17">
<path id="Vector_61" d="M141.779 130.156C141.648 130.156 141.516 130.156 141.381 130.143L141.483 128.471C142.695 128.544 143.7 128.18 144.384 127.412C145.15 126.554 145.465 125.234 145.226 123.882C145.152 123.463 144.969 122.743 144.573 122.615C143.973 122.426 142.706 123.262 142.021 123.941L140.843 122.751C141.236 122.361 143.288 120.448 145.081 121.019C146.023 121.318 146.627 122.183 146.875 123.591C147.207 125.472 146.755 127.272 145.634 128.527C144.693 129.585 143.332 130.155 141.779 130.156Z" fill="url(#paint15_linear_132_4890)"/>
<path id="Vector_62" d="M141.718 120.598H131.011C130.823 120.598 131.011 120.483 131.011 120.672V128.799C131.011 130.412 131.975 131.291 133.588 131.291H139.136C140.748 131.291 142.299 130.414 142.299 128.799V120.672C142.301 120.483 141.906 120.598 141.718 120.598Z" fill="url(#paint16_linear_132_4890)"/>
</g>
</g>
</g>
</g>
</g>
<defs>
<linearGradient id="paint0_linear_132_4890" x1="210.591" y1="146.822" x2="49.8777" y2="59.7515" gradientUnits="userSpaceOnUse">
<stop stop-color="#01A7C3"/>
<stop offset="1" stop-color="#0EB02B"/>
</linearGradient>
<linearGradient id="paint1_linear_132_4890" x1="30.8325" y1="152.236" x2="175.485" y2="151.601" gradientUnits="userSpaceOnUse">
<stop stop-color="#0EB029"/>
<stop offset="1" stop-color="#00A6C7"/>
</linearGradient>
<linearGradient id="paint2_linear_132_4890" x1="163.341" y1="119.903" x2="208.729" y2="119.812" gradientUnits="userSpaceOnUse">
<stop stop-color="#5E94FF"/>
<stop offset="1" stop-color="#43DBFA"/>
</linearGradient>
<linearGradient id="paint3_linear_132_4890" x1="138.927" y1="131.117" x2="125.131" y2="131.117" gradientUnits="userSpaceOnUse">
<stop stop-color="#FEBBBA"/>
<stop offset="1" stop-color="#FF928E"/>
</linearGradient>
<linearGradient id="paint4_linear_132_4890" x1="151.754" y1="83.3527" x2="169.18" y2="103.749" gradientUnits="userSpaceOnUse">
<stop stop-color="#FF928E"/>
<stop offset="1" stop-color="#FEB8B7"/>
</linearGradient>
<linearGradient id="paint5_linear_132_4890" x1="54.3017" y1="-349.15" x2="59.8486" y2="-326.087" gradientUnits="userSpaceOnUse">
<stop stop-color="#FFB3B0"/>
<stop offset="1" stop-color="#FEB8B6"/>
</linearGradient>
<linearGradient id="paint6_linear_132_4890" x1="49.2695" y1="110.735" x2="51.7728" y2="94.6729" gradientUnits="userSpaceOnUse">
<stop stop-color="#FEBBBA"/>
<stop offset="1" stop-color="#FF928E"/>
</linearGradient>
<linearGradient id="paint7_linear_132_4890" x1="61.8212" y1="87.5456" x2="42.976" y2="93.6417" gradientUnits="userSpaceOnUse">
<stop stop-color="#FEBBBA"/>
<stop offset="1" stop-color="#FF928E"/>
</linearGradient>
<linearGradient id="paint8_linear_132_4890" x1="61.2828" y1="85.8829" x2="42.4387" y2="91.9784" gradientUnits="userSpaceOnUse">
<stop stop-color="#FEBBBA"/>
<stop offset="1" stop-color="#FF928E"/>
</linearGradient>
<linearGradient id="paint9_linear_132_4890" x1="38.9902" y1="128.971" x2="4.15629" y2="128.971" gradientUnits="userSpaceOnUse">
<stop stop-color="#FEBBBA"/>
<stop offset="1" stop-color="#FF928E"/>
</linearGradient>
<linearGradient id="paint10_linear_132_4890" x1="71.2077" y1="163.843" x2="52.4147" y2="163.843" gradientUnits="userSpaceOnUse">
<stop stop-color="#FEBBBA"/>
<stop offset="1" stop-color="#FF928E"/>
</linearGradient>
<linearGradient id="paint11_linear_132_4890" x1="93.2753" y1="165.127" x2="53.6179" y2="165.127" gradientUnits="userSpaceOnUse">
<stop stop-color="#FEBBBA"/>
<stop offset="1" stop-color="#FF928E"/>
</linearGradient>
<linearGradient id="paint12_linear_132_4890" x1="150.37" y1="136.397" x2="63.559" y2="136.397" gradientUnits="userSpaceOnUse">
<stop stop-color="#9CFFFB"/>
<stop offset="1" stop-color="#9BFFFA"/>
</linearGradient>
<linearGradient id="paint13_linear_132_4890" x1="56.9145" y1="124.595" x2="63.0535" y2="124.595" gradientUnits="userSpaceOnUse">
<stop stop-color="#DAE3FE"/>
<stop offset="1" stop-color="#E9EFFD"/>
</linearGradient>
<linearGradient id="paint14_linear_132_4890" x1="61.5082" y1="124.904" x2="72.951" y2="124.904" gradientUnits="userSpaceOnUse">
<stop stop-color="#DAE3FE"/>
<stop offset="1" stop-color="#E9EFFD"/>
</linearGradient>
<linearGradient id="paint15_linear_132_4890" x1="140.843" y1="125.534" x2="146.982" y2="125.534" gradientUnits="userSpaceOnUse">
<stop stop-color="#DAE3FE"/>
<stop offset="1" stop-color="#E9EFFD"/>
</linearGradient>
<linearGradient id="paint16_linear_132_4890" x1="130.928" y1="125.927" x2="142.301" y2="125.927" gradientUnits="userSpaceOnUse">
<stop stop-color="#DAE3FE"/>
<stop offset="1" stop-color="#E9EFFD"/>
</linearGradient>
</defs>
</svg>
