<svg width="20" height="20" viewBox="0 0 20 20" fill="none" xmlns="http://www.w3.org/2000/svg">
<path fill-rule="evenodd" clip-rule="evenodd" d="M6.5 5.25C6.5 4.97386 6.27614 4.75 6 4.75C5.72386 4.75 5.5 4.97386 5.5 5.25V8.5H2.25C1.97386 8.5 1.75 8.72386 1.75 9C1.75 9.27614 1.97386 9.5 2.25 9.5H5.5V12.75C5.5 13.0261 5.72386 13.25 6 13.25C6.27614 13.25 6.5 13.0261 6.5 12.75V9.5H9.75C10.0261 9.5 10.25 9.27614 10.25 9C10.25 8.72386 10.0261 8.5 9.75 8.5H6.5V5.25Z" fill="url(#paint0_linear_1857_169321)"/>
<mask id="path-2-inside-1_1857_169321" fill="white">
<path fill-rule="evenodd" clip-rule="evenodd" d="M8.74826 17C13.4427 17 17.2483 13.1944 17.2483 8.5C17.2483 3.80558 13.4427 0 8.74826 0C5.30155 0 2.33399 2.05148 1 5H3.06542C4.24069 3.0958 6.34628 1.82675 8.74826 1.82675C12.4338 1.82675 15.4215 4.81447 15.4215 8.5C15.4215 12.1855 12.4338 15.1732 8.74826 15.1732C6.79668 15.1732 5.04076 14.3355 3.8205 13H1.53581C3.03774 15.4022 5.7064 17 8.74826 17Z"/>
</mask>
<path fill-rule="evenodd" clip-rule="evenodd" d="M8.74826 17C13.4427 17 17.2483 13.1944 17.2483 8.5C17.2483 3.80558 13.4427 0 8.74826 0C5.30155 0 2.33399 2.05148 1 5H3.06542C4.24069 3.0958 6.34628 1.82675 8.74826 1.82675C12.4338 1.82675 15.4215 4.81447 15.4215 8.5C15.4215 12.1855 12.4338 15.1732 8.74826 15.1732C6.79668 15.1732 5.04076 14.3355 3.8205 13H1.53581C3.03774 15.4022 5.7064 17 8.74826 17Z" fill="white" fill-opacity="0.56"/>
<path d="M1 5L0.0889075 4.5878L-0.550009 6H1V5ZM3.06542 5V6H3.62335L3.91639 5.52522L3.06542 5ZM3.8205 13L4.55875 12.3255L4.26137 12H3.8205V13ZM1.53581 13V12H-0.268802L0.687908 13.5301L1.53581 13ZM16.2483 8.5C16.2483 12.6421 12.8904 16 8.74826 16V18C13.995 18 18.2483 13.7467 18.2483 8.5H16.2483ZM8.74826 1C12.8904 1 16.2483 4.35786 16.2483 8.5H18.2483C18.2483 3.25329 13.995 -1 8.74826 -1V1ZM1.91109 5.4122C3.08913 2.80837 5.70858 1 8.74826 1V-1C4.89452 -1 1.57884 1.29458 0.0889075 4.5878L1.91109 5.4122ZM1 6H3.06542V4H1V6ZM8.74826 0.826754C5.9852 0.826754 3.56424 2.28784 2.21445 4.47478L3.91639 5.52522C4.91715 3.90377 6.70735 2.82675 8.74826 2.82675V0.826754ZM16.4215 8.5C16.4215 4.26218 12.9861 0.826754 8.74826 0.826754V2.82675C11.8815 2.82675 14.4215 5.36675 14.4215 8.5H16.4215ZM8.74826 16.1732C12.9861 16.1732 16.4215 12.7378 16.4215 8.5H14.4215C14.4215 11.6332 11.8815 14.1732 8.74826 14.1732V16.1732ZM3.08226 13.6745C4.484 15.2087 6.5042 16.1732 8.74826 16.1732V14.1732C7.08915 14.1732 5.59752 13.4623 4.55875 12.3255L3.08226 13.6745ZM3.8205 12H1.53581V14H3.8205V12ZM8.74826 16C6.06538 16 3.71057 14.592 2.38372 12.4699L0.687908 13.5301C2.36491 16.2123 5.34743 18 8.74826 18V16Z" fill="url(#paint1_linear_1857_169321)" mask="url(#path-2-inside-1_1857_169321)"/>
<line x1="14.4084" y1="14.872" x2="18.872" y2="18.5916" stroke="url(#paint2_linear_1857_169321)" stroke-width="2" stroke-linecap="round"/>
<defs>
<linearGradient id="paint0_linear_1857_169321" x1="1.75" y1="13.25" x2="9.62234" y2="13.7962" gradientUnits="userSpaceOnUse">
<stop stop-color="#1DD13B"/>
<stop offset="1" stop-color="#27C6E5"/>
</linearGradient>
<linearGradient id="paint1_linear_1857_169321" x1="1" y1="17" x2="16.0545" y2="17.9983" gradientUnits="userSpaceOnUse">
<stop stop-color="#1DD13B"/>
<stop offset="1" stop-color="#27C6E5"/>
</linearGradient>
<linearGradient id="paint2_linear_1857_169321" x1="12.3598" y1="15.7682" x2="14.7269" y2="21.704" gradientUnits="userSpaceOnUse">
<stop stop-color="#1DD13B"/>
<stop offset="1" stop-color="#27C6E5"/>
</linearGradient>
</defs>
</svg>
