<svg width="24" height="25" viewBox="0 0 24 25" fill="none" xmlns="http://www.w3.org/2000/svg">
<g id="Action">
<path id="Shape" fill-rule="evenodd" clip-rule="evenodd" d="M15.7416 5.33034C18.8157 7.92973 19.3848 12.4512 17.0508 15.7313L20.6897 19.3702C21.1282 19.8822 21.0987 20.6454 20.622 21.122C20.1454 21.5987 19.3822 21.6282 18.8702 21.1897L15.2313 17.5508C11.9512 19.8848 7.42973 19.3157 4.83034 16.2416C2.23095 13.1676 2.42109 8.61437 5.26773 5.76773C8.11437 2.92109 12.6676 2.73095 15.7416 5.33034ZM9.40645 6.27149C7.1505 6.87515 5.58091 8.9183 5.57907 11.2536C5.57743 13.3425 6.83504 15.2265 8.76487 16.0262C10.6947 16.8258 12.9162 16.3834 14.3925 14.9054C16.0429 13.2532 16.3784 10.6987 15.2105 8.67638C14.0426 6.65407 11.6624 5.66783 9.40645 6.27149Z" fill="url(#paint0_linear_82_7881)"/>
</g>
<defs>
<linearGradient id="paint0_linear_82_7881" x1="3" y1="21.5" x2="21.0528" y2="21.4468" gradientUnits="userSpaceOnUse">
<stop stop-color="#0EB029"/>
<stop offset="1" stop-color="#00A6C7"/>
</linearGradient>
</defs>
</svg>
