<svg width="19" height="20" viewBox="0 0 19 20" fill="none" xmlns="http://www.w3.org/2000/svg">
<mask id="path-1-inside-1_1857_167411" fill="white">
<path fill-rule="evenodd" clip-rule="evenodd" d="M7.15191 17C11.8463 17 15.6519 13.1944 15.6519 8.5C15.6519 3.80558 11.8463 0 7.15191 0C4.24743 0 1.6832 1.45678 0.150023 3.67954C-0.254175 4.26553 0.210523 5 0.922396 5V5C1.26219 5 1.57343 4.82063 1.77492 4.54702C2.98985 2.8972 4.94587 1.82675 7.15191 1.82675C10.8374 1.82675 13.8252 4.81447 13.8252 8.5C13.8252 12.1855 10.8374 15.1732 7.15191 15.1732C5.36166 15.1732 3.73606 14.4683 2.53757 13.3208C2.33115 13.1232 2.06137 13 1.77559 13V13C0.976364 13 0.513804 13.8689 1.07241 14.4405C2.61575 16.0197 4.76936 17 7.15191 17Z"/>
</mask>
<path fill-rule="evenodd" clip-rule="evenodd" d="M7.15191 17C11.8463 17 15.6519 13.1944 15.6519 8.5C15.6519 3.80558 11.8463 0 7.15191 0C4.24743 0 1.6832 1.45678 0.150023 3.67954C-0.254175 4.26553 0.210523 5 0.922396 5V5C1.26219 5 1.57343 4.82063 1.77492 4.54702C2.98985 2.8972 4.94587 1.82675 7.15191 1.82675C10.8374 1.82675 13.8252 4.81447 13.8252 8.5C13.8252 12.1855 10.8374 15.1732 7.15191 15.1732C5.36166 15.1732 3.73606 14.4683 2.53757 13.3208C2.33115 13.1232 2.06137 13 1.77559 13V13C0.976364 13 0.513804 13.8689 1.07241 14.4405C2.61575 16.0197 4.76936 17 7.15191 17Z" fill="white" fill-opacity="0.56"/>
<path d="M1.77492 4.54702L0.969698 3.95405L1.77492 4.54702ZM2.53757 13.3208L1.846 14.0431L2.53757 13.3208ZM14.6519 8.5C14.6519 12.6421 11.294 16 7.15191 16V18C12.3986 18 16.6519 13.7467 16.6519 8.5H14.6519ZM7.15191 1C11.294 1 14.6519 4.35786 14.6519 8.5H16.6519C16.6519 3.25329 12.3986 -1 7.15191 -1V1ZM0.973194 4.24733C2.3277 2.28361 4.59001 1 7.15191 1V-1C3.90485 -1 1.0387 0.629954 -0.673149 3.11174L0.973194 4.24733ZM7.15191 0.826754C4.61459 0.826754 2.36498 2.05932 0.969698 3.95405L2.58015 5.13998C3.61472 3.73509 5.27715 2.82675 7.15191 2.82675V0.826754ZM14.8252 8.5C14.8252 4.26218 11.3897 0.826754 7.15191 0.826754V2.82675C10.2852 2.82675 12.8252 5.36675 12.8252 8.5H14.8252ZM7.15191 16.1732C11.3897 16.1732 14.8252 12.7378 14.8252 8.5H12.8252C12.8252 11.6332 10.2852 14.1732 7.15191 14.1732V16.1732ZM1.846 14.0431C3.22315 15.3616 5.0938 16.1732 7.15191 16.1732V14.1732C5.62951 14.1732 4.24896 13.5749 3.22913 12.5985L1.846 14.0431ZM7.15191 16C5.04946 16 3.15054 15.1362 1.7876 13.7416L0.35723 15.1395C2.08096 16.9033 4.48925 18 7.15191 18V16ZM1.77559 12C0.99927 12 0.338189 12.4291 0.0220976 13.0553C-0.305968 13.7052 -0.236673 14.5317 0.35723 15.1395L1.7876 13.7416C1.7867 13.7407 1.79456 13.7486 1.8038 13.7671C1.81306 13.7856 1.82083 13.809 1.82454 13.8354C1.8321 13.8893 1.81999 13.9318 1.80753 13.9565C1.78287 14.0054 1.75269 14 1.77559 14V12ZM0.922396 6C1.62311 6 2.21728 5.63274 2.58015 5.13998L0.969698 3.95405C0.951976 3.97811 0.933918 3.99156 0.923086 3.99745C0.913627 4.00259 0.913937 4 0.922396 4V6ZM3.22913 12.5985C2.86282 12.2478 2.35323 12 1.77559 12V14C1.7695 14 1.79948 13.9986 1.846 14.0431L3.22913 12.5985ZM-0.673149 3.11174C-1.11311 3.74958 -1.08235 4.50501 -0.739053 5.07527C-0.405162 5.62991 0.212555 6 0.922396 6V4C0.920364 4 0.949796 4.00286 0.974419 4.04376C0.987195 4.06498 1.00064 4.10046 0.999977 4.1473C0.999249 4.19844 0.98199 4.23458 0.973194 4.24733L-0.673149 3.11174Z" fill="url(#paint0_linear_1857_167411)" mask="url(#path-1-inside-1_1857_167411)"/>
<line x1="12.8127" y1="14.872" x2="17.2763" y2="18.5916" stroke="url(#paint1_linear_1857_167411)" stroke-width="2" stroke-linecap="round"/>
<line x1="2.3043" y1="9.1" x2="9.5043" y2="9.1" stroke="url(#paint2_linear_1857_167411)" stroke-width="1.8" stroke-linecap="round"/>
<defs>
<linearGradient id="paint0_linear_1857_167411" x1="-1.16616e-07" y1="17" x2="14.5067" y2="17.9267" gradientUnits="userSpaceOnUse">
<stop stop-color="#1DD13B"/>
<stop offset="1" stop-color="#27C6E5"/>
</linearGradient>
<linearGradient id="paint1_linear_1857_167411" x1="10.7641" y1="15.7682" x2="13.1311" y2="21.704" gradientUnits="userSpaceOnUse">
<stop stop-color="#1DD13B"/>
<stop offset="1" stop-color="#27C6E5"/>
</linearGradient>
<linearGradient id="paint2_linear_1857_167411" x1="1.4043" y1="11" x2="7.43009" y2="14.7629" gradientUnits="userSpaceOnUse">
<stop stop-color="#1DD13B"/>
<stop offset="1" stop-color="#27C6E5"/>
</linearGradient>
</defs>
</svg>
