<svg width="64" height="63" viewBox="0 0 64 63" fill="none" xmlns="http://www.w3.org/2000/svg">
<path fill-rule="evenodd" clip-rule="evenodd" d="M59.3399 31.5592C59.3399 46.4898 47.1407 58.6426 32.0313 58.6426C16.9219 58.6426 4.72266 46.4898 4.72266 31.5592C4.72266 16.6287 16.9219 4.47583 32.0313 4.47583C47.1407 4.47583 59.3399 16.6287 59.3399 31.5592ZM63.3399 31.5592C63.3399 48.7261 49.3225 62.6426 32.0313 62.6426C14.74 62.6426 0.722656 48.7261 0.722656 31.5592C0.722656 14.3923 14.74 0.47583 32.0313 0.47583C49.3225 0.47583 63.3399 14.3923 63.3399 31.5592ZM34.5085 19.3965C34.5085 17.7143 33.484 16.2714 32.0249 15.6577C32.3751 15.5178 32.7572 15.4409 33.1573 15.4409C34.8442 15.4409 36.2117 16.8083 36.2117 18.4952C36.2117 19.9065 35.2545 21.0942 33.954 21.4446C34.3064 20.8436 34.5085 20.1437 34.5085 19.3965ZM33.1573 14.4409C32.19 14.4409 31.3018 14.7796 30.6049 15.3449C30.5549 15.3431 30.5047 15.3422 30.4542 15.3422C28.215 15.3422 26.3998 17.1574 26.3998 19.3965C26.3998 21.6357 28.215 23.4509 30.4542 23.4509C31.4215 23.4509 32.3097 23.1122 33.0066 22.5468C33.0566 22.5486 33.1068 22.5496 33.1573 22.5496C35.3965 22.5496 37.2117 20.7344 37.2117 18.4952C37.2117 16.2561 35.3965 14.4409 33.1573 14.4409ZM36.2117 44.1734V29.758C36.2117 28.0711 34.8442 26.7036 33.1573 26.7036C32.7578 26.7036 32.3762 26.7803 32.0264 26.9198C33.4847 27.5339 34.5085 28.9764 34.5085 30.658V45.0735C34.5085 45.8212 34.3061 46.5217 33.9531 47.1231C35.2541 46.773 36.2117 45.585 36.2117 44.1734ZM30.6064 26.6065C30.5559 26.6046 30.5052 26.6037 30.4542 26.6037C28.215 26.6037 26.3998 28.4189 26.3998 30.658V45.0735C26.3998 47.3127 28.215 49.1279 30.4542 49.1279C31.4208 49.1279 32.3084 48.7896 33.0051 48.225C33.0556 48.2269 33.1063 48.2278 33.1573 48.2278C35.3965 48.2278 37.2117 46.4126 37.2117 44.1734V29.758C37.2117 27.5188 35.3965 25.7036 33.1573 25.7036C32.1907 25.7036 31.3031 26.0419 30.6064 26.6065Z" fill="url(#paint0_linear_294_31615)"/>
<defs>
<linearGradient id="paint0_linear_294_31615" x1="0.722656" y1="62.6426" x2="58.712" y2="66.6953" gradientUnits="userSpaceOnUse">
<stop stop-color="#1DD13B"/>
<stop offset="1" stop-color="#27C6E5"/>
</linearGradient>
</defs>
</svg>
