<svg width="24" height="24" fill="none" xmlns="http://www.w3.org/2000/svg"><path d="M5.79 2.39A1 1 0 1 0 4.2 3.6L9 9.77V11a3 3 0 0 0 3.28 2.99l1.35 1.74a5.02 5.02 0 0 1-6.56-3.88 1 1 0 0 0-.98-.85 1 1 0 0 0-1 1.14A7 7 0 0 0 11 17.92V20a1 1 0 0 0 1 1 1 1 0 0 0 1-1v-2.08c.67-.1 1.31-.29 1.9-.56l3.31 4.25a1 1 0 0 0 1.58-1.22l-14-18Z" fill="url(#a)"/><path d="m16.28 13.59 1.29 1.65a6.94 6.94 0 0 0 1.34-3.1 1 1 0 0 0-1.98-.29c-.1.63-.33 1.21-.65 1.74Z" fill="url(#b)"/><path d="m9.08 4.33 5.81 7.47c.07-.25.11-.52.11-.8V5a3 3 0 0 0-5.92-.67Z" fill="url(#c)"/><defs><linearGradient id="a" x1="4" y1="22" x2="18.84" y2="22.82" gradientUnits="userSpaceOnUse"><stop stop-color="#1DD13B"/><stop offset="1" stop-color="#27C6E5"/></linearGradient><linearGradient id="b" x1="4" y1="22" x2="18.84" y2="22.82" gradientUnits="userSpaceOnUse"><stop stop-color="#1DD13B"/><stop offset="1" stop-color="#27C6E5"/></linearGradient><linearGradient id="c" x1="4" y1="22" x2="18.84" y2="22.82" gradientUnits="userSpaceOnUse"><stop stop-color="#1DD13B"/><stop offset="1" stop-color="#27C6E5"/></linearGradient></defs></svg>