<svg width="24" height="24" fill="none" xmlns="http://www.w3.org/2000/svg"><path fill-rule="evenodd" clip-rule="evenodd" d="M12 14a3 3 0 0 0 3-3V5a3 3 0 1 0-6 0v6a3 3 0 0 0 3 3Zm5.9-3a1 1 0 0 0-.97.85 5.02 5.02 0 0 1-9.86 0 1 1 0 0 0-.98-.85 1 1 0 0 0-1 1.14 7 7 0 0 0 5.9 5.78V20a1 1 0 0 0 1 1 1 1 0 0 0 1-1v-2.08a7 7 0 0 0 5.92-5.78 1 1 0 0 0-1-1.14Z" fill="url(#a)"/><defs><linearGradient id="a" x1="5.08" y1="21" x2="17.93" y2="21.65" gradientUnits="userSpaceOnUse"><stop stop-color="#1DD13B"/><stop offset="1" stop-color="#27C6E5"/></linearGradient></defs></svg>