<svg width="24" height="24" viewBox="4 4 28 28" fill="none" xmlns="http://www.w3.org/2000/svg">
<path fill-rule="evenodd" clip-rule="evenodd" d="M20.238 6C20.8154 6 21.2834 6.46807 21.2834 7.04545V8.20486C21.2834 8.67443 21.5332 9.11808 21.9909 9.4304L22.1344 9.52005L22.3114 9.61285C22.7773 9.82822 23.2789 9.82039 23.6794 9.59063L24.6955 9.00518C25.1949 8.71745 25.833 8.88819 26.122 9.38689L28.8589 14.1103C29.1489 14.6107 28.9774 15.2516 28.4762 15.5403L27.4715 16.1191C27.0248 16.3757 26.755 16.8833 26.7563 17.4843L26.7626 17.6789C26.8055 18.2069 27.0655 18.6477 27.4726 18.8816L28.4762 19.4597C28.9774 19.7484 29.1489 20.3893 28.8589 20.8897L26.122 25.6131C25.833 26.1118 25.1949 26.2826 24.6955 25.9948L23.6811 25.4103C23.2344 25.1541 22.6646 25.1728 22.1627 25.4642L21.9633 25.5861C21.5332 25.8819 21.2834 26.3256 21.2834 26.7951V27.9545C21.2834 28.5319 20.8154 29 20.238 29H14.763C14.1857 29 13.7176 28.5319 13.7176 27.9545V26.7951C13.7176 26.3256 13.4679 25.8819 13.0101 25.5696L12.8666 25.48L12.6897 25.3871C12.2237 25.1718 11.7222 25.1796 11.3217 25.4094L10.3055 25.9948C9.80616 26.2825 9.16817 26.1118 8.87916 25.6133L6.14115 20.8899C5.85094 20.3892 6.02263 19.7481 6.52419 19.4595L7.52958 18.8809C7.97625 18.6243 8.24608 18.1167 8.24473 17.5157L8.23845 17.3211C8.19555 16.7931 7.93558 16.3523 7.52886 16.1187L6.52419 15.5405C6.02263 15.2519 5.85094 14.6108 6.14115 14.1101L8.87916 9.38674C9.16817 8.88815 9.80616 8.71748 10.3055 9.00518L11.32 9.58967C11.7667 9.84591 12.3364 9.82723 12.8384 9.5358L13.0378 9.4139C13.4679 9.11808 13.7176 8.67443 13.7176 8.20486V7.04545C13.7176 6.46807 14.1857 6 14.763 6H20.238ZM15.8103 8.09066V8.20462C15.8103 9.42211 15.1677 10.5254 14.1682 11.1762L13.9471 11.3108L13.6929 11.4505C12.6023 12.0017 11.332 12.0058 10.2797 11.4021L10.167 11.3372L8.47789 14.2511L8.57283 14.3057C9.69581 14.9508 10.3404 16.1635 10.3375 17.4841L10.3313 17.7453C10.2629 18.9767 9.62979 20.0866 8.57355 20.6933L8.47789 20.7484L10.167 23.6623L10.2814 23.5964C11.3976 22.9561 12.7615 23.0007 13.8998 23.6614L14.1375 23.805C15.1677 24.4741 15.8103 25.5774 15.8103 26.7949V26.9088H19.1944V26.7949C19.1944 25.5774 19.837 24.4741 20.8366 23.8233L21.0576 23.6887L21.3118 23.549C22.4024 22.9979 23.6727 22.9937 24.725 23.5974L24.8376 23.6622L26.5262 20.7481L26.4319 20.6938C25.3089 20.0487 24.6643 18.836 24.6673 17.5154L24.6734 17.2542C24.7418 16.0228 25.3749 14.9129 26.4308 14.3064L26.5262 14.2514L24.8376 11.3373L24.7233 11.4031C23.6072 12.0434 22.2433 11.9988 21.105 11.3381L20.8673 11.1945C19.837 10.5254 19.1944 9.42211 19.1944 8.20462V8.09066H15.8103ZM17.4982 13.3179C19.8078 13.3179 21.6799 15.19 21.6799 17.4997C21.6799 19.8094 19.8078 21.6815 17.4982 21.6815C15.1885 21.6815 13.3164 19.8094 13.3164 17.4997C13.3164 15.19 15.1885 13.3179 17.4982 13.3179ZM17.497 15.4085C16.3421 15.4085 15.4062 16.3445 15.4062 17.4994C15.4062 18.6544 16.3421 19.5904 17.497 19.5904C18.652 19.5904 19.5879 18.6544 19.5879 17.4994C19.5879 16.3445 18.652 15.4085 17.497 15.4085Z" fill="url(#paint0_linear_3342_260149)"/>
<defs>
<linearGradient id="paint0_linear_3342_260149" x1="6" y1="29" x2="27.3016" y2="30.478" gradientUnits="userSpaceOnUse">
<stop stop-color="#1DD13B"/>
<stop offset="1" stop-color="#27C6E5"/>
</linearGradient>
</defs>
</svg>
