<svg width="24" height="25" viewBox="0 0 24 25" fill="none" xmlns="http://www.w3.org/2000/svg">
<path d="M10.502 17.902C10.502 17.53 10.598 17.224 10.79 16.984C10.982 16.732 11.33 16.606 11.834 16.606C12.326 16.606 12.674 16.732 12.878 16.984C13.082 17.224 13.184 17.53 13.184 17.902C13.184 18.274 13.082 18.586 12.878 18.838C12.686 19.078 12.338 19.198 11.834 19.198C11.342 19.198 10.994 19.072 10.79 18.82C10.598 18.568 10.502 18.262 10.502 17.902ZM10.826 6.4H12.842L12.77 14.77H10.88L10.826 6.4Z" fill="#E83737"/>
<circle cx="12" cy="12" r="11" stroke="#E83737" stroke-width="2"/>
</svg>
