<svg width="26" height="26" viewBox="0 0 26 26" fill="none" xmlns="http://www.w3.org/2000/svg">
<path d="M11.3874 13.6094C11.0568 13.167 10.4302 13.0764 9.98779 13.407C9.54538 13.7376 9.45473 14.3642 9.78533 14.8066L11.3874 13.6094ZM19.6857 14.8604L18.9783 14.1536L18.9781 14.1537L19.6857 14.8604ZM23.3062 11.2363L24.0136 11.943C24.0177 11.9389 24.0218 11.9348 24.0258 11.9306L23.3062 11.2363ZM14.774 2.69554L14.0789 1.9766C14.0755 1.97995 14.072 1.98333 14.0686 1.98673L14.774 2.69554ZM11.9929 4.05245C11.6014 4.44203 11.5999 5.0752 11.9895 5.46666C12.3791 5.85813 13.0122 5.85965 13.4037 5.47007L11.9929 4.05245ZM14.6126 12.3906C14.9432 12.833 15.5698 12.9236 16.0122 12.593C16.4546 12.2624 16.5453 11.6358 16.2147 11.1934L14.6126 12.3906ZM6.31426 11.1396L7.02173 11.8464L7.02185 11.8463L6.31426 11.1396ZM2.69383 14.7637L1.98637 14.057C1.98227 14.0611 1.97822 14.0652 1.97419 14.0694L2.69383 14.7637ZM11.226 23.3045L11.9211 24.0234C11.9252 24.0194 11.9294 24.0153 11.9334 24.0112L11.226 23.3045ZM13.9971 21.9455C14.3874 21.5548 14.3871 20.9216 13.9964 20.5313C13.6057 20.1409 12.9725 20.1413 12.5822 20.532L13.9971 21.9455ZM9.78533 14.8066C10.3894 15.615 11.1602 16.284 12.0454 16.7681L13.005 15.0134C12.3716 14.6669 11.8199 14.1882 11.3874 13.6094L9.78533 14.8066ZM12.0454 16.7681C12.9306 17.2522 13.9095 17.5401 14.9157 17.6123L15.0587 15.6174C14.3388 15.5658 13.6384 15.3598 13.005 15.0134L12.0454 16.7681ZM14.9157 17.6123C15.9219 17.6844 16.9318 17.5391 17.877 17.1861L17.1774 15.3125C16.5011 15.565 15.7786 15.669 15.0587 15.6174L14.9157 17.6123ZM17.877 17.1861C18.8221 16.8332 19.6803 16.281 20.3933 15.567L18.9781 14.1537C18.4678 14.6648 17.8536 15.06 17.1774 15.3125L17.877 17.1861ZM20.3932 15.5671L24.0136 11.943L22.5987 10.5295L18.9783 14.1536L20.3932 15.5671ZM24.0258 11.9306C25.307 10.6028 26.0158 8.82455 25.9997 6.97897L23.9998 6.99633C24.0113 8.31815 23.5036 9.59142 22.5865 10.5419L24.0258 11.9306ZM25.9997 6.97897C25.9837 5.13339 25.2442 3.36774 23.9401 2.06236L22.5252 3.47586C23.4587 4.41027 23.9883 5.6745 23.9998 6.99633L25.9997 6.97897ZM23.9401 2.06236C22.636 0.756956 20.8717 0.0163116 19.0271 0.000266135L19.0097 2.00019C20.3293 2.01167 21.5918 2.54149 22.5252 3.47586L23.9401 2.06236ZM19.0271 0.000266135C17.1824 -0.0157793 15.4055 0.694063 14.0789 1.9766L15.4691 3.41448C16.4186 2.49649 17.6901 1.98871 19.0097 2.00019L19.0271 0.000266135ZM14.0686 1.98673L11.9929 4.05245L13.4037 5.47007L15.4794 3.40435L14.0686 1.98673ZM16.2147 11.1934C15.6106 10.385 14.8398 9.71601 13.9546 9.2319L12.995 10.9866C13.6284 11.3331 14.1801 11.8118 14.6126 12.3906L16.2147 11.1934ZM13.9546 9.2319C13.0694 8.74779 12.0905 8.45988 11.0843 8.38774L10.9413 10.3826C11.6612 10.4342 12.3616 10.6402 12.995 10.9866L13.9546 9.2319ZM11.0843 8.38774C10.0781 8.3156 9.06815 8.46094 8.12302 8.81385L8.82264 10.6875C9.49889 10.435 10.2214 10.331 10.9413 10.3826L11.0843 8.38774ZM8.12302 8.81385C7.17789 9.16677 6.31972 9.719 5.60667 10.433L7.02185 11.8463C7.53224 11.3352 8.1464 10.94 8.82264 10.6875L8.12302 8.81385ZM5.6068 10.4329L1.98637 14.057L3.40129 15.4705L7.02173 11.8464L5.6068 10.4329ZM1.97419 14.0694C0.693002 15.3972 -0.0157557 17.1755 0.000265777 19.021L2.00019 19.0037C1.98872 17.6818 2.49636 16.4086 3.41347 15.4581L1.97419 14.0694ZM0.000265777 19.021C0.0162873 20.8666 0.75581 22.6323 2.05987 23.9376L3.4748 22.5241C2.54133 21.5897 2.01167 20.3255 2.00019 19.0037L0.000265777 19.021ZM2.05987 23.9376C3.36397 25.243 5.1283 25.9837 6.97292 25.9997L6.99032 23.9998C5.67073 23.9883 4.40823 23.4585 3.4748 22.5241L2.05987 23.9376ZM6.97292 25.9997C8.81755 26.0158 10.5945 25.3059 11.9211 24.0234L10.5309 22.5855C9.58141 23.5035 8.30991 24.0113 6.99032 23.9998L6.97292 25.9997ZM11.9334 24.0112L13.9971 21.9455L12.5822 20.532L10.5185 22.5977L11.9334 24.0112Z" fill="#D14D00"/>
</svg>
