<svg width="19" height="22" viewBox="0 0 19 22" fill="none" xmlns="http://www.w3.org/2000/svg">
<path fill-rule="evenodd" clip-rule="evenodd" d="M9.5 12.4688C6.32937 12.4688 0 14.06 0 17.2188V19.5938C0 20.9054 1.06332 21.9688 2.375 21.9688H16.625C17.9367 21.9688 19 20.9054 19 19.5938V17.2188C19 14.06 12.6706 12.4688 9.5 12.4688Z" fill="url(#paint0_linear_1030_66004)"/>
<path fill-rule="evenodd" clip-rule="evenodd" d="M9.5 10.0938C7.0406 10.0938 5.04688 8.08509 5.04688 5.60708V4.48667C5.04688 2.00866 7.0406 0 9.5 0C11.9594 0 13.9531 2.00866 13.9531 4.48667V5.60708C13.9531 8.08509 11.9594 10.0938 9.5 10.0938Z" fill="url(#paint1_linear_1030_66004)"/>
<defs>
<linearGradient id="paint0_linear_1030_66004" x1="-1.41561e-07" y1="21.9688" x2="17.3476" y2="24.3761" gradientUnits="userSpaceOnUse">
<stop stop-color="#1DD13B"/>
<stop offset="1" stop-color="#27C6E5"/>
</linearGradient>
<linearGradient id="paint1_linear_1030_66004" x1="5.04687" y1="10.0938" x2="13.3042" y2="10.5993" gradientUnits="userSpaceOnUse">
<stop stop-color="#1DD13B"/>
<stop offset="1" stop-color="#27C6E5"/>
</linearGradient>
</defs>
</svg>
