<svg width="22" height="22" viewBox="0 0 22 22" fill="none" xmlns="http://www.w3.org/2000/svg">
<path fill-rule="evenodd" clip-rule="evenodd" d="M11 2.75C10.4937 2.75 10.0833 3.16041 10.0833 3.66667V10.0833H3.66667C3.16041 10.0833 2.75 10.4937 2.75 11C2.75 11.5063 3.16041 11.9167 3.66667 11.9167H10.0833V18.3333C10.0833 18.8396 10.4937 19.25 11 19.25C11.5063 19.25 11.9167 18.8396 11.9167 18.3333V11.9167H18.3333C18.8396 11.9167 19.25 11.5063 19.25 11C19.25 10.4937 18.8396 10.0833 18.3333 10.0833H11.9167V3.66667C11.9167 3.16041 11.5063 2.75 11 2.75Z" fill="url(#paint0_linear_642_136851)"/>
<defs>
<linearGradient id="paint0_linear_642_136851" x1="2.75" y1="19.25" x2="18.0316" y2="20.3103" gradientUnits="userSpaceOnUse">
<stop stop-color="#1DD13B"/>
<stop offset="1" stop-color="#27C6E5"/>
</linearGradient>
</defs>
</svg>
