<svg width="24" height="24" viewBox="0 0 24 24" fill="none" xmlns="http://www.w3.org/2000/svg">
<path d="M10.865 13.49C10.865 13.07 10.94 12.72 11.09 12.44C11.25 12.16 11.445 11.92 11.675 11.72C11.915 11.52 12.17 11.345 12.44 11.195C12.72 11.035 12.975 10.87 13.205 10.7C13.445 10.53 13.64 10.335 13.79 10.115C13.95 9.885 14.03 9.6 14.03 9.26C14.03 8.83 13.855 8.485 13.505 8.225C13.165 7.955 12.645 7.82 11.945 7.82C11.405 7.82 10.945 7.88 10.565 8C10.185 8.12 9.835 8.28 9.515 8.48V6.785C9.805 6.665 10.17 6.565 10.61 6.485C11.06 6.405 11.565 6.365 12.125 6.365C13.255 6.365 14.125 6.585 14.735 7.025C15.355 7.455 15.665 8.16 15.665 9.14C15.665 9.62 15.58 10.025 15.41 10.355C15.25 10.675 15.045 10.95 14.795 11.18C14.555 11.41 14.29 11.61 14 11.78C13.72 11.94 13.455 12.105 13.205 12.275C12.965 12.435 12.76 12.61 12.59 12.8C12.43 12.99 12.35 13.22 12.35 13.49H10.865ZM10.49 16.085C10.49 15.775 10.57 15.52 10.73 15.32C10.9 15.11 11.19 15.005 11.6 15.005C12.01 15.005 12.3 15.11 12.47 15.32C12.64 15.52 12.725 15.775 12.725 16.085C12.725 16.395 12.64 16.655 12.47 16.865C12.31 17.065 12.02 17.165 11.6 17.165C11.2 17.165 10.915 17.06 10.745 16.85C10.575 16.64 10.49 16.385 10.49 16.085Z" fill="#EEE628"/>
<circle cx="12" cy="12" r="11" stroke="#EEE628" stroke-width="2"/>
</svg>
