<svg width="100" height="100" viewBox="0 0 100 100" fill="none" xmlns="http://www.w3.org/2000/svg">
<path d="M47.619 28.5714C47.619 27.2565 48.685 26.1905 50 26.1905C51.315 26.1905 52.381 27.2565 52.381 28.5714V57.1429C52.381 58.4578 51.315 59.5238 50 59.5238C48.685 59.5238 47.619 58.4578 47.619 57.1429V28.5714Z" fill="#E83737"/>
<path d="M46.4286 67.8571C46.4286 65.8847 48.0276 64.2857 50 64.2857C51.9724 64.2857 53.5714 65.8847 53.5714 67.8571C53.5714 69.8296 51.9724 71.4286 50 71.4286C48.0276 71.4286 46.4286 69.8296 46.4286 67.8571Z" fill="#E83737"/>
<path fill-rule="evenodd" clip-rule="evenodd" d="M50 95.2381C74.9843 95.2381 95.2381 74.9843 95.2381 50C95.2381 25.0157 74.9843 4.7619 50 4.7619C25.0157 4.7619 4.7619 25.0157 4.7619 50C4.7619 74.9843 25.0157 95.2381 50 95.2381ZM50 100C77.6142 100 100 77.6142 100 50C100 22.3858 77.6142 0 50 0C22.3858 0 0 22.3858 0 50C0 77.6142 22.3858 100 50 100Z" fill="#E83737"/>
</svg>
