<svg width="161" height="161" viewBox="0 0 161 161" fill="none" xmlns="http://www.w3.org/2000/svg">
<g id="Mask group">
<mask id="mask0_1456_20146" style="mask-type:luminance" maskUnits="userSpaceOnUse" x="0" y="0" width="161" height="161">
<g id="Group">
<g id="Group_2">
<g id="Group_3">
<g id="Group_4">
<g id="Group_5">
<path id="Vector" d="M77.28 2.21375V0H73.0537C72.4416 0 71.9196 0.215933 71.4878 0.6478C71.056 1.07967 70.84 1.60163 70.84 2.21375V6.44H77.28V2.21375Z" fill="white"/>
</g>
</g>
</g>
<g id="Group_6">
<g id="Group_7">
<path id="Vector_2" d="M77.2797 6.44L83.7197 3.22L77.2797 0V6.44Z" fill="white"/>
</g>
</g>
<g id="Group_8">
<g id="Group_9">
<path id="Vector_3" d="M109.48 3.21994H109.48L106.26 0L103.04 3.21994H103.04V3.22H103.04L106.26 6.43994L109.48 3.22H109.48H109.48L109.48 3.21994Z" fill="white"/>
</g>
</g>
<g id="Group_10">
<g id="Group_11">
<path id="Vector_4" d="M64.4 12.8804L61.18 6.44043L57.96 12.8804H64.4Z" fill="white"/>
</g>
</g>
<g id="Group_12">
<g id="Group_13">
<path id="Vector_5" d="M70.84 6.44043L74.06 12.8804L77.28 6.44043H70.84Z" fill="white"/>
</g>
</g>
<g id="Group_14">
<g id="Group_15">
<path id="Vector_6" d="M103.04 9.66037H103.04L99.8197 6.44043L96.5998 9.66037H96.5997V9.66043H96.5998L99.8197 12.8804L103.04 9.66043H103.04H103.04L103.04 9.66037Z" fill="white"/>
</g>
</g>
<g id="Group_16">
<g id="Group_17">
<g id="Group_18">
<path id="Vector_7" d="M57.96 15.0936V12.8799H53.7338C53.1216 12.8799 52.5996 13.0958 52.1678 13.5277C51.736 13.9595 51.52 14.4815 51.52 15.0936V19.3199H57.96V15.0936Z" fill="white"/>
</g>
</g>
</g>
<g id="Group_19">
<g id="Group_20">
<path id="Vector_8" d="M64.4 12.8799H57.96V19.3199H64.4V12.8799Z" fill="white"/>
</g>
</g>
<g id="Group_21">
<g id="Group_22">
<g id="Group_23">
<path id="Vector_9" d="M70.8397 15.0936C70.8397 14.4815 70.6237 13.9595 70.1919 13.5277C69.7601 13.0959 69.2381 12.8799 68.6259 12.8799H64.3997V19.3199H70.8397V15.0936Z" fill="white"/>
</g>
</g>
</g>
<g id="Group_24">
<g id="Group_25">
<path id="Vector_10" d="M96.6 19.3199L93.38 12.8799L90.16 19.3199H96.6Z" fill="white"/>
</g>
</g>
<g id="Group_26">
<g id="Group_27">
<path id="Vector_11" d="M57.96 19.3203H51.52V25.7603H57.96V19.3203Z" fill="white"/>
</g>
</g>
<g id="Group_28">
<g id="Group_29">
<g id="Group_30">
<path id="Vector_12" d="M70.8397 19.3203H64.3997V23.5466C64.3997 24.1587 64.6156 24.6807 65.0475 25.1125C65.4794 25.5443 66.0013 25.7603 66.6134 25.7603H70.8397V19.3203Z" fill="white"/>
</g>
</g>
</g>
<g id="Group_31">
<g id="Group_32">
<path id="Vector_13" d="M77.28 19.3203H70.84V25.7603H77.28V19.3203Z" fill="white"/>
</g>
</g>
<g id="Group_33">
<g id="Group_34">
<path id="Vector_14" d="M83.7197 19.3203H77.2797V25.7603H83.7197V19.3203Z" fill="white"/>
</g>
</g>
<g id="Group_35">
<g id="Group_36">
<path id="Vector_15" d="M90.1597 19.3203H83.7197V25.7603H90.1597V19.3203Z" fill="white"/>
</g>
</g>
<g id="Group_37">
<g id="Group_38">
<path id="Vector_16" d="M96.6 19.3203H90.16V25.7603H96.6V19.3203Z" fill="white"/>
</g>
</g>
<g id="Group_39">
<g id="Group_40">
<path id="Vector_17" d="M96.5997 25.7603L103.04 22.5403L96.5997 19.3203V25.7603Z" fill="white"/>
</g>
</g>
<g id="Group_41">
<g id="Group_42">
<path id="Vector_18" d="M57.96 25.7598H51.52V32.1998H57.96V25.7598Z" fill="white"/>
</g>
</g>
<g id="Group_43">
<g id="Group_44">
<g id="Group_45">
<path id="Vector_19" d="M64.4 27.9735C64.4 27.3614 64.184 26.8394 63.7522 26.4076C63.3204 25.9758 62.7984 25.7598 62.1862 25.7598H57.96V32.1998H64.4V27.9735Z" fill="white"/>
</g>
</g>
</g>
<g id="Group_46">
<g id="Group_47">
<g id="Group_48">
<path id="Vector_20" d="M77.28 25.7598H70.84V29.986C70.84 30.5982 71.0559 31.1202 71.4878 31.552C71.9197 31.9838 72.4416 32.1998 73.0537 32.1998H77.28V25.7598Z" fill="white"/>
</g>
</g>
</g>
<g id="Group_49">
<g id="Group_50">
<path id="Vector_21" d="M83.7197 25.7598H77.2797V32.1998H83.7197V25.7598Z" fill="white"/>
</g>
</g>
<g id="Group_51">
<g id="Group_52">
<path id="Vector_22" d="M90.1597 25.7598H83.7197V32.1998H90.1597V25.7598Z" fill="white"/>
</g>
</g>
<g id="Group_53">
<g id="Group_54">
<path id="Vector_23" d="M109.48 28.9797H109.48L106.26 25.7598L103.04 28.9797H103.04V28.9798H103.04L106.26 32.1997L109.48 28.9798H109.48H109.48L109.48 28.9797Z" fill="white"/>
</g>
</g>
<g id="Group_55">
<g id="Group_56">
<path id="Vector_24" d="M57.96 32.2002H51.52V38.6402H57.96V32.2002Z" fill="white"/>
</g>
</g>
<g id="Group_57">
<g id="Group_58">
<path id="Vector_25" d="M64.4 32.2002H57.96V38.6402H64.4V32.2002Z" fill="white"/>
</g>
</g>
<g id="Group_59">
<g id="Group_60">
<g id="Group_61">
<path id="Vector_26" d="M70.8397 34.4139C70.8397 33.8018 70.6237 33.2798 70.1919 32.848C69.7601 32.4162 69.2381 32.2002 68.6259 32.2002H64.3997V38.6402H70.8397V34.4139Z" fill="white"/>
</g>
</g>
</g>
<g id="Group_62">
<g id="Group_63">
<g id="Group_64">
<path id="Vector_27" d="M90.1597 32.2002H83.7197V36.4264C83.7197 37.0386 83.9356 37.5606 84.3675 37.9924C84.7994 38.4242 85.3213 38.6402 85.9334 38.6402H90.1597V32.2002Z" fill="white"/>
</g>
</g>
</g>
<g id="Group_65">
<g id="Group_66">
<path id="Vector_28" d="M96.6 32.2002H90.16V38.6402H96.6V32.2002Z" fill="white"/>
</g>
</g>
<g id="Group_67">
<g id="Group_68">
<path id="Vector_29" d="M96.5997 38.6402L103.04 35.4202L96.5997 32.2002V38.6402Z" fill="white"/>
</g>
</g>
<g id="Group_69">
<g id="Group_70">
<path id="Vector_30" d="M57.96 38.6396H51.52V45.0796H57.96V38.6396Z" fill="white"/>
</g>
</g>
<g id="Group_71">
<g id="Group_72">
<path id="Vector_31" d="M70.8397 38.6396H64.3997V45.0796H70.8397V38.6396Z" fill="white"/>
</g>
</g>
<g id="Group_73">
<g id="Group_74">
<path id="Vector_32" d="M83.7197 41.8596H83.7196L80.4997 38.6396L77.2798 41.8596H77.2797V41.8596H77.2798L80.4997 45.0796L83.7196 41.8596H83.7197H83.7196L83.7197 41.8596Z" fill="white"/>
</g>
</g>
<g id="Group_75">
<g id="Group_76">
<path id="Vector_33" d="M90.16 38.6396L93.38 45.0796L96.6 38.6396H90.16Z" fill="white"/>
</g>
</g>
<g id="Group_77">
<g id="Group_78">
<path id="Vector_34" d="M109.48 41.8596H109.48L106.26 38.6396L103.04 41.8596H103.04V41.8596H103.04L106.26 45.0796L109.48 41.8596H109.48H109.48L109.48 41.8596Z" fill="white"/>
</g>
</g>
<g id="Group_79">
<g id="Group_80">
<path id="Vector_35" d="M51.52 45.0801L54.74 51.5201L57.96 45.0801H51.52Z" fill="white"/>
</g>
</g>
<g id="Group_81">
<g id="Group_82">
<path id="Vector_36" d="M70.8397 45.0801H64.3997V51.5201H70.8397V45.0801Z" fill="white"/>
</g>
</g>
<g id="Group_83">
<g id="Group_84">
<path id="Vector_37" d="M6.44 57.9595L3.22 51.5195L0 57.9595H6.44Z" fill="white"/>
</g>
</g>
<g id="Group_85">
<g id="Group_86">
<g id="Group_87">
<path id="Vector_38" d="M19.3197 53.7333V51.5195H15.0934C14.4813 51.5195 13.9593 51.7355 13.5275 52.1673C13.0957 52.5992 12.8797 53.1212 12.8797 53.7333V57.9595H19.3197V53.7333Z" fill="white"/>
</g>
</g>
</g>
<g id="Group_88">
<g id="Group_89">
<path id="Vector_39" d="M25.76 51.5195H19.32V57.9595H25.76V51.5195Z" fill="white"/>
</g>
</g>
<g id="Group_90">
<g id="Group_91">
<path id="Vector_40" d="M32.1997 51.5195H25.7597V57.9595H32.1997V51.5195Z" fill="white"/>
</g>
</g>
<g id="Group_92">
<g id="Group_93">
<path id="Vector_41" d="M38.6397 51.5195H32.1997V57.9595H38.6397V51.5195Z" fill="white"/>
</g>
</g>
<g id="Group_94">
<g id="Group_95">
<path id="Vector_42" d="M38.64 57.9595L45.08 54.7395L38.64 51.5195V57.9595Z" fill="white"/>
</g>
</g>
<g id="Group_96">
<g id="Group_97">
<g id="Group_98">
<path id="Vector_43" d="M64.4 53.7333V51.5195H60.1737C59.5616 51.5195 59.0396 51.7355 58.6078 52.1673C58.176 52.5992 57.96 53.1212 57.96 53.7333V57.9595H64.4V53.7333Z" fill="white"/>
</g>
</g>
</g>
<g id="Group_99">
<g id="Group_100">
<path id="Vector_44" d="M70.8397 51.5195H64.3997V57.9595H70.8397V51.5195Z" fill="white"/>
</g>
</g>
<g id="Group_101">
<g id="Group_102">
<path id="Vector_45" d="M70.84 57.9595L77.28 54.7395L70.84 51.5195V57.9595Z" fill="white"/>
</g>
</g>
<g id="Group_103">
<g id="Group_104">
<g id="Group_105">
<path id="Vector_46" d="M90.1597 53.7333V51.5195H85.9334C85.3213 51.5195 84.7993 51.7355 84.3675 52.1673C83.9357 52.5992 83.7197 53.1212 83.7197 53.7333V57.9595H90.1597V53.7333Z" fill="white"/>
</g>
</g>
</g>
<g id="Group_106">
<g id="Group_107">
<path id="Vector_47" d="M96.6 51.5195H90.16V57.9595H96.6V51.5195Z" fill="white"/>
</g>
</g>
<g id="Group_108">
<g id="Group_109">
<path id="Vector_48" d="M103.04 51.5195H96.5997V57.9595H103.04V51.5195Z" fill="white"/>
</g>
</g>
<g id="Group_110">
<g id="Group_111">
<g id="Group_112">
<path id="Vector_49" d="M109.48 53.7333C109.48 53.1212 109.264 52.5991 108.832 52.1673C108.4 51.7355 107.878 51.5195 107.266 51.5195H103.04V57.9595H109.48V53.7333Z" fill="white"/>
</g>
</g>
</g>
<g id="Group_113">
<g id="Group_114">
<path id="Vector_50" d="M122.36 57.9595L115.92 54.7395L122.36 51.5195V57.9595Z" fill="white"/>
</g>
</g>
<g id="Group_115">
<g id="Group_116">
<path id="Vector_51" d="M128.8 51.5195H122.36V57.9595H128.8V51.5195Z" fill="white"/>
</g>
</g>
<g id="Group_117">
<g id="Group_118">
<path id="Vector_52" d="M135.24 51.5195H128.8V57.9595H135.24V51.5195Z" fill="white"/>
</g>
</g>
<g id="Group_119">
<g id="Group_120">
<path id="Vector_53" d="M141.68 51.5195H135.24V57.9595H141.68V51.5195Z" fill="white"/>
</g>
</g>
<g id="Group_121">
<g id="Group_122">
<path id="Vector_54" d="M141.68 57.9595L148.12 54.7395L141.68 51.5195V57.9595Z" fill="white"/>
</g>
</g>
<g id="Group_123">
<g id="Group_124">
<path id="Vector_55" d="M6.44 57.96H0V64.4H6.44V57.96Z" fill="white"/>
</g>
</g>
<g id="Group_125">
<g id="Group_126">
<g id="Group_127">
<path id="Vector_56" d="M19.3197 57.96H12.8797V62.1862C12.8797 62.7984 13.0956 63.3204 13.5275 63.7522C13.9594 64.184 14.4813 64.4 15.0934 64.4H19.3197V57.96Z" fill="white"/>
</g>
</g>
</g>
<g id="Group_128">
<g id="Group_129">
<path id="Vector_57" d="M25.76 57.96H19.32V64.4H25.76V57.96Z" fill="white"/>
</g>
</g>
<g id="Group_130">
<g id="Group_131">
<path id="Vector_58" d="M32.1997 57.96H25.7597V64.4H32.1997V57.96Z" fill="white"/>
</g>
</g>
<g id="Group_132">
<g id="Group_133">
<g id="Group_134">
<path id="Vector_59" d="M38.6397 57.96H32.1997V64.4H36.4259C37.0381 64.4 37.5601 64.184 37.9919 63.7522C38.4237 63.3204 38.6397 62.7984 38.6397 62.1862V57.96Z" fill="white"/>
</g>
</g>
</g>
<g id="Group_135">
<g id="Group_136">
<path id="Vector_60" d="M51.5197 64.4L48.2997 57.96L45.0797 64.4H51.5197Z" fill="white"/>
</g>
</g>
<g id="Group_137">
<g id="Group_138">
<path id="Vector_61" d="M64.4 57.96H57.96V64.4H64.4V57.96Z" fill="white"/>
</g>
</g>
<g id="Group_139">
<g id="Group_140">
<path id="Vector_62" d="M90.1597 57.96H83.7197V64.4H90.1597V57.96Z" fill="white"/>
</g>
</g>
<g id="Group_141">
<g id="Group_142">
<path id="Vector_63" d="M109.48 57.96H103.04V64.4H109.48V57.96Z" fill="white"/>
</g>
</g>
<g id="Group_143">
<g id="Group_144">
<g id="Group_145">
<path id="Vector_64" d="M115.92 60.1737C115.92 59.5616 115.704 59.0396 115.272 58.6078C114.84 58.176 114.318 57.96 113.706 57.96H109.48V64.4H115.92V60.1737Z" fill="white"/>
</g>
</g>
</g>
<g id="Group_146">
<g id="Group_147">
<path id="Vector_65" d="M128.8 57.96H122.36V64.4H128.8V57.96Z" fill="white"/>
</g>
</g>
<g id="Group_148">
<g id="Group_149">
<path id="Vector_66" d="M154.56 64.4L151.34 57.96L148.12 64.4H154.56Z" fill="white"/>
</g>
</g>
<g id="Group_150">
<g id="Group_151">
<path id="Vector_67" d="M0 64.4004L3.22 70.8404L6.44 64.4004H0Z" fill="white"/>
</g>
</g>
<g id="Group_152">
<g id="Group_153">
<path id="Vector_68" d="M45.08 70.8404L38.64 67.6204L45.08 64.4004V70.8404Z" fill="white"/>
</g>
</g>
<g id="Group_154">
<g id="Group_155">
<path id="Vector_69" d="M51.5197 64.4004H45.0797V70.8404H51.5197V64.4004Z" fill="white"/>
</g>
</g>
<g id="Group_156">
<g id="Group_157">
<path id="Vector_70" d="M64.4 64.4004H57.96V70.8404H64.4V64.4004Z" fill="white"/>
</g>
</g>
<g id="Group_158">
<g id="Group_159">
<path id="Vector_71" d="M70.8397 64.4004H64.3997V70.8404H70.8397V64.4004Z" fill="white"/>
</g>
</g>
<g id="Group_160">
<g id="Group_161">
<path id="Vector_72" d="M70.84 70.8404L77.28 67.6204L70.84 64.4004V70.8404Z" fill="white"/>
</g>
</g>
<g id="Group_162">
<g id="Group_163">
<path id="Vector_73" d="M83.7197 64.4004L86.9397 70.8404L90.1597 64.4004H83.7197Z" fill="white"/>
</g>
</g>
<g id="Group_164">
<g id="Group_165">
<g id="Group_166">
<path id="Vector_74" d="M103.04 66.6141V64.4004H98.8134C98.2013 64.4004 97.6793 64.6163 97.2475 65.0482C96.8157 65.4801 96.5997 66.002 96.5997 66.6141V70.8404H103.04V66.6141Z" fill="white"/>
</g>
</g>
</g>
<g id="Group_167">
<g id="Group_168">
<path id="Vector_75" d="M109.48 64.4004H103.04V70.8404H109.48V64.4004Z" fill="white"/>
</g>
</g>
<g id="Group_169">
<g id="Group_170">
<path id="Vector_76" d="M115.92 64.4004H109.48V70.8404H115.92V64.4004Z" fill="white"/>
</g>
</g>
<g id="Group_171">
<g id="Group_172">
<path id="Vector_77" d="M122.36 64.4004H115.92V70.8404H122.36V64.4004Z" fill="white"/>
</g>
</g>
<g id="Group_173">
<g id="Group_174">
<path id="Vector_78" d="M128.8 64.4004H122.36V70.8404H128.8V64.4004Z" fill="white"/>
</g>
</g>
<g id="Group_175">
<g id="Group_176">
<path id="Vector_79" d="M135.24 64.4004H128.8V70.8404H135.24V64.4004Z" fill="white"/>
</g>
</g>
<g id="Group_177">
<g id="Group_178">
<path id="Vector_80" d="M135.24 70.8404L141.68 67.6204L135.24 64.4004V70.8404Z" fill="white"/>
</g>
</g>
<g id="Group_179">
<g id="Group_180">
<g id="Group_181">
<path id="Vector_81" d="M154.56 64.4004H148.12V68.6266C148.12 69.2388 148.336 69.7608 148.767 70.1926C149.199 70.6244 149.721 70.8404 150.333 70.8404H154.56V64.4004Z" fill="white"/>
</g>
</g>
</g>
<g id="Group_182">
<g id="Group_183">
<g id="Group_184">
<path id="Vector_82" d="M161 66.6141C161 66.002 160.784 65.48 160.352 65.0482C159.92 64.6164 159.398 64.4004 158.786 64.4004H154.56V70.8404H161V66.6141Z" fill="white"/>
</g>
</g>
</g>
<g id="Group_185">
<g id="Group_186">
<g id="Group_187">
<path id="Vector_83" d="M32.1997 73.0536V70.8398H27.9734C27.3613 70.8398 26.8393 71.0558 26.4075 71.4876C25.9757 71.9195 25.7597 72.4415 25.7597 73.0536V77.2798H32.1997V73.0536Z" fill="white"/>
</g>
</g>
</g>
<g id="Group_188">
<g id="Group_189">
<path id="Vector_84" d="M32.1997 77.2798L38.6397 74.0598L32.1997 70.8398V77.2798Z" fill="white"/>
</g>
</g>
<g id="Group_190">
<g id="Group_191">
<path id="Vector_85" d="M45.0797 70.8398L48.2997 77.2798L51.5197 70.8398H45.0797Z" fill="white"/>
</g>
</g>
<g id="Group_192">
<g id="Group_193">
<path id="Vector_86" d="M64.4 70.8398H57.96V77.2798H64.4V70.8398Z" fill="white"/>
</g>
</g>
<g id="Group_194">
<g id="Group_195">
<g id="Group_196">
<path id="Vector_87" d="M70.8397 70.8398H64.3997V77.2798H68.6259C69.2381 77.2798 69.7601 77.0638 70.1919 76.632C70.6237 76.2002 70.8397 75.6783 70.8397 75.0661V70.8398Z" fill="white"/>
</g>
</g>
</g>
<g id="Group_197">
<g id="Group_198">
<path id="Vector_88" d="M83.7197 74.0598H83.7196L80.4997 70.8398L77.2798 74.0598H77.2797V74.0598H77.2798L80.4997 77.2798L83.7196 74.0598H83.7197H83.7196L83.7197 74.0598Z" fill="white"/>
</g>
</g>
<g id="Group_199">
<g id="Group_200">
<path id="Vector_89" d="M96.6 77.2798L90.16 74.0598L96.6 70.8398V77.2798Z" fill="white"/>
</g>
</g>
<g id="Group_201">
<g id="Group_202">
<path id="Vector_90" d="M103.04 70.8398H96.5997V77.2798H103.04V70.8398Z" fill="white"/>
</g>
</g>
<g id="Group_203">
<g id="Group_204">
<path id="Vector_91" d="M109.48 70.8398H103.04V77.2798H109.48V70.8398Z" fill="white"/>
</g>
</g>
<g id="Group_205">
<g id="Group_206">
<path id="Vector_92" d="M115.92 70.8398H109.48V77.2798H115.92V70.8398Z" fill="white"/>
</g>
</g>
<g id="Group_207">
<g id="Group_208">
<path id="Vector_93" d="M128.8 70.8398H122.36V77.2798H128.8V70.8398Z" fill="white"/>
</g>
</g>
<g id="Group_209">
<g id="Group_210">
<path id="Vector_94" d="M161 70.8398H154.56V77.2798H161V70.8398Z" fill="white"/>
</g>
</g>
<g id="Group_211">
<g id="Group_212">
<path id="Vector_95" d="M19.3197 80.5002H19.3196L16.0997 77.2803L12.8797 80.5002H12.8797V80.5003H12.8797L16.0997 83.7202L19.3196 80.5003H19.3197H19.3196L19.3197 80.5002Z" fill="white"/>
</g>
</g>
<g id="Group_213">
<g id="Group_214">
<path id="Vector_96" d="M25.7597 77.2803L28.9797 83.7203L32.1997 77.2803H25.7597Z" fill="white"/>
</g>
</g>
<g id="Group_215">
<g id="Group_216">
<path id="Vector_97" d="M45.08 80.5002H45.0799L41.86 77.2803L38.6401 80.5002H38.64V80.5003H38.6401L41.86 83.7202L45.0799 80.5003H45.08H45.0799L45.08 80.5002Z" fill="white"/>
</g>
</g>
<g id="Group_217">
<g id="Group_218">
<path id="Vector_98" d="M64.4 77.2803H57.96V83.7203H64.4V77.2803Z" fill="white"/>
</g>
</g>
<g id="Group_219">
<g id="Group_220">
<path id="Vector_99" d="M77.28 80.5002H77.2799L74.06 77.2803L70.8401 80.5002H70.84V80.5003H70.8401L74.06 83.7202L77.2799 80.5003H77.28H77.2799L77.28 80.5002Z" fill="white"/>
</g>
</g>
<g id="Group_221">
<g id="Group_222">
<path id="Vector_100" d="M90.1597 83.7203L86.9397 77.2803L83.7197 83.7203H90.1597Z" fill="white"/>
</g>
</g>
<g id="Group_223">
<g id="Group_224">
<path id="Vector_101" d="M96.5997 77.2803L99.8197 83.7203L103.04 77.2803H96.5997Z" fill="white"/>
</g>
</g>
<g id="Group_225">
<g id="Group_226">
<path id="Vector_102" d="M115.92 77.2803H109.48V83.7203H115.92V77.2803Z" fill="white"/>
</g>
</g>
<g id="Group_227">
<g id="Group_228">
<path id="Vector_103" d="M122.36 77.2803H115.92V83.7203H122.36V77.2803Z" fill="white"/>
</g>
</g>
<g id="Group_229">
<g id="Group_230">
<path id="Vector_104" d="M128.8 77.2803H122.36V83.7203H128.8V77.2803Z" fill="white"/>
</g>
</g>
<g id="Group_231">
<g id="Group_232">
<path id="Vector_105" d="M128.8 83.7203L135.24 80.5003L128.8 77.2803V83.7203Z" fill="white"/>
</g>
</g>
<g id="Group_233">
<g id="Group_234">
<path id="Vector_106" d="M148.12 83.7203L141.68 80.5003L148.12 77.2803V83.7203Z" fill="white"/>
</g>
</g>
<g id="Group_235">
<g id="Group_236">
<path id="Vector_107" d="M154.56 77.2803H148.12V83.7203H154.56V77.2803Z" fill="white"/>
</g>
</g>
<g id="Group_237">
<g id="Group_238">
<g id="Group_239">
<path id="Vector_108" d="M161 77.2803H154.56V83.7203H158.786C159.398 83.7203 159.92 83.5043 160.352 83.0725C160.784 82.6407 161 82.1187 161 81.5065V77.2803Z" fill="white"/>
</g>
</g>
</g>
<g id="Group_240">
<g id="Group_241">
<g id="Group_242">
<path id="Vector_109" d="M6.44 85.9335V83.7197H2.21375C1.60163 83.7197 1.0796 83.9357 0.6478 84.3675C0.215998 84.7994 0 85.3214 0 85.9335V90.1597H6.44V85.9335Z" fill="white"/>
</g>
</g>
</g>
<g id="Group_243">
<g id="Group_244">
<path id="Vector_110" d="M6.44 90.1597L12.88 86.9397L6.44 83.7197V90.1597Z" fill="white"/>
</g>
</g>
<g id="Group_245">
<g id="Group_246">
<path id="Vector_111" d="M25.76 90.1597L22.54 83.7197L19.32 90.1597H25.76Z" fill="white"/>
</g>
</g>
<g id="Group_247">
<g id="Group_248">
<path id="Vector_112" d="M38.6397 90.1597L35.4197 83.7197L32.1997 90.1597H38.6397Z" fill="white"/>
</g>
</g>
<g id="Group_249">
<g id="Group_250">
<path id="Vector_113" d="M51.5197 90.1597L48.2997 83.7197L45.0797 90.1597H51.5197Z" fill="white"/>
</g>
</g>
<g id="Group_251">
<g id="Group_252">
<path id="Vector_114" d="M64.4 83.7197H57.96V90.1597H64.4V83.7197Z" fill="white"/>
</g>
</g>
<g id="Group_253">
<g id="Group_254">
<path id="Vector_115" d="M64.3997 90.1597L70.8397 86.9397L64.3997 83.7197V90.1597Z" fill="white"/>
</g>
</g>
<g id="Group_255">
<g id="Group_256">
<path id="Vector_116" d="M83.7197 90.1597L77.2797 86.9397L83.7197 83.7197V90.1597Z" fill="white"/>
</g>
</g>
<g id="Group_257">
<g id="Group_258">
<path id="Vector_117" d="M90.1597 83.7197H83.7197V90.1597H90.1597V83.7197Z" fill="white"/>
</g>
</g>
<g id="Group_259">
<g id="Group_260">
<path id="Vector_118" d="M109.48 90.1597L103.04 86.9397L109.48 83.7197V90.1597Z" fill="white"/>
</g>
</g>
<g id="Group_261">
<g id="Group_262">
<path id="Vector_119" d="M115.92 83.7197H109.48V90.1597H115.92V83.7197Z" fill="white"/>
</g>
</g>
<g id="Group_263">
<g id="Group_264">
<path id="Vector_120" d="M128.8 83.7197H122.36V90.1597H128.8V83.7197Z" fill="white"/>
</g>
</g>
<g id="Group_265">
<g id="Group_266">
<path id="Vector_121" d="M141.68 90.1597L138.46 83.7197L135.24 90.1597H141.68Z" fill="white"/>
</g>
</g>
<g id="Group_267">
<g id="Group_268">
<path id="Vector_122" d="M154.56 83.7197H148.12V90.1597H154.56V83.7197Z" fill="white"/>
</g>
</g>
<g id="Group_269">
<g id="Group_270">
<path id="Vector_123" d="M6.44 90.1602H0V96.6002H6.44V90.1602Z" fill="white"/>
</g>
</g>
<g id="Group_271">
<g id="Group_272">
<path id="Vector_124" d="M19.3197 96.6002L12.8797 93.3802L19.3197 90.1602V96.6002Z" fill="white"/>
</g>
</g>
<g id="Group_273">
<g id="Group_274">
<path id="Vector_125" d="M25.76 90.1602H19.32V96.6002H25.76V90.1602Z" fill="white"/>
</g>
</g>
<g id="Group_275">
<g id="Group_276">
<path id="Vector_126" d="M32.1997 90.1602H25.7597V96.6002H32.1997V90.1602Z" fill="white"/>
</g>
</g>
<g id="Group_277">
<g id="Group_278">
<path id="Vector_127" d="M38.6397 90.1602H32.1997V96.6002H38.6397V90.1602Z" fill="white"/>
</g>
</g>
<g id="Group_279">
<g id="Group_280">
<path id="Vector_128" d="M45.08 90.1602H38.64V96.6002H45.08V90.1602Z" fill="white"/>
</g>
</g>
<g id="Group_281">
<g id="Group_282">
<path id="Vector_129" d="M51.5197 90.1602H45.0797V96.6002H51.5197V90.1602Z" fill="white"/>
</g>
</g>
<g id="Group_283">
<g id="Group_284">
<path id="Vector_130" d="M57.96 90.1602H51.52V96.6002H57.96V90.1602Z" fill="white"/>
</g>
</g>
<g id="Group_285">
<g id="Group_286">
<path id="Vector_131" d="M64.4 90.1602H57.96V96.6002H64.4V90.1602Z" fill="white"/>
</g>
</g>
<g id="Group_287">
<g id="Group_288">
<g id="Group_289">
<path id="Vector_132" d="M90.1597 90.1602H83.7197V94.3864C83.7197 94.9986 83.9356 95.5206 84.3675 95.9524C84.7994 96.3842 85.3213 96.6002 85.9334 96.6002H90.1597V90.1602Z" fill="white"/>
</g>
</g>
</g>
<g id="Group_290">
<g id="Group_291">
<path id="Vector_133" d="M96.6 90.1602H90.16V96.6002H96.6V90.1602Z" fill="white"/>
</g>
</g>
<g id="Group_292">
<g id="Group_293">
<path id="Vector_134" d="M96.5997 96.6002L103.04 93.3802L96.5997 90.1602V96.6002Z" fill="white"/>
</g>
</g>
<g id="Group_294">
<g id="Group_295">
<path id="Vector_135" d="M115.92 90.1602H109.48V96.6002H115.92V90.1602Z" fill="white"/>
</g>
</g>
<g id="Group_296">
<g id="Group_297">
<path id="Vector_136" d="M122.36 90.1602H115.92V96.6002H122.36V90.1602Z" fill="white"/>
</g>
</g>
<g id="Group_298">
<g id="Group_299">
<path id="Vector_137" d="M128.8 90.1602H122.36V96.6002H128.8V90.1602Z" fill="white"/>
</g>
</g>
<g id="Group_300">
<g id="Group_301">
<path id="Vector_138" d="M135.24 90.1602H128.8V96.6002H135.24V90.1602Z" fill="white"/>
</g>
</g>
<g id="Group_302">
<g id="Group_303">
<g id="Group_304">
<path id="Vector_139" d="M141.68 90.1602H135.24V96.6002H139.466C140.078 96.6002 140.6 96.3842 141.032 95.9524C141.464 95.5206 141.68 94.9986 141.68 94.3864V90.1602Z" fill="white"/>
</g>
</g>
</g>
<g id="Group_305">
<g id="Group_306">
<g id="Group_307">
<path id="Vector_140" d="M154.56 90.1602H148.12V94.3864C148.12 94.9986 148.336 95.5206 148.767 95.9524C149.199 96.3842 149.721 96.6002 150.333 96.6002H154.56V90.1602Z" fill="white"/>
</g>
</g>
</g>
<g id="Group_308">
<g id="Group_309">
<g id="Group_310">
<path id="Vector_141" d="M161 92.3739C161 91.7618 160.784 91.2398 160.352 90.808C159.92 90.3762 159.398 90.1602 158.786 90.1602H154.56V96.6002H161V92.3739Z" fill="white"/>
</g>
</g>
</g>
<g id="Group_311">
<g id="Group_312">
<path id="Vector_142" d="M6.44 96.5996H0V103.04H6.44V96.5996Z" fill="white"/>
</g>
</g>
<g id="Group_313">
<g id="Group_314">
<path id="Vector_143" d="M51.5197 96.5996H45.0797V103.04H51.5197V96.5996Z" fill="white"/>
</g>
</g>
<g id="Group_315">
<g id="Group_316">
<g id="Group_317">
<path id="Vector_144" d="M64.4 96.5996H57.96V100.826C57.96 101.438 58.1759 101.96 58.6078 102.392C59.0397 102.824 59.5616 103.04 60.1737 103.04H64.4V96.5996Z" fill="white"/>
</g>
</g>
</g>
<g id="Group_318">
<g id="Group_319">
<g id="Group_320">
<path id="Vector_145" d="M70.8397 98.8134C70.8397 98.2012 70.6237 97.6792 70.1919 97.2474C69.7601 96.8156 69.2381 96.5996 68.6259 96.5996H64.3997V103.04H70.8397V98.8134Z" fill="white"/>
</g>
</g>
</g>
<g id="Group_321">
<g id="Group_322">
<path id="Vector_146" d="M83.7197 103.04L80.4997 96.5996L77.2797 103.04H83.7197Z" fill="white"/>
</g>
</g>
<g id="Group_323">
<g id="Group_324">
<path id="Vector_147" d="M115.92 96.5996H109.48V103.04H115.92V96.5996Z" fill="white"/>
</g>
</g>
<g id="Group_325">
<g id="Group_326">
<path id="Vector_148" d="M128.8 96.5996H122.36V103.04H128.8V96.5996Z" fill="white"/>
</g>
</g>
<g id="Group_327">
<g id="Group_328">
<path id="Vector_149" d="M135.24 96.5996H128.8V103.04H135.24V96.5996Z" fill="white"/>
</g>
</g>
<g id="Group_329">
<g id="Group_330">
<path id="Vector_150" d="M154.56 96.5996L157.78 103.04L161 96.5996H154.56Z" fill="white"/>
</g>
</g>
<g id="Group_331">
<g id="Group_332">
<path id="Vector_151" d="M0 103.04L3.22 109.48L6.44 103.04H0Z" fill="white"/>
</g>
</g>
<g id="Group_333">
<g id="Group_334">
<path id="Vector_152" d="M19.3197 109.48L12.8797 106.26L19.3197 103.04V109.48Z" fill="white"/>
</g>
</g>
<g id="Group_335">
<g id="Group_336">
<path id="Vector_153" d="M25.76 103.04H19.32V109.48H25.76V103.04Z" fill="white"/>
</g>
</g>
<g id="Group_337">
<g id="Group_338">
<path id="Vector_154" d="M25.7597 109.48L32.1997 106.26L25.7597 103.04V109.48Z" fill="white"/>
</g>
</g>
<g id="Group_339">
<g id="Group_340">
<path id="Vector_155" d="M45.08 109.48L38.64 106.26L45.08 103.04V109.48Z" fill="white"/>
</g>
</g>
<g id="Group_341">
<g id="Group_342">
<g id="Group_343">
<path id="Vector_156" d="M51.5197 103.04H45.0797V109.48H49.3059C49.9181 109.48 50.4401 109.264 50.8719 108.832C51.3037 108.4 51.5197 107.878 51.5197 107.266V103.04Z" fill="white"/>
</g>
</g>
</g>
<g id="Group_344">
<g id="Group_345">
<path id="Vector_157" d="M70.8397 103.04H64.3997V109.48H70.8397V103.04Z" fill="white"/>
</g>
</g>
<g id="Group_346">
<g id="Group_347">
<g id="Group_348">
<path id="Vector_158" d="M83.7197 103.04H77.2797V107.266C77.2797 107.878 77.4956 108.4 77.9275 108.832C78.3594 109.264 78.8813 109.48 79.4934 109.48H83.7197V103.04Z" fill="white"/>
</g>
</g>
</g>
<g id="Group_349">
<g id="Group_350">
<path id="Vector_159" d="M90.1597 103.04H83.7197V109.48H90.1597V103.04Z" fill="white"/>
</g>
</g>
<g id="Group_351">
<g id="Group_352">
<path id="Vector_160" d="M96.6 103.04H90.16V109.48H96.6V103.04Z" fill="white"/>
</g>
</g>
<g id="Group_353">
<g id="Group_354">
<path id="Vector_161" d="M103.04 103.04H96.5997V109.48H103.04V103.04Z" fill="white"/>
</g>
</g>
<g id="Group_355">
<g id="Group_356">
<path id="Vector_162" d="M109.48 103.04H103.04V109.48H109.48V103.04Z" fill="white"/>
</g>
</g>
<g id="Group_357">
<g id="Group_358">
<path id="Vector_163" d="M115.92 103.04H109.48V109.48H115.92V103.04Z" fill="white"/>
</g>
</g>
<g id="Group_359">
<g id="Group_360">
<path id="Vector_164" d="M122.36 103.04H115.92V109.48H122.36V103.04Z" fill="white"/>
</g>
</g>
<g id="Group_361">
<g id="Group_362">
<path id="Vector_165" d="M128.8 103.04H122.36V109.48H128.8V103.04Z" fill="white"/>
</g>
</g>
<g id="Group_363">
<g id="Group_364">
<path id="Vector_166" d="M135.24 103.04H128.8V109.48H135.24V103.04Z" fill="white"/>
</g>
</g>
<g id="Group_365">
<g id="Group_366">
<path id="Vector_167" d="M148.12 106.26H148.12L144.9 103.04L141.68 106.26H141.68V106.26H141.68L144.9 109.48L148.12 106.26H148.12H148.12L148.12 106.26Z" fill="white"/>
</g>
</g>
<g id="Group_367">
<g id="Group_368">
<path id="Vector_168" d="M57.96 112.7H57.9599L54.74 109.48L51.5201 112.7H51.52V112.7H51.5201L54.74 115.92L57.9599 112.7H57.96H57.9599L57.96 112.7Z" fill="white"/>
</g>
</g>
<g id="Group_369">
<g id="Group_370">
<path id="Vector_169" d="M70.8397 109.48H64.3997V115.92H70.8397V109.48Z" fill="white"/>
</g>
</g>
<g id="Group_371">
<g id="Group_372">
<g id="Group_373">
<path id="Vector_170" d="M96.6 109.48H90.16V113.707C90.16 114.319 90.3759 114.841 90.8078 115.273C91.2397 115.704 91.7616 115.92 92.3738 115.92H96.6V109.48Z" fill="white"/>
</g>
</g>
</g>
<g id="Group_374">
<g id="Group_375">
<path id="Vector_171" d="M103.04 109.48H96.5997V115.92H103.04V109.48Z" fill="white"/>
</g>
</g>
<g id="Group_376">
<g id="Group_377">
<path id="Vector_172" d="M109.48 109.48H103.04V115.92H109.48V109.48Z" fill="white"/>
</g>
</g>
<g id="Group_378">
<g id="Group_379">
<path id="Vector_173" d="M135.24 109.48H128.8V115.92H135.24V109.48Z" fill="white"/>
</g>
</g>
<g id="Group_380">
<g id="Group_381">
<path id="Vector_174" d="M135.24 115.92L141.68 112.7L135.24 109.48V115.92Z" fill="white"/>
</g>
</g>
<g id="Group_382">
<g id="Group_383">
<path id="Vector_175" d="M64.4 122.36L57.96 119.14L64.4 115.92V122.36Z" fill="white"/>
</g>
</g>
<g id="Group_384">
<g id="Group_385">
<path id="Vector_176" d="M70.8397 115.92H64.3997V122.36H70.8397V115.92Z" fill="white"/>
</g>
</g>
<g id="Group_386">
<g id="Group_387">
<path id="Vector_177" d="M77.28 115.92H70.84V122.36H77.28V115.92Z" fill="white"/>
</g>
</g>
<g id="Group_388">
<g id="Group_389">
<path id="Vector_178" d="M83.7197 115.92H77.2797V122.36H83.7197V115.92Z" fill="white"/>
</g>
</g>
<g id="Group_390">
<g id="Group_391">
<path id="Vector_179" d="M83.7197 122.36L90.1597 119.14L83.7197 115.92V122.36Z" fill="white"/>
</g>
</g>
<g id="Group_392">
<g id="Group_393">
<path id="Vector_180" d="M109.48 115.92H103.04V122.36H109.48V115.92Z" fill="white"/>
</g>
</g>
<g id="Group_394">
<g id="Group_395">
<path id="Vector_181" d="M122.36 119.14H122.36L119.14 115.92L115.92 119.14H115.92V119.14H115.92L119.14 122.36L122.36 119.14H122.36H122.36L122.36 119.14Z" fill="white"/>
</g>
</g>
<g id="Group_396">
<g id="Group_397">
<path id="Vector_182" d="M135.24 115.92H128.8V122.36H135.24V115.92Z" fill="white"/>
</g>
</g>
<g id="Group_398">
<g id="Group_399">
<path id="Vector_183" d="M148.12 122.36L141.68 119.14L148.12 115.92V122.36Z" fill="white"/>
</g>
</g>
<g id="Group_400">
<g id="Group_401">
<path id="Vector_184" d="M154.56 115.92H148.12V122.36H154.56V115.92Z" fill="white"/>
</g>
</g>
<g id="Group_402">
<g id="Group_403">
<g id="Group_404">
<path id="Vector_185" d="M161 118.134C161 117.522 160.784 117 160.352 116.568C159.92 116.136 159.398 115.92 158.786 115.92H154.56V122.36H161V118.134Z" fill="white"/>
</g>
</g>
</g>
<g id="Group_405">
<g id="Group_406">
<path id="Vector_186" d="M57.96 128.8L54.74 122.36L51.52 128.8H57.96Z" fill="white"/>
</g>
</g>
<g id="Group_407">
<g id="Group_408">
<path id="Vector_187" d="M77.28 122.36H70.84V128.8H77.28V122.36Z" fill="white"/>
</g>
</g>
<g id="Group_409">
<g id="Group_410">
<path id="Vector_188" d="M109.48 122.36H103.04V128.8H109.48V122.36Z" fill="white"/>
</g>
</g>
<g id="Group_411">
<g id="Group_412">
<path id="Vector_189" d="M135.24 122.36H128.8V128.8H135.24V122.36Z" fill="white"/>
</g>
</g>
<g id="Group_413">
<g id="Group_414">
<path id="Vector_190" d="M135.24 128.8L141.68 125.58L135.24 122.36V128.8Z" fill="white"/>
</g>
</g>
<g id="Group_415">
<g id="Group_416">
<path id="Vector_191" d="M154.56 122.36L157.78 128.8L161 122.36H154.56Z" fill="white"/>
</g>
</g>
<g id="Group_417">
<g id="Group_418">
<path id="Vector_192" d="M57.96 128.8H51.52V135.24H57.96V128.8Z" fill="white"/>
</g>
</g>
<g id="Group_419">
<g id="Group_420">
<g id="Group_421">
<path id="Vector_193" d="M64.4 131.014C64.4 130.401 64.184 129.879 63.7522 129.448C63.3204 129.016 62.7984 128.8 62.1862 128.8H57.96V135.24H64.4V131.014Z" fill="white"/>
</g>
</g>
</g>
<g id="Group_422">
<g id="Group_423">
<g id="Group_424">
<path id="Vector_194" d="M77.28 128.8H70.84V133.026C70.84 133.638 71.0559 134.16 71.4878 134.592C71.9197 135.024 72.4416 135.24 73.0537 135.24H77.28V128.8Z" fill="white"/>
</g>
</g>
</g>
<g id="Group_425">
<g id="Group_426">
<path id="Vector_195" d="M83.7197 128.8H77.2797V135.24H83.7197V128.8Z" fill="white"/>
</g>
</g>
<g id="Group_427">
<g id="Group_428">
<path id="Vector_196" d="M90.1597 128.8H83.7197V135.24H90.1597V128.8Z" fill="white"/>
</g>
</g>
<g id="Group_429">
<g id="Group_430">
<path id="Vector_197" d="M96.6 128.8H90.16V135.24H96.6V128.8Z" fill="white"/>
</g>
</g>
<g id="Group_431">
<g id="Group_432">
<path id="Vector_198" d="M103.04 128.8H96.5997V135.24H103.04V128.8Z" fill="white"/>
</g>
</g>
<g id="Group_433">
<g id="Group_434">
<path id="Vector_199" d="M109.48 128.8H103.04V135.24H109.48V128.8Z" fill="white"/>
</g>
</g>
<g id="Group_435">
<g id="Group_436">
<path id="Vector_200" d="M115.92 128.8H109.48V135.24H115.92V128.8Z" fill="white"/>
</g>
</g>
<g id="Group_437">
<g id="Group_438">
<path id="Vector_201" d="M122.36 128.8H115.92V135.24H122.36V128.8Z" fill="white"/>
</g>
</g>
<g id="Group_439">
<g id="Group_440">
<path id="Vector_202" d="M128.8 128.8H122.36V135.24H128.8V128.8Z" fill="white"/>
</g>
</g>
<g id="Group_441">
<g id="Group_442">
<path id="Vector_203" d="M135.24 128.8H128.8V135.24H135.24V128.8Z" fill="white"/>
</g>
</g>
<g id="Group_443">
<g id="Group_444">
<path id="Vector_204" d="M148.12 135.24L144.9 128.8L141.68 135.24H148.12Z" fill="white"/>
</g>
</g>
<g id="Group_445">
<g id="Group_446">
<path id="Vector_205" d="M57.96 135.24H51.52V141.68H57.96V135.24Z" fill="white"/>
</g>
</g>
<g id="Group_447">
<g id="Group_448">
<path id="Vector_206" d="M64.4 135.24H57.96V141.68H64.4V135.24Z" fill="white"/>
</g>
</g>
<g id="Group_449">
<g id="Group_450">
<g id="Group_451">
<path id="Vector_207" d="M70.8397 137.454C70.8397 136.842 70.6237 136.32 70.1919 135.888C69.7601 135.456 69.2381 135.24 68.6259 135.24H64.3997V141.68H70.8397V137.454Z" fill="white"/>
</g>
</g>
</g>
<g id="Group_452">
<g id="Group_453">
<path id="Vector_208" d="M77.2797 135.24L80.4997 141.68L83.7197 135.24H77.2797Z" fill="white"/>
</g>
</g>
<g id="Group_454">
<g id="Group_455">
<path id="Vector_209" d="M96.6 135.24H90.16V141.68H96.6V135.24Z" fill="white"/>
</g>
</g>
<g id="Group_456">
<g id="Group_457">
<path id="Vector_210" d="M103.04 135.24L106.26 141.68L109.48 135.24H103.04Z" fill="white"/>
</g>
</g>
<g id="Group_458">
<g id="Group_459">
<path id="Vector_211" d="M115.92 135.24L119.14 141.68L122.36 135.24H115.92Z" fill="white"/>
</g>
</g>
<g id="Group_460">
<g id="Group_461">
<g id="Group_462">
<path id="Vector_212" d="M135.24 135.24H128.8V139.466C128.8 140.079 129.016 140.601 129.447 141.032C129.879 141.464 130.401 141.68 131.013 141.68H135.24V135.24Z" fill="white"/>
</g>
</g>
</g>
<g id="Group_463">
<g id="Group_464">
<path id="Vector_213" d="M141.68 135.24H135.24V141.68H141.68V135.24Z" fill="white"/>
</g>
</g>
<g id="Group_465">
<g id="Group_466">
<path id="Vector_214" d="M148.12 135.24H141.68V141.68H148.12V135.24Z" fill="white"/>
</g>
</g>
<g id="Group_467">
<g id="Group_468">
<path id="Vector_215" d="M154.56 135.24H148.12V141.68H154.56V135.24Z" fill="white"/>
</g>
</g>
<g id="Group_469">
<g id="Group_470">
<g id="Group_471">
<path id="Vector_216" d="M161 137.454C161 136.842 160.784 136.32 160.352 135.888C159.92 135.456 159.398 135.24 158.786 135.24H154.56V141.68H161V137.454Z" fill="white"/>
</g>
</g>
</g>
<g id="Group_472">
<g id="Group_473">
<path id="Vector_217" d="M51.52 141.68L54.74 148.12L57.96 141.68H51.52Z" fill="white"/>
</g>
</g>
<g id="Group_474">
<g id="Group_475">
<path id="Vector_218" d="M70.8397 141.68H64.3997V148.12H70.8397V141.68Z" fill="white"/>
</g>
</g>
<g id="Group_476">
<g id="Group_477">
<path id="Vector_219" d="M96.6 141.68H90.16V148.12H96.6V141.68Z" fill="white"/>
</g>
</g>
<g id="Group_478">
<g id="Group_479">
<path id="Vector_220" d="M96.5997 148.12L103.04 144.9L96.5997 141.68V148.12Z" fill="white"/>
</g>
</g>
<g id="Group_480">
<g id="Group_481">
<path id="Vector_221" d="M141.68 141.68H135.24V148.12H141.68V141.68Z" fill="white"/>
</g>
</g>
<g id="Group_482">
<g id="Group_483">
<g id="Group_484">
<path id="Vector_222" d="M148.12 141.68H141.68V148.12H145.906C146.518 148.12 147.04 147.904 147.472 147.472C147.904 147.04 148.12 146.518 148.12 145.906V141.68Z" fill="white"/>
</g>
</g>
</g>
<g id="Group_485">
<g id="Group_486">
<path id="Vector_223" d="M161 141.68H154.56V148.12H161V141.68Z" fill="white"/>
</g>
</g>
<g id="Group_487">
<g id="Group_488">
<g id="Group_489">
<path id="Vector_224" d="M64.4 150.334V148.12H60.1737C59.5616 148.12 59.0396 148.336 58.6078 148.768C58.176 149.2 57.96 149.722 57.96 150.334V154.56H64.4V150.334Z" fill="white"/>
</g>
</g>
</g>
<g id="Group_490">
<g id="Group_491">
<path id="Vector_225" d="M70.8397 148.12H64.3997V154.56H70.8397V148.12Z" fill="white"/>
</g>
</g>
<g id="Group_492">
<g id="Group_493">
<g id="Group_494">
<path id="Vector_226" d="M77.28 150.334C77.28 149.722 77.064 149.2 76.6322 148.768C76.2004 148.336 75.6784 148.12 75.0662 148.12H70.84V154.56H77.28V150.334Z" fill="white"/>
</g>
</g>
</g>
<g id="Group_495">
<g id="Group_496">
<path id="Vector_227" d="M90.16 148.12L93.38 154.56L96.6 148.12H90.16Z" fill="white"/>
</g>
</g>
<g id="Group_497">
<g id="Group_498">
<path id="Vector_228" d="M109.48 154.56L103.04 151.34L109.48 148.12V154.56Z" fill="white"/>
</g>
</g>
<g id="Group_499">
<g id="Group_500">
<path id="Vector_229" d="M109.48 154.56L115.92 151.34L109.48 148.12V154.56Z" fill="white"/>
</g>
</g>
<g id="Group_501">
<g id="Group_502">
<g id="Group_503">
<path id="Vector_230" d="M128.8 150.334V148.12H124.574C123.962 148.12 123.44 148.336 123.008 148.768C122.576 149.2 122.36 149.722 122.36 150.334V154.56H128.8V150.334Z" fill="white"/>
</g>
</g>
</g>
<g id="Group_504">
<g id="Group_505">
<path id="Vector_231" d="M135.24 148.12H128.8V154.56H135.24V148.12Z" fill="white"/>
</g>
</g>
<g id="Group_506">
<g id="Group_507">
<path id="Vector_232" d="M141.68 148.12H135.24V154.56H141.68V148.12Z" fill="white"/>
</g>
</g>
<g id="Group_508">
<g id="Group_509">
<path id="Vector_233" d="M161 148.12H154.56V154.56H161V148.12Z" fill="white"/>
</g>
</g>
<g id="Group_510">
<g id="Group_511">
<path id="Vector_234" d="M57.96 161L51.52 157.78L57.96 154.56V161Z" fill="white"/>
</g>
</g>
<g id="Group_512">
<g id="Group_513">
<path id="Vector_235" d="M64.4 154.56H57.96V161H64.4V154.56Z" fill="white"/>
</g>
</g>
<g id="Group_514">
<g id="Group_515">
<path id="Vector_236" d="M70.8397 154.56H64.3997V161H70.8397V154.56Z" fill="white"/>
</g>
</g>
<g id="Group_516">
<g id="Group_517">
<path id="Vector_237" d="M77.28 154.56H70.84V161H77.28V154.56Z" fill="white"/>
</g>
</g>
<g id="Group_518">
<g id="Group_519">
<path id="Vector_238" d="M83.7197 154.56H77.2797V161H83.7197V154.56Z" fill="white"/>
</g>
</g>
<g id="Group_520">
<g id="Group_521">
<path id="Vector_239" d="M83.7197 161L90.1597 157.78L83.7197 154.56V161Z" fill="white"/>
</g>
</g>
<g id="Group_522">
<g id="Group_523">
<g id="Group_524">
<path id="Vector_240" d="M128.8 154.56H122.36V158.786C122.36 159.398 122.576 159.92 123.008 160.352C123.44 160.784 123.962 161 124.574 161H128.8V154.56Z" fill="white"/>
</g>
</g>
</g>
<g id="Group_525">
<g id="Group_526">
<path id="Vector_241" d="M135.24 154.56H128.8V161H135.24V154.56Z" fill="white"/>
</g>
</g>
<g id="Group_527">
<g id="Group_528">
<path id="Vector_242" d="M141.68 154.56H135.24V161H141.68V154.56Z" fill="white"/>
</g>
</g>
<g id="Group_529">
<g id="Group_530">
<path id="Vector_243" d="M148.12 154.56H141.68V161H148.12V154.56Z" fill="white"/>
</g>
</g>
<g id="Group_531">
<g id="Group_532">
<path id="Vector_244" d="M154.56 154.56H148.12V161H154.56V154.56Z" fill="white"/>
</g>
</g>
<g id="Group_533">
<g id="Group_534">
<g id="Group_535">
<path id="Vector_245" d="M161 154.56H154.56V161H158.786C159.398 161 159.92 160.784 160.352 160.352C160.784 159.92 161 159.398 161 158.786V154.56Z" fill="white"/>
</g>
</g>
</g>
<g id="Group_536">
<g id="Group_537">
<g id="Group_538">
<path id="Vector_246" d="M29.8655 45.0801H15.228C6.83413 45.0801 0.009016 38.1738 0.009016 29.6898L0 7.62939e-05H29.8655C38.2549 7.62939e-05 45.08 6.90633 45.08 15.3904V29.6898V45.0801H29.8655ZM38.318 15.3904C38.318 10.6326 34.5263 6.76208 29.8655 6.76208H6.7638L6.77102 29.6875C6.77102 34.4475 10.5649 38.3181 15.228 38.3181H38.318V15.3904Z" fill="white"/>
</g>
</g>
</g>
<g id="Group_539">
<g id="Group_540">
<g id="Group_541">
<path id="Vector_247" d="M145.785 0H131.148C122.754 0 115.929 6.90626 115.929 15.3903L115.92 45.08H145.785C154.175 45.08 161 38.1737 161 29.6897V15.3903V0H145.785ZM154.238 29.6897C154.238 34.4474 150.446 38.318 145.785 38.318H122.683L122.691 15.3926C122.691 10.6326 126.485 6.762 131.148 6.762H154.238V29.6897Z" fill="white"/>
</g>
</g>
</g>
<g id="Group_542">
<g id="Group_543">
<g id="Group_544">
<path id="Vector_248" d="M29.8655 115.92H15.228C6.83413 115.92 0.009016 122.826 0.009016 131.31L0 161H29.8655C38.2549 161 45.08 154.094 45.08 145.61V131.31V115.92H29.8655ZM38.318 145.61C38.318 150.367 34.5263 154.238 29.8655 154.238H6.7638L6.77102 131.312C6.77102 126.552 10.5649 122.682 15.228 122.682H38.318V145.61Z" fill="white"/>
</g>
</g>
</g>
<g id="Group_545">
<g id="Group_546">
<path id="Vector_249" d="M32.1997 12.8799H12.8797V32.1999H32.1997V12.8799Z" fill="white"/>
</g>
</g>
<g id="Group_547">
<g id="Group_548">
<path id="Vector_250" d="M148.12 12.8799H128.8V32.1999H148.12V12.8799Z" fill="white"/>
</g>
</g>
<g id="Group_549">
<g id="Group_550">
<path id="Vector_251" d="M32.1997 128.8H12.8797V148.12H32.1997V128.8Z" fill="white"/>
</g>
</g>
</g>
</g>
</mask>
<g mask="url(#mask0_1456_20146)">
<path id="Vector_252" d="M161 0H0V161H161V0Z" fill="url(#paint0_radial_1456_20146)"/>
</g>
</g>
<defs>
<radialGradient id="paint0_radial_1456_20146" cx="0" cy="0" r="1" gradientUnits="userSpaceOnUse" gradientTransform="translate(85.3788 80.5004) rotate(-16.4589) scale(65.2969 137.393)">
<stop stop-color="#57A6FE"/>
<stop offset="1" stop-color="#09AC67"/>
</radialGradient>
</defs>
</svg>
