<svg width="24" height="24" viewBox="0 0 24 24" fill="none" xmlns="http://www.w3.org/2000/svg">
<path fill-rule="evenodd" clip-rule="evenodd" d="M17.2429 7.82421C16.8055 7.47394 16.1494 7.51838 15.7778 7.97713C15.4062 8.43675 15.4933 9.09285 15.953 9.46447C16.5433 9.94543 16.9149 10.6895 16.9149 11.4986C16.9149 12.3734 16.4997 13.1388 15.8436 13.6198C15.4284 13.9256 15.3626 14.5381 15.6907 14.932L15.7778 15.0191C16.1281 15.4343 16.7842 15.5223 17.1994 15.1942C18.2929 14.3417 18.9925 12.9849 18.9925 11.4986C18.9925 10.0113 18.3151 8.69907 17.2429 7.82427V7.82421Z" fill="url(#paint0_linear_2599_217909)"/>
<path fill-rule="evenodd" clip-rule="evenodd" d="M19.6282 4.8944C19.1908 4.54413 18.5569 4.63213 18.1845 5.04732C17.8342 5.48472 17.8786 6.14082 18.316 6.49109C19.7589 7.69394 20.6994 9.48706 20.6994 11.4989C20.6994 13.5107 19.7588 15.3261 18.316 16.5067C17.8786 16.8569 17.835 17.513 18.1845 17.9504C18.5347 18.3878 19.1908 18.475 19.6282 18.1256C21.553 16.5725 22.7994 14.189 22.7994 11.5211C22.7772 8.83082 21.5521 6.44656 19.6282 4.89422V4.8944Z" fill="url(#paint1_linear_2599_217909)"/>
<path fill-rule="evenodd" clip-rule="evenodd" d="M11.1418 3.29742L5.82716 7.38689H3.22507C2.54675 7.38689 2 7.93364 2 8.61196V14.3852C2 15.0635 2.54675 15.6103 3.22507 15.6103H5.82716L11.163 19.6997C12.1036 20.4216 13.437 19.7655 13.437 18.5627L13.4379 4.41301C13.4379 3.25372 12.0821 2.57543 11.1416 3.29729L11.1418 3.29742Z" fill="url(#paint2_linear_2599_217909)"/>
<defs>
<linearGradient id="paint0_linear_2599_217909" x1="15.4824" y1="15.3941" x2="18.7458" y2="15.4959" gradientUnits="userSpaceOnUse">
<stop stop-color="#1DD13B"/>
<stop offset="1" stop-color="#27C6E5"/>
</linearGradient>
<linearGradient id="paint1_linear_2599_217909" x1="17.9512" y1="18.3412" x2="22.4602" y2="18.4522" gradientUnits="userSpaceOnUse">
<stop stop-color="#1DD13B"/>
<stop offset="1" stop-color="#27C6E5"/>
</linearGradient>
<linearGradient id="paint2_linear_2599_217909" x1="2" y1="20.0004" x2="12.6211" y2="20.4962" gradientUnits="userSpaceOnUse">
<stop stop-color="#1DD13B"/>
<stop offset="1" stop-color="#27C6E5"/>
</linearGradient>
</defs>
</svg>
