<svg width="24" height="24" viewBox="0 0 24 24" fill="none" xmlns="http://www.w3.org/2000/svg">
<path fill-rule="evenodd" clip-rule="evenodd" d="M4.61464 3.20993L4.70895 3.29321L20.7068 19.2911C21.0977 19.682 21.0977 20.3158 20.7068 20.7068C20.3459 21.0677 19.7781 21.0954 19.3854 20.7901L19.2911 20.7068L13.498 14.913L13.5 20C13.5 20.5523 13.0523 21 12.5 21L12.3915 20.9956C12.0979 20.9956 11.8164 20.8839 11.6089 20.685L7.959 16.999L3 17C1.89543 17 1 16.1046 1 15V9C1 7.89543 1.89543 7 3 7L5.583 6.998L3.29321 4.70895C2.90226 4.318 2.90226 3.68415 3.29321 3.29321C3.65408 2.93234 4.22192 2.90458 4.61464 3.20993ZM19.3132 4.906C20.8177 6.94311 21.643 9.40749 21.643 11.994C21.643 13.5765 21.3341 15.1132 20.7497 16.5343L19.1891 14.9739C19.4874 14.0225 19.643 13.0203 19.643 11.994C19.643 9.83925 18.957 7.79087 17.7047 6.0952C17.3765 5.65078 17.4705 5.0243 17.9146 4.69591C18.3588 4.36752 18.985 4.46158 19.3132 4.906ZM17.3213 8.77251C17.932 9.72859 18.2617 10.8405 18.2617 11.9986C18.2617 12.6099 18.1699 13.2083 17.9933 13.7777L16.2615 12.0458L16.2617 11.9986C16.2617 11.2248 16.0426 10.486 15.6358 9.84909C15.3385 9.38365 15.4749 8.76533 15.9403 8.46804C16.4057 8.17075 17.0241 8.30707 17.3213 8.77251ZM12.5 3C13.0128 3 13.4355 3.38604 13.4933 3.88338L13.5 4L13.497 9.282L9.575 5.36L11.6089 3.31058C11.8434 3.08589 12.157 2.98311 12.4639 3.00225L12.5 3Z" fill="url(#paint0_linear_2427_252460)"/>
<defs>
<linearGradient id="paint0_linear_2427_252460" x1="1" y1="21" x2="20.0898" y2="22.519" gradientUnits="userSpaceOnUse">
<stop stop-color="#1DD13B"/>
<stop offset="1" stop-color="#27C6E5"/>
</linearGradient>
</defs>
</svg>
