<svg width="30" height="29" viewBox="0 0 30 29" fill="none" xmlns="http://www.w3.org/2000/svg">
<path d="M16.5795 12.9383C14.7476 13.1749 13.3672 14.6665 13.3271 16.4527L13.2263 20.9457H10.9062C9.92937 20.9457 8.96683 21.1727 8.09969 21.6074C7.0752 22.1211 7.29408 23.5956 8.42666 23.81L11.632 24.4169C13.8911 24.8447 16.0968 25.5033 18.212 26.3816L19.0574 26.7326C22.9328 28.3418 27.0014 24.8751 25.8363 20.9565L23.7937 14.0873C23.4514 12.936 22.2882 12.2009 21.0599 12.3595L16.5795 12.9383Z" fill="url(#paint0_linear_701_145675)"/>
<path fill-rule="evenodd" clip-rule="evenodd" d="M9.402 8.27151C8.60489 8.59107 8.2267 9.47478 8.55728 10.2453L13.871 22.6307C14.2016 23.4013 15.1158 23.7669 15.9129 23.4473C16.71 23.1277 17.0882 22.244 16.7576 21.4735L11.4439 9.08807C11.1133 8.31753 10.1991 7.95194 9.402 8.27151Z" fill="url(#paint1_linear_701_145675)"/>
<path opacity="0.6" fill-rule="evenodd" clip-rule="evenodd" d="M10 4.22921C6.8934 4.22921 4.375 6.66366 4.375 9.66671C4.375 11.8603 5.71871 13.7517 7.65654 14.6115C7.97025 14.7506 8.10785 15.1093 7.96386 15.4126C7.81988 15.7158 7.44884 15.8488 7.13513 15.7096C4.76977 14.6602 3.125 12.3498 3.125 9.66671C3.125 5.99631 6.20304 3.02087 10 3.02087C13.797 3.02087 16.875 5.99631 16.875 9.66671C16.875 9.85285 16.8671 10.0373 16.8515 10.2199C16.8231 10.5524 16.5212 10.7997 16.1772 10.7723C15.8332 10.7449 15.5773 10.453 15.6057 10.1205C15.6185 9.971 15.625 9.81965 15.625 9.66671C15.625 6.66366 13.1066 4.22921 10 4.22921Z" fill="url(#paint2_linear_701_145675)"/>
<defs>
<linearGradient id="paint0_linear_701_145675" x1="7.44141" y1="27.136" x2="24.669" y2="28.3072" gradientUnits="userSpaceOnUse">
<stop stop-color="#1DD13B"/>
<stop offset="1" stop-color="#27C6E5"/>
</linearGradient>
<linearGradient id="paint1_linear_701_145675" x1="7.44141" y1="27.136" x2="24.669" y2="28.3072" gradientUnits="userSpaceOnUse">
<stop stop-color="#1DD13B"/>
<stop offset="1" stop-color="#27C6E5"/>
</linearGradient>
<linearGradient id="paint2_linear_701_145675" x1="3.125" y1="15.7649" x2="15.8497" y2="16.7175" gradientUnits="userSpaceOnUse">
<stop stop-color="#1DD13B"/>
<stop offset="1" stop-color="#27C6E5"/>
</linearGradient>
</defs>
</svg>
