<svg width="27" height="23" viewBox="0 0 27 23" fill="none" xmlns="http://www.w3.org/2000/svg">
<path fill-rule="evenodd" clip-rule="evenodd" d="M17.3171 3.78838C17.3171 5.46263 18.6641 6.81977 20.3258 6.81977C21.9875 6.81977 23.3345 5.46263 23.3345 3.78838V3.03139C23.3345 1.35713 21.9875 0 20.3258 0C18.6641 0 17.3171 1.35713 17.3171 3.03139V3.78838ZM4.54651 8.26047C4.54651 10.4928 6.34257 12.3023 8.55814 12.3023C10.7737 12.3023 12.5698 10.4928 12.5698 8.26047V7.25115C12.5698 5.01881 10.7737 3.2093 8.55814 3.2093C6.34257 3.2093 4.54651 5.01881 4.54651 7.25115V8.26047ZM0 18.7209C0 15.8753 5.70186 14.4419 8.55814 14.4419C11.4144 14.4419 17.1163 15.8753 17.1163 18.7209V20.8605C17.1163 22.0421 16.1584 23 14.9767 23H2.13953C0.957902 23 0 22.0421 0 20.8605V18.7209ZM20.3258 8.42442C18.1836 8.42442 13.9072 9.49953 13.9072 11.6337V13.2384C13.9072 14.1246 14.6256 14.843 15.5119 14.843H25.1398C26.026 14.843 26.7444 14.1246 26.7444 13.2384V11.6337C26.7444 9.49953 22.468 8.42442 20.3258 8.42442Z" fill="url(#paint0_linear_701_147900)"/>
<defs>
<linearGradient id="paint0_linear_701_147900" x1="-1.99262e-07" y1="23" x2="24.7278" y2="24.995" gradientUnits="userSpaceOnUse">
<stop stop-color="#1DD13B"/>
<stop offset="1" stop-color="#27C6E5"/>
</linearGradient>
</defs>
</svg>
