<svg width="24" height="24" viewBox="0 0 24 24" fill="none" xmlns="http://www.w3.org/2000/svg">
<g id="Videocalls / ic_24_mic">
<g id="mic">
<path d="M16.6705 6.45592C16.6088 3.98451 14.584 2 12.0953 2C9.56765 2 7.5186 4.04701 7.5186 6.57212V11.1217L7.52018 11.2378C7.58458 13.708 9.60773 15.6909 12.0953 15.6937C14.6217 15.6909 16.6691 13.6456 16.672 11.1217V6.57212L16.6705 6.45592Z" fill="white" fill-opacity="0.96"/>
<path d="M12.597 17.7106C15.8546 17.4461 18.3647 14.7301 18.369 11.465C18.369 10.9625 18.7773 10.5552 19.2797 10.5552C19.7822 10.5552 20.1905 10.9625 20.1905 11.465C20.1853 15.5673 17.1103 19.0178 13.032 19.4977V21.0631C13.032 21.5805 12.6126 21.9999 12.0952 21.9999C11.5779 21.9999 11.1585 21.5805 11.1585 21.0631V19.4977C7.08019 19.0178 4.00522 15.5673 4 11.465C4 10.9625 4.40825 10.5552 4.91073 10.5552C5.41321 10.5552 5.82146 10.9625 5.82146 11.465C5.82577 14.7301 8.33588 17.4461 11.5935 17.7106H12.597Z" fill="white" fill-opacity="0.96"/>
</g>
</g>
</svg>
